<svg id="Layer_1" data-name="Layer 1" xmlns="http://www.w3.org/2000/svg" xmlns:xlink="http://www.w3.org/1999/xlink" viewBox="0 0 1080 1080"><defs><style>.cls-1,.cls-11{opacity:0.73;}.cls-1{fill:url(#linear-gradient);}.cls-2{fill:url(#linear-gradient-2);}.cls-3{fill:url(#linear-gradient-3);}.cls-4{fill:url(#linear-gradient-4);}.cls-5{fill:#231f20;}.cls-6{fill:#a77043;}.cls-7{fill:#8e8e8e;}.cls-8{fill:#fab915;}.cls-9{fill:#555656;}.cls-10{fill:#9f9fa4;stroke:#d3d3d3;stroke-miterlimit:10;stroke-width:11px;}.cls-11{fill:url(#linear-gradient-5);}.cls-12{fill:url(#linear-gradient-6);}.cls-13{fill:url(#linear-gradient-7);}.cls-14{fill:url(#linear-gradient-8);}.cls-15{fill:#fff;}</style><linearGradient id="linear-gradient" x1="109.69" y1="562.99" x2="331.87" y2="562.99" gradientUnits="userSpaceOnUse"><stop offset="0" stop-color="#603913"/><stop offset="0.22" stop-color="#72471f"/><stop offset="0.73" stop-color="#986539"/><stop offset="1" stop-color="#a77043"/><stop offset="1"/></linearGradient><linearGradient id="linear-gradient-2" x1="235.32" y1="397.05" x2="565.64" y2="397.05" gradientUnits="userSpaceOnUse"><stop offset="0" stop-color="#603913"/><stop offset="0" stop-color="#a7a9ac"/><stop offset="0" stop-color="#d7d7d7"/><stop offset="1" stop-color="#939598"/></linearGradient><linearGradient id="linear-gradient-3" x1="536.25" y1="395.42" x2="848.49" y2="395.42" gradientUnits="userSpaceOnUse"><stop offset="0" stop-color="#603913"/><stop offset="0" stop-color="#a7a9ac"/><stop offset="0" stop-color="#fbb040"/><stop offset="1" stop-color="#fee100"/></linearGradient><linearGradient id="linear-gradient-4" x1="748.17" y1="563.26" x2="974" y2="563.26" gradientUnits="userSpaceOnUse"><stop offset="0" stop-color="#603913"/><stop offset="0" stop-color="#a7a9ac"/><stop offset="0" stop-color="#414042"/><stop offset="1" stop-color="#a7a7ad"/></linearGradient><linearGradient id="linear-gradient-5" x1="83.01" y1="148.2" x2="226.7" y2="148.2" xlink:href="#linear-gradient"/><linearGradient id="linear-gradient-6" x1="200.07" y1="148.2" x2="343.76" y2="148.2" xlink:href="#linear-gradient-2"/><linearGradient id="linear-gradient-7" x1="317.28" y1="148.2" x2="460.97" y2="148.2" xlink:href="#linear-gradient-3"/><linearGradient id="linear-gradient-8" x1="434.1" y1="148.2" x2="577.79" y2="148.2" xlink:href="#linear-gradient-4"/></defs><path class="cls-1" d="M235.32,410.68l26.3,27.89h40.1v42.24L331.87,511a291.81,291.81,0,0,0-83.05,204.31H109.69A430.79,430.79,0,0,1,235.32,410.68Z"/><path class="cls-2" d="M537.36,283.11l-.52,38.34,28.8,27.9-29.39,30.34.65,42.66a293,293,0,0,0-205,88.65l-30.15-30.19V438.57h-40.1l-26.3-27.89a431.27,431.27,0,0,1,302-127.57Z"/><path class="cls-3" d="M848.49,411.21l-27.89,26.3v40.1H778.36l-30.19,30.15A292.71,292.71,0,0,0,536.9,422.35l-.65-42.66,29.39-30.34-28.8-27.9.52-38.34a429.38,429.38,0,0,1,311.13,128.1Z"/><path class="cls-4" d="M834.48,715.31H974a428.93,428.93,0,0,0-125.51-304.1l-27.89,26.3v40.1H778.36l-30.19,30.15a291.72,291.72,0,0,1,86.31,207.55Z"/><path class="cls-5" d="M207.49,639.81q-.75,5.16-1.28,10.28-15.36-5.1-30.5-10.22.72-5,1.64-10c1.11-5.87,5.19-7.65,9.29-6.21a8.8,8.8,0,0,1,5.93,7.27c1.11-2.84,4.72-4.24,8.39-3C205.45,629.57,208.32,634.1,207.49,639.81Zm-27-8.46q-.54,3-1,6l9.8,3.33q.44-3,.94-6.08c.56-3.38-.85-6-3.89-7S181.15,627.8,180.51,631.35Zm13,4.17c-.34,2.1-.66,4.19-.94,6.27q5.35,1.82,10.74,3.61.39-3.18.87-6.37c.53-3.57-1-6.39-4.29-7.52S194.1,632,193.52,635.52Z"/><path class="cls-5" d="M210.69,622.11c-.26,1.21-.51,2.43-.76,3.64q-11.67-4.07-23.21-8.15c.28-1.22.57-2.44.88-3.66l3.73,1.33a8.25,8.25,0,0,1-2.29-8.6l3.9,1.41c-.08.32-.17.64-.26,1-.93,3.51.07,6.74,5.42,8.63Z"/><path class="cls-5" d="M216.43,601.28c-1.84,6.26-7.61,9.36-14.86,6.76s-10.32-9.13-8.24-15.4,8.32-9.56,15.25-7A12.44,12.44,0,0,1,216.43,601.28Zm-3.29-1.19c1.14-3.84-.26-8.57-5.87-10.66s-9.5.64-10.74,4.43.37,8.37,6.08,10.43S212,603.92,213.14,600.09Z"/><path class="cls-5" d="M215.61,564.09c-4.35-1.67-7.69-.07-9.29,3.65s-.35,7.21,4.34,9l12.07,4.55c-.46,1.22-.91,2.45-1.35,3.68q-11-4.12-21.89-8.23c.48-1.22,1-2.45,1.47-3.67l3.08,1.17a8.46,8.46,0,0,1-.48-8.43c2.25-5.13,7.12-7.87,13.18-5.52l12.56,4.83c-.53,1.21-1.05,2.43-1.57,3.64Z"/><path class="cls-5" d="M220.78,538.58q4.53,8.29,9.63,16.65,2.59-5.41,5.42-10.8l2.84,1.11q-3.88,7.49-7.33,15l-2.9-1.12q-5.24-8.34-9.93-16.64-2.81,5.29-5.39,10.6l-2.84-1.1q3.65-7.42,7.73-14.79Z"/><path class="cls-5" d="M246.8,531.49c-3.58,6.21-10.15,9.19-16.68,6.61s-8.05-8.61-4.13-14.94,10.69-8.74,16.08-6.55a16.26,16.26,0,0,1,1.92.92q-5.56,8.64-10.49,17.37c4.29,1.37,8.29-.84,10.45-4.54,1.91-3.27,1.64-5.94,0-7.6.8-1.29,1.62-2.58,2.44-3.87C249.28,521.46,249.94,526.08,246.8,531.49Zm-16,2.28q3.93-6.9,8.24-13.73c-3.85-1.6-8,.68-10.3,4.4C226.54,528,227,531.79,230.77,533.77Z"/><path class="cls-5" d="M366.41,420.91c-4.79,3-10.41,2.67-13.55-1.13,1.12-.77,2.25-1.53,3.38-2.29,1.71,1.84,4.71,2.88,8.07.74,3.06-1.93,3.59-4.83,2-7.2-4.47-6.83-15.29,6.27-21.24-2.45-2.56-3.9-.59-9.12,4.68-12.63,5.11-3.38,9.74-2.78,12.21.84-1.27.77-2.53,1.56-3.79,2.35-1.16-1.55-3.85-2.41-7.09-.32-2.87,1.81-4.3,4.7-2.68,7.3,4,6.13,15.18-6.73,21.13,2.76C371.85,412.49,371.57,417.68,366.41,420.91Z"/><path class="cls-5" d="M363.7,387.54a3,3,0,0,1,1.45-3.73,2.27,2.27,0,0,1,3.37,1,3,3,0,0,1-1.34,3.66A2.36,2.36,0,0,1,363.7,387.54Zm3.23,5.25c1.17-.68,2.35-1.36,3.53-2a166.54,166.54,0,0,0,11.8,20.46L379,413A165.15,165.15,0,0,1,366.93,392.79Z"/><path class="cls-5" d="M373.46,380.17c1.22-.65,2.45-1.29,3.69-1.93a161.58,161.58,0,0,0,14,28.32l-3.31,1.69A161,161,0,0,1,373.46,380.17Z"/><path class="cls-5" d="M387.6,381.84q7,7.34,15,15.14a121.62,121.62,0,0,1-1.21-21.26c1.33-.54,2.66-1.07,4-1.59a121.91,121.91,0,0,0,.92,25.36c-1.32.56-2.64,1.14-4,1.73q-10-9.09-18.72-17.47C385,383.1,386.29,382.46,387.6,381.84Z"/><path class="cls-5" d="M427.21,392.07c-6,2-12.64-.88-15.52-7.9s.53-13.05,7.27-15.22,12.16,1.22,14,7.38c.26.82.42,1.49.6,2.3-5.94,1.62-11.82,3.5-17.63,5.59,2.09,4.41,6.27,5.83,9.89,4.65a5.92,5.92,0,0,0,4.47-6.09c1.31-.39,2.62-.76,3.93-1.12A9.71,9.71,0,0,1,427.21,392.07Zm-12.36-10.86q7-2.5,14-4.58c-1.33-4.39-5.29-5.8-9.22-4.54A7.13,7.13,0,0,0,414.85,381.21Z"/><path class="cls-5" d="M445.6,386.49l-3.59.88a170.86,170.86,0,0,1-6.72-22.6c1.3-.31,2.6-.61,3.9-.89.24,1.18.5,2.38.78,3.58.74-2.76,3-4.83,6.75-5.51.23,1.25.47,2.5.73,3.77l-1,.19c-3.69.71-6.21,2.9-4.77,8.12Q443.35,380.17,445.6,386.49Z"/><path class="cls-5" d="M661.49,367.07c-1.41-.52-2.81-1-4.22-1.52a7.77,7.77,0,0,0-5.82-7.82c-5.67-1.76-11.84,1.54-14.91,8.41s-.78,12.09,4.85,13.66c5.26,1.47,10.51-.81,13.59-6.11q-5.37-1.86-10.71-3.38c.45-1,.91-2,1.36-3q7.22,2.08,14.47,4.77l-1.29,2.77c-3.82,6.62-11.68,10.23-18.92,8.25-7.51-2.06-10.7-9.16-6.9-17.78s12.4-13.3,20-10.9A11.78,11.78,0,0,1,661.49,367.07Z"/><path class="cls-5" d="M666.88,392.73c-6-2.54-8.53-8.51-5.32-15.4s10-9.29,16-6.53,8.72,9.44,5.52,16S672.93,395.29,666.88,392.73Zm1.48-3.11c3.69,1.57,8.5.78,11.08-4.56s.23-9.55-3.42-11.2-8.3-.54-10.85,4.89S664.68,388,668.36,389.62Z"/><path class="cls-5" d="M696.31,371.57c1.17.65,2.35,1.31,3.52,2q-6.84,14-13.7,28c-1.17-.63-2.35-1.25-3.53-1.85Z"/><path class="cls-5" d="M711.19,389.45a13.05,13.05,0,0,1,5.83,9.18l5.3-10.6q1.77,1.25,3.51,2.54Q719.1,404,712.3,417.5q-1.77-1.22-3.54-2.4l1.89-3.77c-2.39,1.38-6.06,1.44-9.93-.95a12.51,12.51,0,0,1-4.79-16.64C699.1,387.31,705.5,385.72,711.19,389.45Zm-.8,3.35c-3.85-2.52-8.48-1.78-10.86,3.05a9,9,0,0,0,3.36,12c3.87,2.41,8.56,1.9,10.92-2.81A9.47,9.47,0,0,0,710.39,392.8Z"/><path class="cls-5" d="M839.57,506.67q-1.55-2.51-3.12-5-5.21,3.48-10.44,6.84c-.7-1.1-1.4-2.2-2.11-3.3q12.51-8.13,24.75-16.88,2.76,4.23,5.44,8.54c3.91,6.3,2.44,11.51-1.68,14.19C848.56,513.57,843.56,513.15,839.57,506.67Zm2.7-1.78c2.42,3.91,5.18,4.46,8,2.6s3.62-4.79,1.15-8.77c-1.06-1.7-2.13-3.4-3.2-5.08q-4.53,3.17-9.1,6.24Q840.71,502.39,842.27,504.89Z"/><path class="cls-5" d="M863.92,509.6c.7,1.2,1.39,2.4,2.08,3.6q-13.43,8.81-27.1,16.89c-.65-1.15-1.31-2.31-2-3.45Q850.55,518.48,863.92,509.6Z"/><path class="cls-5" d="M867.67,532.7a11.08,11.08,0,0,1,.2,10.69l3.75-2.19,1.89,3.79q-10.31,6-20.72,11.54c-.6-1.23-1.2-2.45-1.81-3.67,1.29-.7,2.58-1.4,3.86-2.11-2.89-.09-6.26-1.84-8.32-5.79-3-5.71-1.09-12.49,5.18-16.3S864.53,526.74,867.67,532.7Zm-2.55,2.49c-2.12-4-6.65-5.75-11.43-2.88s-5.82,7.78-3.78,11.71,6.59,5.82,11.46,3.09A8.75,8.75,0,0,0,865.12,535.19Z"/><path class="cls-5" d="M874.17,553.8q-.7-1.49-1.41-2.94l2.83-1.61c.48,1,.95,2,1.42,3l5.22-3c.61,1.27,1.21,2.55,1.81,3.83l-5.23,3q1.4,3,2.77,6l-2.87,1.56c-.91-2-1.83-4-2.76-6q-6.13,3.39-12.33,6.64c-2.06,1.09-2.41,2.28-1.37,4.58.42.92.83,1.84,1.24,2.76l-3,1.5c-.5-1.12-1-2.24-1.51-3.36-1.8-4-1.32-7,2.87-9.21S870.09,556.08,874.17,553.8Z"/><path class="cls-5" d="M883.66,566.72c.57,1.29,1.14,2.59,1.7,3.89q-10.54,5.6-21.21,10.78c-.54-1.27-1.08-2.52-1.63-3.78Q873.14,572.36,883.66,566.72Zm5.51-3.79a2.5,2.5,0,0,1,3.55,1.37,3,3,0,0,1-1.25,3.89,2.48,2.48,0,0,1-3.51-1.3A3.09,3.09,0,0,1,889.17,562.93Z"/><path class="cls-5" d="M885.77,599.35c4.42-2.06,5.66-5.86,4.09-9.89s-5-5.7-9.59-3.43q-5.92,2.9-11.87,5.68c-.51-1.28-1-2.56-1.55-3.84q10.73-5.08,21.34-10.57c.55,1.31,1.09,2.63,1.63,4l-3,1.54c2.85.44,5.23,2.71,6.5,6,2.18,5.6.68,11.45-5.54,14.31q-6.4,3-12.83,5.77c-.46-1.3-.94-2.6-1.41-3.89C877.59,603.13,881.69,601.26,885.77,599.35Z"/><path class="cls-5" d="M884.15,636.85c-.41-1.36-.82-2.72-1.24-4.08l3.28-1.31c-2.79-.64-5-3.11-6.06-6.33-1.81-5.57-.19-11.19,6.06-14q6.4-2.85,12.77-5.82c.48,1.35.95,2.7,1.42,4.06q-6.15,2.83-12.33,5.54c-4.44,1.94-5.81,5.59-4.48,9.67s4.56,6.07,9.33,4.1q6.08-2.52,12.14-5.17c.44,1.4.87,2.79,1.3,4.2Q895.29,632.49,884.15,636.85Z"/><path class="cls-5" d="M908.17,676c4.67-1.61,6.42-5.38,5.41-9.69s-4.2-6.48-9.07-4.68q-6.24,2.28-12.49,4.45c-.33-1.4-.67-2.78-1-4.17q6.4-2.25,12.79-4.64c4.61-1.72,6.24-5.48,5.1-9.72s-4.4-6.27-9.21-4.36q-6.16,2.43-12.34,4.74c-.38-1.38-.77-2.75-1.16-4.13q11.18-4.24,22.3-8.91c.41,1.42.82,2.83,1.22,4.25l-3.21,1.32c2.83.72,5,3.25,5.86,6.65,1.14,4.26.4,8.49-2.56,11.47,3.64.28,6.33,3.33,7.27,7.38,1.4,6-.87,11.94-7.43,14.17-4.49,1.53-9,3-13.5,4.45-.29-1.42-.59-2.84-.89-4.25Q901.72,678.22,908.17,676Z"/><circle class="cls-5" cx="536.25" cy="610.96" r="16.13"/><path class="cls-5" d="M517.47,600.85a20,20,0,0,1,24.6-10.42A416.67,416.67,0,0,0,460.8,461.3a428.67,428.67,0,0,0,56.67,139.55Z"/><path class="cls-5" d="M334.21,683.2V655.77h7.47a17.53,17.53,0,0,1,6.95,1.23,12.48,12.48,0,0,1,4.61,3.3,13.47,13.47,0,0,1,2.56,4.53,16.13,16.13,0,0,1,.79,5,13.75,13.75,0,0,1-1.08,5.58,12.47,12.47,0,0,1-3,4.21,13,13,0,0,1-4.32,2.68,14.46,14.46,0,0,1-5.18.93Zm3.68-3.53h4.44a12.41,12.41,0,0,0,4.15-.68,9.9,9.9,0,0,0,3.34-2,8.81,8.81,0,0,0,2.22-3.17,12,12,0,0,0,0-8.72,9,9,0,0,0-2.27-3.21,10,10,0,0,0-3.27-1.95,11,11,0,0,0-3.79-.66h-4.78Z"/><path class="cls-5" d="M362.78,655.77h3.68V683.2h-3.68Z"/><path class="cls-5" d="M388.54,660.66a19.6,19.6,0,0,0-3.08-1.25,10.83,10.83,0,0,0-3.26-.53,5.55,5.55,0,0,0-3.51,1,3.31,3.31,0,0,0-1.31,2.73,3.07,3.07,0,0,0,.86,2.19,7.4,7.4,0,0,0,2.2,1.53c.89.43,1.85.84,2.86,1.22a21.68,21.68,0,0,1,2.5,1.08,9.87,9.87,0,0,1,2.26,1.53,6.77,6.77,0,0,1,1.6,2.24,8.09,8.09,0,0,1,.58,3.26,7.41,7.41,0,0,1-4.17,6.8,10.55,10.55,0,0,1-4.82,1,14.32,14.32,0,0,1-3.43-.4,14.55,14.55,0,0,1-3.06-1.08,22.07,22.07,0,0,1-2.5-1.4l1.63-2.89A16.72,16.72,0,0,0,376,679a13,13,0,0,0,2.46.93,10.16,10.16,0,0,0,2.51.34,7.63,7.63,0,0,0,2.58-.46,4.77,4.77,0,0,0,2.08-1.44,3.91,3.91,0,0,0,.84-2.62,3.65,3.65,0,0,0-.74-2.31,6.21,6.21,0,0,0-1.94-1.61,18.18,18.18,0,0,0-2.59-1.2,26.93,26.93,0,0,1-2.64-1.06,13.5,13.5,0,0,1-2.43-1.46,6.87,6.87,0,0,1-1.82-2.11,6.06,6.06,0,0,1-.7-3,6.87,6.87,0,0,1,1-3.78,7.31,7.31,0,0,1,2.87-2.54,9.71,9.71,0,0,1,4.17-1,15.44,15.44,0,0,1,4.68.64,17.48,17.48,0,0,1,3.59,1.56Z"/><path class="cls-5" d="M416.57,681.15a15.86,15.86,0,0,1-1.86,1,13.37,13.37,0,0,1-2.75,1,15,15,0,0,1-3.47.38,14.76,14.76,0,0,1-5.71-1.14,12.93,12.93,0,0,1-7.11-7.38,14.52,14.52,0,0,1-.95-5.29,15.78,15.78,0,0,1,1-5.67,12.94,12.94,0,0,1,7.15-7.49,13.64,13.64,0,0,1,5.44-1.07,14.33,14.33,0,0,1,4.48.67,16.83,16.83,0,0,1,3.45,1.53l-1.48,3.49a15.12,15.12,0,0,0-2.77-1.48,9.54,9.54,0,0,0-7.36.12,9.81,9.81,0,0,0-3.15,2.24,10.73,10.73,0,0,0-2.92,7.47,11.84,11.84,0,0,0,.7,4.12,9.92,9.92,0,0,0,2,3.33,9.17,9.17,0,0,0,3.17,2.22,10.34,10.34,0,0,0,4.17.8,10.08,10.08,0,0,0,3.72-.64,11.31,11.31,0,0,0,2.7-1.45Z"/><path class="cls-5" d="M421.05,669.5a13.65,13.65,0,0,1,1.08-5.39,14.23,14.23,0,0,1,3-4.49,14.42,14.42,0,0,1,4.46-3.06,13.88,13.88,0,0,1,10.83,0,14.5,14.5,0,0,1,7.55,7.55A13.93,13.93,0,0,1,448,675a14.13,14.13,0,0,1-7.51,7.46,13.69,13.69,0,0,1-5.42,1.08,13.86,13.86,0,0,1-5.45-1.06,14,14,0,0,1-7.47-7.42A13.87,13.87,0,0,1,421.05,669.5Zm3.79,0a10.52,10.52,0,0,0,.78,4.08,10.29,10.29,0,0,0,2.2,3.32,10.66,10.66,0,0,0,3.26,2.26,10.31,10.31,0,0,0,8,0,10.36,10.36,0,0,0,3.22-2.24,10.69,10.69,0,0,0,2.18-3.32,10.8,10.8,0,0,0,0-8.16,11.24,11.24,0,0,0-2.18-3.36,10.09,10.09,0,0,0-11.3-2.25,10.16,10.16,0,0,0-3.27,2.27,10.31,10.31,0,0,0-2.14,3.36A10.79,10.79,0,0,0,424.84,669.5Z"/><path class="cls-5" d="M458.57,673.48a6.18,6.18,0,0,0,.89,3.32,6.36,6.36,0,0,0,2.39,2.3,6.65,6.65,0,0,0,3.32.83,7,7,0,0,0,3.45-.83,6.1,6.1,0,0,0,2.37-2.3,6.44,6.44,0,0,0,.86-3.32V655.77h3.64V673.6a9.83,9.83,0,0,1-1.37,5.23,9.19,9.19,0,0,1-3.72,3.46,11.84,11.84,0,0,1-10.43,0,9.19,9.19,0,0,1-3.72-3.46,9.82,9.82,0,0,1-1.36-5.23V655.77h3.68Z"/><path class="cls-5" d="M506.75,684.07l-21.21-21.51,1.06.26.08,20.38H483V654.93h.19l20.94,21.59-.83-.19-.08-20.56h3.68v28.3Z"/><path class="cls-5" d="M512.7,655.77H531v3.53h-7.36v23.9h-3.68V659.3H512.7Z"/><path class="cls-5" d="M556.1,655.77a11.87,11.87,0,0,1,5.12,1,7.51,7.51,0,0,1,3.29,2.9,8.7,8.7,0,0,1,1.15,4.6,10.62,10.62,0,0,1-.49,3.2,8.14,8.14,0,0,1-1.57,2.85,8,8,0,0,1-2.83,2,10.55,10.55,0,0,1-4.25.77h-4.06V683.2h-3.68V655.77Zm.38,13.77a6.25,6.25,0,0,0,2.7-.51,4.41,4.41,0,0,0,1.67-1.35,6,6,0,0,0,.87-1.71,5.81,5.81,0,0,0,.26-1.63,6.25,6.25,0,0,0-.26-1.72,4.69,4.69,0,0,0-.89-1.64,4.86,4.86,0,0,0-1.63-1.21,5.76,5.76,0,0,0-2.49-.47h-4.25v10.24Z"/><path class="cls-5" d="M566,683.2l12-28.57h.22l12,28.57H586l-9-22.8,2.62-1.71-10,24.51Zm7-10.4h10.21l1.21,3.19H572Z"/><path class="cls-5" d="M614,681.15a17.7,17.7,0,0,1-1.86,1,13.58,13.58,0,0,1-2.75,1,15,15,0,0,1-3.47.38,14.72,14.72,0,0,1-5.71-1.14,12.91,12.91,0,0,1-7.12-7.38,14.73,14.73,0,0,1-1-5.29,15.78,15.78,0,0,1,1-5.67A13.27,13.27,0,0,1,596,659.5a13,13,0,0,1,4.32-3,13.69,13.69,0,0,1,5.45-1.07,14.27,14.27,0,0,1,4.47.67,17.18,17.18,0,0,1,3.46,1.53l-1.48,3.49a15.45,15.45,0,0,0-2.77-1.48,9.27,9.27,0,0,0-3.57-.68,9.17,9.17,0,0,0-3.79.8A9.81,9.81,0,0,0,598.9,662a10.7,10.7,0,0,0-2.15,3.34,10.92,10.92,0,0,0-.77,4.13,11.84,11.84,0,0,0,.7,4.12,9.92,9.92,0,0,0,2,3.33,9.08,9.08,0,0,0,3.17,2.22,10.34,10.34,0,0,0,4.17.8,10.08,10.08,0,0,0,3.72-.64,11.23,11.23,0,0,0,2.69-1.45Z"/><path class="cls-5" d="M623.9,666.81l-.08,1.36.46-.68,11.23-11.72h4.74l-11.34,11.76,12,15.67h-4.66l-10-13.32-2.31,2.24V683.2h-3.72V655.77h3.72Z"/><path class="cls-5" d="M643.21,683.2l11.95-28.57h.23l12,28.57h-4.21l-8.95-22.8,2.62-1.71-10,24.51Zm7-10.4h10.2l1.22,3.19H649.16Z"/><path class="cls-5" d="M693,680.84a6.64,6.64,0,0,1-1.59,1,17.47,17.47,0,0,1-2.26.85,19.29,19.29,0,0,1-2.52.61,14.47,14.47,0,0,1-2.47.23,16.52,16.52,0,0,1-6-1,13.44,13.44,0,0,1-4.53-2.85,12.06,12.06,0,0,1-2.86-4.29,14.09,14.09,0,0,1-1-5.31,15.88,15.88,0,0,1,1.12-6.18,13.47,13.47,0,0,1,3-4.57,12.92,12.92,0,0,1,4.5-2.85,15.2,15.2,0,0,1,5.37-1,17.43,17.43,0,0,1,4.47.55,15,15,0,0,1,3.61,1.46l-1.22,3.38a14.24,14.24,0,0,0-1.91-.81,16.33,16.33,0,0,0-2.3-.65,10.86,10.86,0,0,0-2.16-.25,12.49,12.49,0,0,0-4.42.74,9.77,9.77,0,0,0-3.38,2.13,9.35,9.35,0,0,0-2.18,3.34,12.12,12.12,0,0,0-.76,4.38,10.93,10.93,0,0,0,.76,4.08,9.23,9.23,0,0,0,2.18,3.22,9.79,9.79,0,0,0,3.36,2.07,12.33,12.33,0,0,0,4.33.72,14,14,0,0,0,2.73-.27,6.9,6.9,0,0,0,2.31-.83v-5.39h-5.42v-3.56H693Z"/><path class="cls-5" d="M700,655.77h17.83v3.53H703.72v8.34h12.63v3.57H703.72v8.46H718.4v3.53H700Z"/><path class="cls-5" d="M739,660.66a19.47,19.47,0,0,0-3.07-1.25,10.83,10.83,0,0,0-3.26-.53,5.55,5.55,0,0,0-3.51,1,3.31,3.31,0,0,0-1.31,2.73,3.06,3.06,0,0,0,.85,2.19,7.66,7.66,0,0,0,2.2,1.53c.9.43,1.86.84,2.87,1.22a22.46,22.46,0,0,1,2.5,1.08,9.87,9.87,0,0,1,2.26,1.53,6.61,6.61,0,0,1,1.59,2.24,8.08,8.08,0,0,1,.59,3.26,7.41,7.41,0,0,1-4.17,6.8,10.55,10.55,0,0,1-4.82,1,15,15,0,0,1-6.49-1.48,22.07,22.07,0,0,1-2.5-1.4l1.63-2.89a16.72,16.72,0,0,0,2.09,1.24,13,13,0,0,0,2.46.93,10.16,10.16,0,0,0,2.51.34,7.63,7.63,0,0,0,2.58-.46,4.83,4.83,0,0,0,2.08-1.44,3.91,3.91,0,0,0,.84-2.62,3.65,3.65,0,0,0-.74-2.31,6.33,6.33,0,0,0-1.94-1.61,18.31,18.31,0,0,0-2.6-1.2,27.79,27.79,0,0,1-2.63-1.06,12.84,12.84,0,0,1-2.43-1.46,6.61,6.61,0,0,1-1.82-2.11,6.06,6.06,0,0,1-.71-3,6.79,6.79,0,0,1,1-3.78,7.28,7.28,0,0,1,2.86-2.54,9.79,9.79,0,0,1,4.18-1,15.44,15.44,0,0,1,4.68.64,17.72,17.72,0,0,1,3.59,1.56Z"/><path class="cls-6" d="M128.52,829.13a11.93,11.93,0,0,1,7,1.81,6.42,6.42,0,0,1,2.55,5.61,7.62,7.62,0,0,1-1.07,4.09,7.32,7.32,0,0,1-2.95,2.69,11.15,11.15,0,0,1-4.47,1.14l-.58-2.08a15.16,15.16,0,0,1,5.35,1.06,9.21,9.21,0,0,1,3.76,2.74,6.54,6.54,0,0,1,1.39,4.16,8.3,8.3,0,0,1-.8,3.78,7,7,0,0,1-2.21,2.57,9.54,9.54,0,0,1-3.14,1.47,14,14,0,0,1-3.65.47h-8.78V829.13Zm.82,12.9a4.32,4.32,0,0,0,3.55-1.35,5,5,0,0,0,1.1-3.27,4,4,0,0,0-1.42-3.43,6.38,6.38,0,0,0-3.84-1.06h-3.84V842ZM129.5,855a8.76,8.76,0,0,0,3-.49,4.54,4.54,0,0,0,2.14-1.53,4.06,4.06,0,0,0,.79-2.55,3.78,3.78,0,0,0-.91-2.69,5.32,5.32,0,0,0-2.35-1.41,10,10,0,0,0-2.94-.43h-4.37V855Z"/><path class="cls-6" d="M148.61,841.74l.37,4.9-.17-.7a7.58,7.58,0,0,1,1.88-2.61,9.24,9.24,0,0,1,2.61-1.67,7.43,7.43,0,0,1,2.37-.62l-.16,3.84a5.48,5.48,0,0,0-3.41.72,6.5,6.5,0,0,0-2.29,2.28,5.84,5.84,0,0,0-.83,3v7.72h-3.8v-16.9Z"/><path class="cls-6" d="M158.32,850a8.78,8.78,0,0,1,1.21-4.58,8.69,8.69,0,0,1,3.34-3.22,9.93,9.93,0,0,1,4.88-1.19,9.57,9.57,0,0,1,4.82,1.19,8.42,8.42,0,0,1,3.24,3.22,9.53,9.53,0,0,1,0,9.15,8.54,8.54,0,0,1-3.24,3.24,9.48,9.48,0,0,1-4.86,1.21,10.14,10.14,0,0,1-4.84-1.13,8.36,8.36,0,0,1-3.32-3.14A9,9,0,0,1,158.32,850Zm3.84,0a6,6,0,0,0,.74,3,5.8,5.8,0,0,0,1.95,2.1,5.08,5.08,0,0,0,2.78.77,5.15,5.15,0,0,0,2.82-.77,5.69,5.69,0,0,0,1.94-2.1,6.53,6.53,0,0,0,0-5.92,5.78,5.78,0,0,0-1.94-2.13,5.33,5.33,0,0,0-5.62,0,5.88,5.88,0,0,0-2,2.15A6.09,6.09,0,0,0,162.16,850.07Z"/><path class="cls-6" d="M185.51,841.74l.28,4.12-.12-.65a6.31,6.31,0,0,1,2.61-3,8.07,8.07,0,0,1,4.29-1.12,5.57,5.57,0,0,1,3.9,1.4,4.89,4.89,0,0,1,1.57,3.66v12.49H194.2V847.45a3.43,3.43,0,0,0-.79-2.22,2.93,2.93,0,0,0-2.35-.88,4.55,4.55,0,0,0-2.63.82,5.38,5.38,0,0,0-1.88,2.24,7.7,7.7,0,0,0-.67,3.31v7.92H182v-16.9Z"/><path class="cls-6" d="M206.2,844.84a3.16,3.16,0,0,1-2.14-.77,3,3,0,0,1-.88-2.33v-1.63h2.9v.53c0,.46.1.76.31.9a2,2,0,0,0,1,.2h10.86l-10.13,14.53-.77-.78h10.73v3.15H202.49l10.33-14.86.65,1.06Z"/><path class="cls-6" d="M231.39,859.05a10,10,0,0,1-5-1.17,8.14,8.14,0,0,1-3.22-3.18,9.17,9.17,0,0,1-1.15-4.63,8.3,8.3,0,0,1,1.29-4.53,9.63,9.63,0,0,1,3.41-3.27,9.24,9.24,0,0,1,4.73-1.23,8.08,8.08,0,0,1,5.55,2,10.12,10.12,0,0,1,3,5.39l-14,4.9-.89-2.24,11.38-4.21-.77.57a5.5,5.5,0,0,0-1.63-2.32,4.41,4.41,0,0,0-3-1,5.17,5.17,0,0,0-2.76.73,5.28,5.28,0,0,0-1.9,2,6.27,6.27,0,0,0-.69,3,6.48,6.48,0,0,0,.71,3.06,5.35,5.35,0,0,0,2,2.11,6,6,0,0,0,5.07.34,9.16,9.16,0,0,0,2-1.06l1.72,2.82a11.91,11.91,0,0,1-2.84,1.39A9.69,9.69,0,0,1,231.39,859.05Z"/><path class="cls-7" d="M386,834.8a21.05,21.05,0,0,0-3.3-1.35,11.59,11.59,0,0,0-3.51-.57,6,6,0,0,0-3.78,1.1,3.56,3.56,0,0,0-1.41,2.94,3.28,3.28,0,0,0,.92,2.35,7.91,7.91,0,0,0,2.37,1.65c1,.46,2,.9,3.08,1.31a23.21,23.21,0,0,1,2.69,1.16,10.84,10.84,0,0,1,2.43,1.65,7.16,7.16,0,0,1,1.72,2.41,8.74,8.74,0,0,1,.63,3.51,8.16,8.16,0,0,1-1.16,4.29,8.07,8.07,0,0,1-3.33,3,11.35,11.35,0,0,1-5.18,1.1,16.1,16.1,0,0,1-7-1.59,23.86,23.86,0,0,1-2.7-1.51l1.76-3.1a17.21,17.21,0,0,0,2.24,1.32,13.11,13.11,0,0,0,2.66,1,10.24,10.24,0,0,0,2.69.37,8,8,0,0,0,2.78-.49,5.18,5.18,0,0,0,2.24-1.55,4.22,4.22,0,0,0,.9-2.82,4,4,0,0,0-.8-2.49,6.75,6.75,0,0,0-2.08-1.73,20.64,20.64,0,0,0-2.8-1.29,27,27,0,0,1-2.83-1.14,13.7,13.7,0,0,1-2.61-1.57,7.15,7.15,0,0,1-2-2.27,6.47,6.47,0,0,1-.76-3.26,7.28,7.28,0,0,1,1.12-4.06,7.84,7.84,0,0,1,3.09-2.74,10.5,10.5,0,0,1,4.49-1.08,16.78,16.78,0,0,1,5,.69,19,19,0,0,1,3.85,1.68Z"/><path class="cls-7" d="M393.31,836a1.93,1.93,0,0,1,.71-1.51,2.36,2.36,0,0,1,1.58-.61,2.29,2.29,0,0,1,1.55.61,1.94,1.94,0,0,1,.69,1.51,1.91,1.91,0,0,1-.69,1.53,2.33,2.33,0,0,1-1.55.6,2.4,2.4,0,0,1-1.58-.6A1.9,1.9,0,0,1,393.31,836Zm.24,6.13h3.84v16.9h-3.84Z"/><path class="cls-7" d="M403.92,827.45h3.84v31.6h-3.84Z"/><path class="cls-7" d="M421.19,859.54l-9.39-17.39h4.53l6.33,13.43-2.33-.13,5.84-13.3h4.24l-9,17.39Z"/><path class="cls-7" d="M441.93,859.45a10,10,0,0,1-5-1.16,8.23,8.23,0,0,1-3.23-3.18,9.28,9.28,0,0,1-1.14-4.64,8.38,8.38,0,0,1,1.28-4.53,9.69,9.69,0,0,1,3.41-3.26,9.28,9.28,0,0,1,4.74-1.23,8.08,8.08,0,0,1,5.55,2,10.15,10.15,0,0,1,3,5.39l-14,4.9-.9-2.25,11.39-4.2-.78.57a5.5,5.5,0,0,0-1.63-2.33,4.42,4.42,0,0,0-3-1,5.15,5.15,0,0,0-4.65,2.76,6.16,6.16,0,0,0-.7,3,6.4,6.4,0,0,0,.72,3.06,5.13,5.13,0,0,0,2,2.1,5.6,5.6,0,0,0,2.92.76,5.85,5.85,0,0,0,2.14-.41,10,10,0,0,0,2-1.06l1.71,2.82a11.63,11.63,0,0,1-2.83,1.38A9.46,9.46,0,0,1,441.93,859.45Z"/><path class="cls-7" d="M458.7,842.15l.37,4.89-.16-.69a7.37,7.37,0,0,1,1.87-2.61,9.18,9.18,0,0,1,2.62-1.68,7.27,7.27,0,0,1,2.36-.61l-.16,3.84a5.56,5.56,0,0,0-3.41.71,6.58,6.58,0,0,0-2.28,2.29,5.83,5.83,0,0,0-.84,3v7.72h-3.8v-16.9Z"/><path class="cls-8" d="M647.53,857a7,7,0,0,1-1.71,1,18.1,18.1,0,0,1-2.43.92,22.31,22.31,0,0,1-2.71.66,15.64,15.64,0,0,1-2.66.24,17.81,17.81,0,0,1-6.41-1.1,14.42,14.42,0,0,1-4.87-3.06,13.22,13.22,0,0,1-3.09-4.62,15.34,15.34,0,0,1-1.06-5.71,17.07,17.07,0,0,1,1.21-6.65,14.49,14.49,0,0,1,3.28-4.92,13.84,13.84,0,0,1,4.84-3.06,16.08,16.08,0,0,1,5.78-1,18.27,18.27,0,0,1,4.81.59,15.73,15.73,0,0,1,3.88,1.57l-1.31,3.63a16.74,16.74,0,0,0-2.06-.88,20,20,0,0,0-2.47-.69,11.13,11.13,0,0,0-2.32-.26,13.39,13.39,0,0,0-4.76.79,10.34,10.34,0,0,0-3.63,2.29,9.92,9.92,0,0,0-2.35,3.59,13,13,0,0,0-.82,4.71,11.7,11.7,0,0,0,.82,4.39,9.62,9.62,0,0,0,2.35,3.47,10.5,10.5,0,0,0,3.61,2.23,13.42,13.42,0,0,0,4.65.77,15.41,15.41,0,0,0,2.94-.28,7.6,7.6,0,0,0,2.49-.9v-5.8H637.7v-3.84h9.83Z"/><path class="cls-8" d="M652.64,850.92a8.86,8.86,0,0,1,1.2-4.57,8.58,8.58,0,0,1,3.35-3.22,9.9,9.9,0,0,1,4.87-1.19,9.57,9.57,0,0,1,4.82,1.19,8.45,8.45,0,0,1,3.25,3.22,9.58,9.58,0,0,1,0,9.14,8.6,8.6,0,0,1-3.25,3.25,9.57,9.57,0,0,1-4.86,1.2,10.07,10.07,0,0,1-4.83-1.12,8.53,8.53,0,0,1-3.33-3.14A9,9,0,0,1,652.64,850.92Zm3.83,0a6,6,0,0,0,.74,3,5.59,5.59,0,0,0,2,2.1,5,5,0,0,0,2.77.78,5.15,5.15,0,0,0,2.82-.78,5.54,5.54,0,0,0,1.94-2.1,6.53,6.53,0,0,0,0-5.92,5.83,5.83,0,0,0-1.94-2.12,5.08,5.08,0,0,0-2.82-.8,5,5,0,0,0-2.79.82,5.84,5.84,0,0,0-2,2.14A6,6,0,0,0,656.47,851Z"/><path class="cls-8" d="M676.35,827.94h3.84v31.6h-3.84Z"/><path class="cls-8" d="M693.62,859.94a8.1,8.1,0,0,1-4.25-1.12,8.22,8.22,0,0,1-3-3.18,9.79,9.79,0,0,1-1.12-4.76,9.31,9.31,0,0,1,1.18-4.82,8,8,0,0,1,3.19-3.06,9.51,9.51,0,0,1,4.49-1.06,8.92,8.92,0,0,1,3.82.86,6.83,6.83,0,0,1,2.83,2.37l-.2,1.34V827.94h3.79v31.6h-3.79v-4.21l.45,1.06a9.49,9.49,0,0,1-3.13,2.55A8.93,8.93,0,0,1,693.62,859.94Zm1.18-3.22a6,6,0,0,0,2.68-.57,5.87,5.87,0,0,0,1.95-1.53,5.58,5.58,0,0,0,1.13-2.27v-3.22a5.28,5.28,0,0,0-1.17-2.17,5.69,5.69,0,0,0-2-1.45,6.37,6.37,0,0,0-2.59-.51,5.65,5.65,0,0,0-2.81.74,5.53,5.53,0,0,0-2.09,2,6.27,6.27,0,0,0,0,6,6,6,0,0,0,2.09,2.12A5.32,5.32,0,0,0,694.8,856.72Z"/><path class="cls-9" d="M840.29,830a12.8,12.8,0,0,1,5.51,1.08,8.1,8.1,0,0,1,3.53,3.13,9.29,9.29,0,0,1,1.25,4.94,11.6,11.6,0,0,1-.53,3.45,8.79,8.79,0,0,1-1.7,3.06,8.32,8.32,0,0,1-3,2.2,11.14,11.14,0,0,1-4.57.84h-4.37v10.82h-4V830Zm.41,14.82a6.64,6.64,0,0,0,2.9-.55,4.75,4.75,0,0,0,1.8-1.45,6.26,6.26,0,0,0,.93-1.84,6,6,0,0,0,.29-1.75,6.53,6.53,0,0,0-.29-1.86,5,5,0,0,0-1-1.76,5.15,5.15,0,0,0-1.76-1.3,6.23,6.23,0,0,0-2.67-.51h-4.58v11Z"/><path class="cls-9" d="M855.72,827.94h3.84v31.6h-3.84Z"/><path class="cls-9" d="M873.15,859.94a9.07,9.07,0,0,1-4.3-1,7.62,7.62,0,0,1-3.09-3,10.78,10.78,0,0,1,0-9.73A8.25,8.25,0,0,1,869,843a9,9,0,0,1,4.37-1.1,7.23,7.23,0,0,1,4,1.08,7.33,7.33,0,0,1,2.47,2.56l-.25.61.37-3.55h3.51v16.9h-3.8v-4.41l.45,1a4.9,4.9,0,0,1-.77,1,10,10,0,0,1-1.45,1.28,7.72,7.72,0,0,1-2.06,1.08A7.81,7.81,0,0,1,873.15,859.94Zm1-3.14a6.05,6.05,0,0,0,2.57-.53,5,5,0,0,0,1.9-1.51,5.58,5.58,0,0,0,1-2.29v-3.3a5.2,5.2,0,0,0-1.14-2.15,5.84,5.84,0,0,0-2-1.43,6,6,0,0,0-2.49-.51,5.49,5.49,0,0,0-4.84,2.78,6,6,0,0,0-.75,3.06,5.93,5.93,0,0,0,.77,3,5.67,5.67,0,0,0,2.09,2.12A5.39,5.39,0,0,0,874.17,856.8Z"/><path class="cls-9" d="M891.64,835.21h3.88v7.51h4.62v3h-4.62v13.84h-3.88V845.7h-3.06v-3h3.06Z"/><path class="cls-9" d="M904.42,836.51a1.93,1.93,0,0,1,.71-1.51,2.38,2.38,0,0,1,1.58-.61,2.29,2.29,0,0,1,1.55.61,1.94,1.94,0,0,1,.69,1.51,1.91,1.91,0,0,1-.69,1.53,2.33,2.33,0,0,1-1.55.6,2.42,2.42,0,0,1-1.58-.6A1.9,1.9,0,0,1,904.42,836.51Zm.25,6.13h3.83v16.9h-3.83Z"/><path class="cls-9" d="M918.5,842.64l.29,4.12-.12-.65a6.12,6.12,0,0,1,2.61-3,8,8,0,0,1,4.28-1.13,5.53,5.53,0,0,1,3.9,1.41A4.84,4.84,0,0,1,931,847v12.5H927.2V848.35a3.47,3.47,0,0,0-.8-2.22,2.91,2.91,0,0,0-2.35-.88,4.61,4.61,0,0,0-2.63.81,5.55,5.55,0,0,0-1.88,2.25,7.64,7.64,0,0,0-.67,3.31v7.92H915v-16.9Z"/><path class="cls-9" d="M943,860.19a5.38,5.38,0,0,1-3.86-1.41,5,5,0,0,1-1.57-3.65V842.64h3.83v11.14a3.72,3.72,0,0,0,.82,2.22,2.88,2.88,0,0,0,2.29.92,4.16,4.16,0,0,0,2.51-.83,6.07,6.07,0,0,0,1.81-2.29,7.43,7.43,0,0,0,.7-3.29v-7.87h3.79v16.9h-3.47l-.32-4.17.24.78a6.64,6.64,0,0,1-1.51,2.06,7.23,7.23,0,0,1-2.35,1.45A8,8,0,0,1,943,860.19Z"/><path class="cls-9" d="M963.36,842.64l.33,3.79-.2-.32a7.39,7.39,0,0,1,2.67-3.05,7.32,7.32,0,0,1,4-1.12,6.32,6.32,0,0,1,2.49.47,4.79,4.79,0,0,1,1.82,1.31,4.22,4.22,0,0,1,.92,2l-.21.16a7.24,7.24,0,0,1,2.72-2.92,7,7,0,0,1,3.65-1,5.39,5.39,0,0,1,3.94,1.43A5.21,5.21,0,0,1,987,847v12.54H983.2V848.39a4,4,0,0,0-.63-2.18,2.38,2.38,0,0,0-2.06-.92,4.21,4.21,0,0,0-2.63.88,5.66,5.66,0,0,0-1.8,2.28,7.83,7.83,0,0,0-.67,3.08v8h-3.84V848.39a3.79,3.79,0,0,0-.68-2.18,2.49,2.49,0,0,0-2.1-.92,4.14,4.14,0,0,0-2.61.88,6,6,0,0,0-1.8,2.3,7.5,7.5,0,0,0-.65,3.11v8h-3.84v-16.9Z"/><line class="cls-10" x1="82.21" y1="889.75" x2="273.55" y2="889.75"/><line class="cls-10" x1="82.21" y1="908.53" x2="273.55" y2="908.53"/><line class="cls-10" x1="82.21" y1="927.31" x2="273.55" y2="927.31"/><line class="cls-10" x1="82.21" y1="946.08" x2="273.55" y2="946.08"/><line class="cls-10" x1="82.21" y1="964.86" x2="273.55" y2="964.86"/><line class="cls-10" x1="82.21" y1="983.64" x2="273.55" y2="983.64"/><line class="cls-10" x1="82.21" y1="1002.42" x2="177.88" y2="1002.42"/><line class="cls-10" x1="324.43" y1="889.75" x2="515.77" y2="889.75"/><line class="cls-10" x1="324.43" y1="908.53" x2="515.77" y2="908.53"/><line class="cls-10" x1="324.43" y1="927.31" x2="515.77" y2="927.31"/><line class="cls-10" x1="324.43" y1="946.08" x2="515.77" y2="946.08"/><line class="cls-10" x1="324.43" y1="964.86" x2="515.77" y2="964.86"/><line class="cls-10" x1="324.43" y1="983.64" x2="515.77" y2="983.64"/><line class="cls-10" x1="324.43" y1="1002.42" x2="420.1" y2="1002.42"/><line class="cls-10" x1="569.32" y1="889.75" x2="760.66" y2="889.75"/><line class="cls-10" x1="569.32" y1="908.53" x2="760.66" y2="908.53"/><line class="cls-10" x1="569.32" y1="927.31" x2="760.66" y2="927.31"/><line class="cls-10" x1="569.32" y1="946.08" x2="760.66" y2="946.08"/><line class="cls-10" x1="569.32" y1="964.86" x2="760.66" y2="964.86"/><line class="cls-10" x1="569.32" y1="983.64" x2="760.66" y2="983.64"/><line class="cls-10" x1="569.32" y1="1002.42" x2="664.99" y2="1002.42"/><line class="cls-10" x1="812.77" y1="889.75" x2="1004.1" y2="889.75"/><line class="cls-10" x1="812.77" y1="908.53" x2="1004.1" y2="908.53"/><line class="cls-10" x1="812.77" y1="927.31" x2="1004.1" y2="927.31"/><line class="cls-10" x1="812.77" y1="946.08" x2="1004.1" y2="946.08"/><line class="cls-10" x1="812.77" y1="964.86" x2="1004.1" y2="964.86"/><line class="cls-10" x1="812.77" y1="983.64" x2="1004.1" y2="983.64"/><line class="cls-10" x1="812.77" y1="1002.42" x2="908.43" y2="1002.42"/><path class="cls-11" d="M200.66,100.32H83v95.76H200.66l26-47.88Z"/><path class="cls-12" d="M317.72,100.32H200.07q13.31,23.94,26.63,47.88-13.32,23.94-26.63,47.88H317.72l26-47.88Z"/><path class="cls-13" d="M434.93,100.32H317.28q13.31,23.94,26.63,47.88-13.32,23.94-26.63,47.88H434.93l26-47.88Z"/><path class="cls-14" d="M551.75,100.32H434.1q13.31,23.94,26.63,47.88-13.32,23.94-26.63,47.88H551.75l26-47.88Z"/><path class="cls-15" d="M140.59,160.83a11.28,11.28,0,0,1-4.58-.91,9.84,9.84,0,0,1-3.57-2.72,12.88,12.88,0,0,1-2.3-4.33,18.18,18.18,0,0,1-.82-5.67,20.51,20.51,0,0,1,.78-6,11.53,11.53,0,0,1,2.26-4.27,9.31,9.31,0,0,1,3.57-2.55,12.56,12.56,0,0,1,4.66-.83,11,11,0,0,1,4.55.92,9.63,9.63,0,0,1,3.55,2.71,13.29,13.29,0,0,1,2.33,4.31,18.17,18.17,0,0,1,.83,5.69A18.58,18.58,0,0,1,151,153a13,13,0,0,1-2.33,4.3,9.55,9.55,0,0,1-3.55,2.68A11.26,11.26,0,0,1,140.59,160.83Zm0-3.79a6.27,6.27,0,0,0,4-1.25,7.55,7.55,0,0,0,2.4-3.51,15.86,15.86,0,0,0,.86-5.2,14.84,14.84,0,0,0-.86-5,7.56,7.56,0,0,0-2.4-3.43,6.27,6.27,0,0,0-4-1.25,6.15,6.15,0,0,0-3.92,1.25,7.58,7.58,0,0,0-2.41,3.45,16.39,16.39,0,0,0,0,10.24,7.55,7.55,0,0,0,2.41,3.49A6.15,6.15,0,0,0,140.55,157Z"/><path class="cls-15" d="M155.44,133.85h7v26.86h-4v-23h-3.07Z"/><path class="cls-15" d="M262.87,161a11.24,11.24,0,0,1-4.57-.92,9.57,9.57,0,0,1-3.57-2.72,12.83,12.83,0,0,1-2.3-4.32,18.29,18.29,0,0,1-.82-5.68,20.92,20.92,0,0,1,.77-6,11.56,11.56,0,0,1,2.27-4.26,9,9,0,0,1,3.57-2.55,12.34,12.34,0,0,1,4.65-.84,11,11,0,0,1,4.56.92,9.72,9.72,0,0,1,3.55,2.71,13.09,13.09,0,0,1,2.32,4.31,17.87,17.87,0,0,1,.84,5.69,18.28,18.28,0,0,1-.84,5.76,12.74,12.74,0,0,1-2.32,4.3,9.63,9.63,0,0,1-3.55,2.68A11.32,11.32,0,0,1,262.87,161Zm0-3.8a6.17,6.17,0,0,0,4-1.25,7.53,7.53,0,0,0,2.41-3.5,16,16,0,0,0,.86-5.21,14.93,14.93,0,0,0-.86-5,7.57,7.57,0,0,0-2.41-3.43,6.22,6.22,0,0,0-4-1.24,6.14,6.14,0,0,0-3.91,1.24,7.51,7.51,0,0,0-2.41,3.45,16.43,16.43,0,0,0,0,10.25,7.45,7.45,0,0,0,2.41,3.48A6.09,6.09,0,0,0,262.83,157.16Z"/><path class="cls-15" d="M277.73,160.83q2.61-2.52,5-5t4.25-4.73a25.76,25.76,0,0,0,3-4.41,9,9,0,0,0,1.1-4.16,5.44,5.44,0,0,0-.43-2.29,4.77,4.77,0,0,0-1.12-1.57,4.5,4.5,0,0,0-1.59-.94,5.93,5.93,0,0,0-1.88-.31,5.6,5.6,0,0,0-2.29.43,4.26,4.26,0,0,0-1.51,1.12,5,5,0,0,0-.85,1.5,4.54,4.54,0,0,0-.29,1.53,6.53,6.53,0,0,0,.43,2.43,6.05,6.05,0,0,0,1.16,1.89l-2.41,2.17a5.14,5.14,0,0,1-1.65-1.72,9.31,9.31,0,0,1-1-2.39,8.14,8.14,0,0,1-.37-2.26,8.41,8.41,0,0,1,1.1-4.19,8.31,8.31,0,0,1,3.21-3.12,10.36,10.36,0,0,1,5.16-1.18,8.24,8.24,0,0,1,4.47,1.18,8.34,8.34,0,0,1,3,3.14,8.78,8.78,0,0,1,1.06,4.25,10.4,10.4,0,0,1-.81,4,19.78,19.78,0,0,1-2.19,3.86q-1.37,1.89-3,3.77l-3.26,3.76-1.76-.57h11.92v3.79Z"/><path class="cls-15" d="M384.34,160.83a11.23,11.23,0,0,1-4.57-.91,9.67,9.67,0,0,1-3.57-2.72,13.07,13.07,0,0,1-2.31-4.33,18.49,18.49,0,0,1-.81-5.67,20.87,20.87,0,0,1,.77-6,11.69,11.69,0,0,1,2.27-4.27,9.24,9.24,0,0,1,3.57-2.55,12.54,12.54,0,0,1,4.65-.83,11,11,0,0,1,4.56.92,9.72,9.72,0,0,1,3.55,2.71,13.09,13.09,0,0,1,2.32,4.31,17.87,17.87,0,0,1,.84,5.69,18.28,18.28,0,0,1-.84,5.76,12.84,12.84,0,0,1-2.32,4.3,9.63,9.63,0,0,1-3.55,2.68A11.31,11.31,0,0,1,384.34,160.83Zm0-3.79a6.23,6.23,0,0,0,4-1.25,7.56,7.56,0,0,0,2.41-3.51,15.86,15.86,0,0,0,.86-5.2,14.84,14.84,0,0,0-.86-5,7.57,7.57,0,0,0-2.41-3.43,6.83,6.83,0,0,0-7.88,0,7.57,7.57,0,0,0-2.4,3.45,16.39,16.39,0,0,0,0,10.24,7.54,7.54,0,0,0,2.4,3.49A6.19,6.19,0,0,0,384.3,157Z"/><path class="cls-15" d="M414.88,133.85l-7.19,11.56-2.37-1.11a5.23,5.23,0,0,1,1.21-.41,6.85,6.85,0,0,1,1.28-.12,9.32,9.32,0,0,1,2.94.31,6.73,6.73,0,0,1,2.58,1.35,6.66,6.66,0,0,1,1.81,2.51,9.58,9.58,0,0,1,.68,3.83,9.11,9.11,0,0,1-1.31,4.94,8.87,8.87,0,0,1-3.45,3.21,10.29,10.29,0,0,1-8.65.32,9.33,9.33,0,0,1-3.21-2.1l2-3.31a6.53,6.53,0,0,0,2.1,1.68,6,6,0,0,0,2.84.73,5.73,5.73,0,0,0,2.78-.69,5.26,5.26,0,0,0,2-2,5.93,5.93,0,0,0,.75-3,4.85,4.85,0,0,0-1.38-3.66,5.24,5.24,0,0,0-3.76-1.32,10.14,10.14,0,0,0-2,.16,10.34,10.34,0,0,0-1.47.41L403,147l6.37-9.88,1.22.53h-9.84v-3.8Z"/><path class="cls-15" d="M498,160.83a11.23,11.23,0,0,1-4.57-.91,9.67,9.67,0,0,1-3.57-2.72,13.07,13.07,0,0,1-2.31-4.33,18.49,18.49,0,0,1-.81-5.67,20.87,20.87,0,0,1,.77-6,11.54,11.54,0,0,1,2.27-4.27,9.24,9.24,0,0,1,3.57-2.55,12.54,12.54,0,0,1,4.65-.83,10.92,10.92,0,0,1,4.55.92,9.67,9.67,0,0,1,3.56,2.71,13.27,13.27,0,0,1,2.32,4.31,17.87,17.87,0,0,1,.84,5.69,18.28,18.28,0,0,1-.84,5.76,13,13,0,0,1-2.32,4.3,9.59,9.59,0,0,1-3.56,2.68A11.23,11.23,0,0,1,498,160.83Zm0-3.79a6.23,6.23,0,0,0,4-1.25,7.56,7.56,0,0,0,2.41-3.51,16.13,16.13,0,0,0,.86-5.2,15.09,15.09,0,0,0-.86-5,7.57,7.57,0,0,0-2.41-3.43,6.83,6.83,0,0,0-7.88,0,7.57,7.57,0,0,0-2.4,3.45,16.39,16.39,0,0,0,0,10.24,7.54,7.54,0,0,0,2.4,3.49A6.17,6.17,0,0,0,498,157Z"/><path class="cls-15" d="M511.23,154.22v0l16.37-20.65h0v17.63h3.47v3.06h-3.47v6.49h-4v-6.49Zm12.69-11.75-6.9,8.94-.61-.25h7.23v-9.43Z"/></svg>