<svg xmlns="http://www.w3.org/2000/svg" xmlns:xlink="http://www.w3.org/1999/xlink" viewBox="0 0 1080 1080"><defs><style>.cls-1{fill:url(#linear-gradient);}.cls-2{fill:url(#linear-gradient-2);}.cls-3{fill:url(#linear-gradient-3);}.cls-4{isolation:isolate;}.cls-5{fill:#f4f7fa;}.cls-6{clip-path:url(#clip-path);}.cls-17,.cls-22,.cls-23,.cls-7{fill:#fff;}.cls-17,.cls-7{opacity:0.5;}.cls-8{clip-path:url(#clip-path-2);}.cls-9{clip-path:url(#clip-path-3);}.cls-10{fill:url(#linear-gradient-7);}.cls-11{fill:url(#linear-gradient-8);}.cls-12{fill:url(#linear-gradient-9);}.cls-13{fill:url(#linear-gradient-10);}.cls-14{fill:url(#linear-gradient-11);}.cls-15{fill:url(#linear-gradient-12);}.cls-16{fill:url(#linear-gradient-13);}.cls-17,.cls-23{mix-blend-mode:soft-light;}.cls-18{fill:url(#linear-gradient-14);}.cls-19{fill:url(#linear-gradient-15);}.cls-20{fill:url(#linear-gradient-16);}.cls-21{fill:url(#linear-gradient-17);}.cls-23{opacity:0.48;}.cls-24{fill:url(#linear-gradient-18);}.cls-25,.cls-27,.cls-30{opacity:0.3;mix-blend-mode:multiply;}.cls-25{fill:url(#linear-gradient-19);}.cls-26{fill:url(#linear-gradient-20);}.cls-27{fill:url(#linear-gradient-21);}.cls-28{fill:url(#linear-gradient-22);}.cls-29{fill:url(#linear-gradient-23);}.cls-30{fill:url(#linear-gradient-24);}</style><linearGradient id="linear-gradient" x1="802.92" y1="199.69" x2="640.7" y2="460.91" gradientUnits="userSpaceOnUse"><stop offset="0" stop-color="#fcb149"/><stop offset="0.06" stop-color="#fdbb48"/><stop offset="0.14" stop-color="#ffc346"/><stop offset="0.32" stop-color="#ffc546"/><stop offset="0.48" stop-color="#fdba48"/><stop offset="0.78" stop-color="#f99d4e"/><stop offset="0.87" stop-color="#f79350"/><stop offset="1" stop-color="#f79350"/></linearGradient><linearGradient id="linear-gradient-2" x1="851.32" y1="249.16" x2="721.55" y2="636.32" gradientUnits="userSpaceOnUse"><stop offset="0" stop-color="#9681bc"/><stop offset="1" stop-color="#6166ae"/></linearGradient><linearGradient id="linear-gradient-3" x1="937.04" y1="462.04" x2="555.72" y2="775.27" gradientUnits="userSpaceOnUse"><stop offset="0" stop-color="#d191c0"/><stop offset="1" stop-color="#8172b4"/></linearGradient><clipPath id="clip-path"><path class="cls-1" d="M627.18,651.6c-12.63-36.49-25.79-92.3-12.44-154.71,15.32-71.67,51.57-86.55,83.11-163.4,50.57-123.27,9.76-212.89,38.68-221.85,30.1-9.33,106,78,105.45,172.58-.46,87.64-66.25,149.29-72.74,155.2-50.1,45.6-90,36.71-121.66,79.77C617.16,560.58,620.47,614.48,627.18,651.6Z"/></clipPath><clipPath id="clip-path-2"><path class="cls-2" d="M628.77,635.39c-7.25-26-14.25-67,3.27-106.31,30.56-68.55,101.36-54.6,159.4-130.79,46.82-61.44,25.46-102.93,80-146.31,39.16-31.13,90.63-41.95,98-30.63,7.92,12.16-43.66,36.83-67.13,97.79C871.79,398.48,925.54,444,893,493.74c-24.73,37.83-65,25.61-152.95,68.24A512,512,0,0,0,628.77,635.39Z"/></clipPath><clipPath id="clip-path-3"><path class="cls-3" d="M625.4,613a339.18,339.18,0,0,1,67.13-45.1c70.2-35.75,105.76-22.33,144.11-55.52,47.15-40.8,38-99.66,53.46-99.28,22.76.55,68.49,128.42,12.74,181.87-35.71,34.23-100.27,25.7-113.45,23.6-31.21-5-39.67-16-71.29-20.11C679.64,593.46,646.7,603.85,625.4,613Z"/></clipPath><linearGradient id="linear-gradient-7" x1="200.94" y1="685.19" x2="894.08" y2="685.19" xlink:href="#linear-gradient-2"/><linearGradient id="linear-gradient-8" x1="288.76" y1="935.59" x2="335.13" y2="830.11" gradientUnits="userSpaceOnUse"><stop offset="0" stop-color="#ffc546"/><stop offset="1" stop-color="#f36f56"/></linearGradient><linearGradient id="linear-gradient-9" x1="431.29" y1="879.78" x2="894.53" y2="879.78" gradientUnits="userSpaceOnUse"><stop offset="0.49" stop-color="#eaedf2"/><stop offset="1" stop-color="#fff"/></linearGradient><linearGradient id="linear-gradient-10" x1="419.96" y1="880" x2="902.79" y2="880" xlink:href="#linear-gradient-8"/><linearGradient id="linear-gradient-11" x1="358.08" y1="623.26" x2="273.51" y2="908.11" xlink:href="#linear-gradient-2"/><linearGradient id="linear-gradient-12" x1="431.29" y1="739.4" x2="894.53" y2="739.4" xlink:href="#linear-gradient-9"/><linearGradient id="linear-gradient-13" x1="419.96" y1="740.85" x2="902.79" y2="740.85" xlink:href="#linear-gradient-2"/><linearGradient id="linear-gradient-14" x1="496.06" y1="635.01" x2="446.17" y2="655.96" gradientUnits="userSpaceOnUse"><stop offset="0" stop-color="#41457f"/><stop offset="1" stop-color="#3d3c6c"/></linearGradient><linearGradient id="linear-gradient-15" x1="428.96" y1="393.89" x2="373.54" y2="417.17" xlink:href="#linear-gradient-14"/><linearGradient id="linear-gradient-16" x1="196.57" y1="407.67" x2="697.79" y2="407.67" xlink:href="#linear-gradient-14"/><linearGradient id="linear-gradient-17" x1="549.73" y1="307.48" x2="268.11" y2="536.39" gradientUnits="userSpaceOnUse"><stop offset="0" stop-color="#f58f86"/><stop offset="1" stop-color="#ed72ac"/></linearGradient><linearGradient id="linear-gradient-18" x1="196.57" y1="612.93" x2="906" y2="612.93" xlink:href="#linear-gradient-14"/><linearGradient id="linear-gradient-19" x1="266.14" y1="606.49" x2="785.94" y2="606.49" xlink:href="#linear-gradient-14"/><linearGradient id="linear-gradient-20" x1="843.49" y1="799.43" x2="713.82" y2="975.56" xlink:href="#linear-gradient-17"/><linearGradient id="linear-gradient-21" x1="843.49" y1="799.43" x2="713.82" y2="975.56" xlink:href="#linear-gradient-17"/><linearGradient id="linear-gradient-22" x1="758.89" y1="662.76" x2="793.73" y2="828.55" gradientUnits="userSpaceOnUse"><stop offset="0" stop-color="#a9d58f"/><stop offset="1" stop-color="#51c2ba"/></linearGradient><linearGradient id="linear-gradient-23" x1="848.96" y1="703.75" x2="782.17" y2="794.47" gradientUnits="userSpaceOnUse"><stop offset="0" stop-color="#321944"/><stop offset="1" stop-color="#6c3a77"/></linearGradient><linearGradient id="linear-gradient-24" x1="747.04" y1="665.25" x2="781.87" y2="831.04" gradientUnits="userSpaceOnUse"><stop offset="0" stop-color="#69c6b7"/><stop offset="1" stop-color="#426064"/></linearGradient></defs><g class="cls-4"><g id="Layer_1" data-name="Layer 1"><path class="cls-5" d="M560.6,120.24c-215.34-6.54-401.88,154.15-430.06,365C99.72,715.77,269.32,923.19,478,956.41,737.55,997.73,989.31,758.68,966.7,499.34,949.67,304,779.51,126.89,560.6,120.24Z"/><path class="cls-1" d="M627.18,651.6c-12.63-36.49-25.79-92.3-12.44-154.71,15.32-71.67,51.57-86.55,83.11-163.4,50.57-123.27,9.76-212.89,38.68-221.85,30.1-9.33,106,78,105.45,172.58-.46,87.64-66.25,149.29-72.74,155.2-50.1,45.6-90,36.71-121.66,79.77C617.16,560.58,620.47,614.48,627.18,651.6Z"/><g class="cls-6"><path class="cls-7" d="M628.41,733.56c-24.81-99.49-20.2-185.22,13.71-254.78,20.48-42,47.33-69.56,71-93.86,28.7-29.42,53.48-54.84,63.2-98.1,13.76-61.23-9.7-131.23-69.73-208l1-.76c60.27,77.12,83.81,147.47,70,209.08-9.8,43.61-34.69,69.14-63.52,98.7-23.63,24.23-50.41,51.69-70.81,93.54-33.77,69.29-38.35,154.73-13.61,253.93Z"/><path class="cls-7" d="M772.58,302.12l-.17-1.24a140.88,140.88,0,0,0-75.87-106.11l.56-1.1a142.13,142.13,0,0,1,76.36,105.8,152.62,152.62,0,0,0,39.42-143l1.21-.29a153.85,153.85,0,0,1-40.63,145.07Z"/><path class="cls-7" d="M699.17,401.27l.8-1.11a100.12,100.12,0,0,0-3.63-121.9l1-.79a101.35,101.35,0,0,1,4.46,122.3,196.41,196.41,0,0,0,86-29.75c58.16-37.39,78.73-96.06,84.88-119.55l1.2.31c-6.18,23.63-26.88,82.65-85.41,120.29a197.71,197.71,0,0,1-87.87,30.07Z"/><path class="cls-7" d="M636.75,493.25l0-.62c-.72-14.43-.72-29.05,0-43.46a443.7,443.7,0,0,1,14.49-92.39l1.2.32A442.63,442.63,0,0,0,638,449.24c-.7,14.15-.71,28.52,0,42.71a261.16,261.16,0,0,0,97.56-23.7c69-31.88,106.66-86.91,123-116.87l1.09.6c-16.4,30.09-54.26,85.36-123.55,117.39a262.43,262.43,0,0,1-98.66,23.85Z"/></g><path class="cls-2" d="M628.77,635.39c-7.25-26-14.25-67,3.27-106.31,30.56-68.55,101.36-54.6,159.4-130.79,46.82-61.44,25.46-102.93,80-146.31,39.16-31.13,90.63-41.95,98-30.63,7.92,12.16-43.66,36.83-67.13,97.79C871.79,398.48,925.54,444,893,493.74c-24.73,37.83-65,25.61-152.95,68.24A512,512,0,0,0,628.77,635.39Z"/><g class="cls-8"><path class="cls-7" d="M616.74,725.83H615.5c.1-94.89,23.47-163,69.46-202.46,21.87-18.76,43.07-26.44,63.56-33.86,25.2-9.13,49-17.76,70.9-46.16,19.58-25.4,23.23-48,27.1-71.86,3.56-22,7.24-44.78,23.26-72.19,24-41.11,64.46-72.79,120.23-94.17l.44,1.16c-55.49,21.28-95.73,52.78-119.6,93.64-15.9,27.21-19.56,49.86-23.11,71.76-3.89,24.05-7.57,46.77-27.34,72.42-22.12,28.69-46.08,37.37-71.45,46.56-20.39,7.39-41.48,15-63.18,33.65C640.07,563.52,616.84,631.32,616.74,725.83Z"/><path class="cls-7" d="M850.77,353.52l-.59-1.63a123.66,123.66,0,0,1-7.34-46.26c1.26-36.86,19.15-64,29.7-76.86l1,.79c-10.45,12.76-28.17,39.62-29.42,76.11a122.29,122.29,0,0,0,6.7,44.17c8.45-22.71,21.07-39.12,37.52-48.8,17.29-10.16,33-9.72,49.71-9.25,10.3.29,21,.59,32.12-1.81,34.19-7.37,64.25-38.69,89.36-93.1l1.13.52c-25.29,54.78-55.64,86.34-90.22,93.79-11.32,2.44-22,2.13-32.43,1.84-16.48-.46-32.06-.9-49,9.08-16.58,9.76-29.23,26.5-37.58,49.78Z"/><path class="cls-7" d="M812.18,453.09l-.1-.65a359.29,359.29,0,0,1,4.8-133.76l1.22.28a357.7,357.7,0,0,0-4.89,132.64A153.61,153.61,0,0,0,870,426.94a155.78,155.78,0,0,0,49-56.68l1.11.56A157,157,0,0,1,870.67,428a154.91,154.91,0,0,1-57.85,25Z"/><path class="cls-7" d="M826,515.56c-5.14,0-10.37-.17-15.7-.54A232.06,232.06,0,0,1,735,496.81l-.87-.38.69-.65a110.83,110.83,0,0,0,28-42.06,109.53,109.53,0,0,0,6.77-40.59l1.24,0a110.53,110.53,0,0,1-6.85,41A111.91,111.91,0,0,1,736.35,496a230.6,230.6,0,0,0,74,17.75c56.45,3.88,102.23-14,130.69-29.68l.6,1.09C915.75,499.47,875.54,515.56,826,515.56Z"/><path class="cls-7" d="M772.54,570.58c-6.82-8.29-21.72-23-44.92-28.32-40.66-9.34-72.45,18.09-75.94,21.25l-1.13,1,.09-1.52a169.71,169.71,0,0,1,45.42-105.76l.91.84a169.62,169.62,0,0,0-37,62.51,167.87,167.87,0,0,0-8,41c6.89-5.87,37.49-29.38,75.92-20.55,23.56,5.4,38.68,20.33,45.6,28.74Z"/></g><path class="cls-3" d="M625.4,613a339.18,339.18,0,0,1,67.13-45.1c70.2-35.75,105.76-22.33,144.11-55.52,47.15-40.8,38-99.66,53.46-99.28,22.76.55,68.49,128.42,12.74,181.87-35.71,34.23-100.27,25.7-113.45,23.6-31.21-5-39.67-16-71.29-20.11C679.64,593.46,646.7,603.85,625.4,613Z"/><g class="cls-9"><path class="cls-7" d="M608.13,624l-.76-1c41.62-32.2,83.21-48.2,123.6-47.53,21.78.35,38.7,5.34,53.63,9.75,19.65,5.8,36.63,10.8,57.15,2.36C868,576.84,888,549,898.11,509.11c16.25-63.85-19.72-117.15-31.13-132l1-.76c11.5,14.92,47.74,68.63,31.35,133-10.24,40.24-30.51,68.42-57.09,79.36-20.93,8.61-38.09,3.55-58-2.32-14.85-4.38-31.69-9.35-53.3-9.7C690.87,576.08,649.53,592,608.13,624Z"/><path class="cls-7" d="M884.53,546.16l.23-1.22a146.86,146.86,0,0,0,0-55.05,148.87,148.87,0,0,0-23.69-56.5l1-.71a150.06,150.06,0,0,1,23.89,57,148,148,0,0,1,.23,54.27A83.17,83.17,0,0,0,919,514.07c20.65-33.32,8.68-70,6.07-77l1.17-.43c2.64,7.11,14.78,44.29-6.19,78.11a84.59,84.59,0,0,1-34.4,30.88Z"/><path class="cls-7" d="M858.28,615.79a132.56,132.56,0,0,1-41-6.39,135.72,135.72,0,0,1-47.55-27.11l-1.42-1.24,1.88.15c27.26,2.18,52.8-10,66.63-31.7,14.77-23.22,9.89-48.18,8-55.27l1.2-.31c1.88,7.21,6.85,32.6-8.19,56.25-13.76,21.63-38.89,34-65.91,32.4a134.45,134.45,0,0,0,45.7,25.65c47.33,15.33,90.09-1,106.27-8.76l.54,1.12C913.05,606.05,888.43,615.79,858.28,615.79Z"/><path class="cls-7" d="M789.15,646.21c-6.66-14.25-22.51-40.36-53.82-55.1A108.29,108.29,0,0,0,693,580.93l0-1.24c25-2.44,43.2-9.51,54.09-21,1-1,2.25-2.47,4.16-4.64,2.58-2.92,6.48-7.34,12.47-13.92s12-13.1,18-19.41l.9.86c-5.94,6.29-12,12.82-17.95,19.38s-9.88,11-12.45,13.91c-1.93,2.18-3.2,3.62-4.2,4.67-10.09,10.67-26.27,17.59-48.14,20.62A108.75,108.75,0,0,1,735.86,590c31.66,14.9,47.68,41.3,54.41,55.7Z"/></g><polygon class="cls-10" points="200.94 629.17 529.4 649.19 894.08 628.17 534.4 742.21 200.94 629.17"/><path class="cls-11" d="M466.83,973.54,199.56,869.31c-26.27-7.07-46.69-33.1-46.69-58.34v-.28c0-25.25,20.42-42.18,46.69-37.55L485.76,853Z"/><path class="cls-12" d="M894.53,886.8,479.4,967.89c-26.4,3-48.11-15.46-48.11-41.16V909.29c0-25.7,21.71-48.26,48.11-50.37l415.13-67.57C875.88,826.08,871.57,858.56,894.53,886.8Z"/><path class="cls-13" d="M898.2,891.47,482.93,973.3c-34.44,3.9-63-20.21-63-53.84v-.37c0-33.62,28.53-63.2,63-65.89L898.2,786.3a4.42,4.42,0,0,1,4.59,4.71,5.35,5.35,0,0,1-4.59,5.45L482.93,864.81c-27.7,2.26-50.58,26.09-50.58,53.1v.36c0,27,22.88,46.47,50.58,43.42L898.2,881.3c2.53-.27,4.59,1.77,4.59,4.58A5.58,5.58,0,0,1,898.2,891.47Z"/><path class="cls-14" d="M477.79,853.23,199.56,773.14c-26.27-4.63-46.69-39.07-46.69-77v-.41c0-37.91,20.42-68,46.69-67l294.76,44.73Z"/><path class="cls-15" d="M894.53,778.94,503,843c-39.24,3-71.73-25.88-71.73-64.47V752.32c0-38.59,32.49-70.76,71.73-71.83l391.51-44.86C875.82,687.66,871.63,736.38,894.53,778.94Z"/><path class="cls-16" d="M898.2,786.3,482.93,853.2c-34.44,2.69-63-36.16-63-86.65V766c0-50.49,28.53-92.28,63-93.13l415.27-44.5c2.53-.06,4.59,3.3,4.59,7.51s-2.06,7.68-4.59,7.76L482.93,690.3c-27.7.83-50.58,34.51-50.58,75.06v.55c0,40.55,22.88,71.87,50.58,69.86L898.2,771c2.53-.19,4.59,3.08,4.59,7.29S900.73,786.1,898.2,786.3Z"/><path class="cls-17" d="M393.49,815.24,329,797.78c-13.57-37-12.55-71,0-111.71l64.5,11.43C381.58,740.29,383.39,779.05,393.49,815.24Z"/><path class="cls-18" d="M906,607.09l-709.43-6.84v20.24c0,5.5,3.1,10.17,7.29,11l200.6,39.87a24.88,24.88,0,0,0,7.2.37l486.63-45.45c4.34-.41,7.71-5.09,7.71-10.74Z"/><path class="cls-19" d="M677.63,574.27l-473.25,37c-8.47.66-15.35-6.38-15.35-15.73V220.92c0-9.35,6.88-16.94,15.35-16.94H677.63c7,0,12.61,6.86,12.61,15.31V558C690.24,566.43,684.6,573.72,677.63,574.27Z"/><path class="cls-20" d="M685.17,574.27l-473.24,37c-8.47.66-15.36-6.38-15.36-15.73V220.92c0-9.35,6.89-16.94,15.36-16.94H685.17c7,0,12.62,6.86,12.62,15.31V558C697.79,566.43,692.15,573.72,685.17,574.27Z"/><path class="cls-21" d="M670.43,550.39,229.65,582.56c-6.89.51-12.49-5.27-12.49-12.91v-328c0-7.64,5.6-13.85,12.49-13.88l440.78-2c5.75,0,10.41,5.59,10.41,12.54V537C680.84,544,676.18,550,670.43,550.39Z"/><path class="cls-22" d="M465.26,214.23c0,3.48-2.43,6.31-5.44,6.32s-5.46-2.81-5.46-6.3,2.45-6.31,5.46-6.32S465.26,210.75,465.26,214.23Z"/><path class="cls-23" d="M571.15,471.51c-36.48-21.73-65.17,5.81-92.85-21.37-16.79-16.47-8.55-28.76-29.2-53.38-22.87-27.27-37.77-18.11-60.76-42.65-29.06-31-14.52-55.18-39.56-77.46-30.38-27-63.13-2-92-27.94-12.47-11.18-19.31-27.44-22.88-44.73h-28.3c-5,0-9,4.45-9,9.94V602.29c0,5.49,4,9.62,9,9.23l482.32-37.91a7.69,7.69,0,0,0,5.81-3.94c-35.3-1.42-57-14.53-70.86-28.08C595.7,515.08,600.4,488.94,571.15,471.51Z"/><path class="cls-24" d="M673.36,572.59l-476.79,39,207.89,41.31a24.88,24.88,0,0,0,7.2.37L906,607.09,681,572.86A32.16,32.16,0,0,0,673.36,572.59Z"/><polygon class="cls-25" points="266.14 612.56 663.09 579.62 785.94 598.15 392.41 633.37 266.14 612.56"/><path class="cls-26" d="M827.61,775.11a26.41,26.41,0,0,1-36.33-1.53c-12.25-12.54-35.23-21.05-76.4,5-73.55,46.55,7.74,178.21,54.19,182s61.94-7.71,85.16,0,56.13-43.93,69.68-90.68S902.62,767.7,867.78,761.58C850.63,758.57,837.71,766.26,827.61,775.11Z"/><path class="cls-27" d="M888.32,916.13l-17.69,10.94C853,938,845.53,895.49,813,868.78s-96.43-7.48-93-53.39c1.71-22.89,13.2-39.75,24.3-50.91-8.59,2.6-18.35,7.1-29.42,14.11-73.55,46.55,7.74,178.21,54.19,182s61.94-7.71,85.16,0c19.94,6.63,47-30.5,62.85-70.73Z"/><path class="cls-28" d="M815.66,783s33.25-54.15-22.87-69.63-80-36.25-80-36.25,14.2,45.13,24.52,79.07S797.25,797.78,815.66,783Z"/><path class="cls-29" d="M831,719.86c-9.68,1.11-5.81-14-15.09-3.92-8.07,8.79-9.5,57.21-9.73,69.62a3,3,0,0,0,2.84,3h0a3,3,0,0,0,3.12-3c-.13-26.68,28.65-56.79,31.76-62.91C847.1,716.34,840.65,718.74,831,719.86Z"/><path class="cls-30" d="M791.63,751.48c-4.4-24.32-23.23-19.84-61.29-52.74a168.1,168.1,0,0,1-15.49-15.12c4.3,13.73,14.52,46.44,22.46,72.54,9.2,30.27,49.65,39.65,71.36,30.83C801.5,780.64,794.93,769.8,791.63,751.48Z"/><g id="Layer_2" data-name="Layer 2"><g id="tutorang_logo" data-name="tutorang logo"><path id="Path_1" data-name="Path 1" class="cls-22" d="M551.71,475.84A24.81,24.81,0,0,0,539,461.73c-6.31-3.17-12.16-2.67-19.73-1.8-6.31.73-12.62,2.17-28.76,8.77-6.64,2.68-15.48,6.53-25.84,11.52,0,.44,0,.89-.07,1.33l-.06-1.32c-10.36-2.59-19.27-4.44-25.84-5.75-16.08-3.18-22.46-3.79-28.76-3.58-7.58.2-13.35.29-19.73,3.9-2.19,1.29-9.56,5.51-12.75,14.59a25,25,0,0,0,.73,18.14c4.18,9.3,13,12.31,15.67,13.17,8.84,2.89,17,.43,22-1.16a44.47,44.47,0,0,0,8-3.28c9.7-4.91,23.45-12,40.65-21,17.2,5,30.95,9.14,40.65,12.33a56,56,0,0,0,8,1.9c5,.73,13.15,2.06,22-1.57,2.72-1.13,11.49-4.64,15.68-13.93A24.18,24.18,0,0,0,551.71,475.84ZM455.46,489.1q-6.6-.57-13.22-1.18L437.33,489c4.25,1.22,8.5,2.41,12.75,3.6-1.13.65-2.65,1.62-4.51,2.69-1.27.73-4.32,2.47-11,6-4.78,2.47-7.17,3.76-10.43,5.26a92.7,92.7,0,0,1-8.63,3.72c-3.66,1.22-7,2.33-11,2.11-2.79-.07-10-.5-13.42-6.31-3.12-5.21-1.72-12.16,1.66-16.4,2.39-3,6-4.9,11-6.13,18.6-4.19,49.15,1.77,56.19,3.21Zm82,5.5c-2.72,2.69-6.44,4-11.56,4.55-18.6,1.73-47.36-8.18-53.93-10.54l4.58-1.85q6.32,1.46,12.62,2.93l4.92-.38-11.83-5.25c1.13-.52,2.79-1.23,4.72-2,1.33-.53,4.45-1.88,11.36-4.49,5-1.81,7.44-2.76,10.76-3.85a64.94,64.94,0,0,1,8.83-2.5c3.72-.67,7.18-1.29,11-.63,2.66.5,9.63,1.87,12.29,8C543.54,484.25,541.28,490.87,537.43,494.6Z"/><path id="Path_2" data-name="Path 2" class="cls-22" d="M452.67,436.35c2.26,5.45,5.05,10.85,8.24,17.72,3.65,7.89,1.86,4.9,2.52,6.09a7,7,0,0,1,.54,1.53,5.08,5.08,0,0,1,0,2.39,7.85,7.85,0,0,1-.8,2,8.71,8.71,0,0,1-1.66,1.71c-.73.69-1.33,1.22-1.4,1.29-3.92,3.39-16.93.06-16.93,0-11.7-3-21.46-7.75-23.59-8.38a6.68,6.68,0,0,1-.73-.27c-.66-.34-1.79-.91-1.86-1.84a2.51,2.51,0,0,1,.93-1.67,3.17,3.17,0,0,1,1.6-.93,2.75,2.75,0,0,1,1,0c1.93.34,16.48,4.85,22.46,5.89a39.71,39.71,0,0,0,7.57.5c.46-.05,2.19-.18,2.46-.21l.13,0a.58.58,0,0,0,.46-.05c.87-.76-3.18-7-4.71-9.3a110.48,110.48,0,0,1-11.43-25.47c-3.52-12.32-2.19-19.3-1.59-21.75a30.11,30.11,0,0,1,3.52-8.87,31.1,31.1,0,0,1,9.3-9.71,33.7,33.7,0,0,1,11.42-5.08,28.15,28.15,0,0,1,13.62-.9,23.53,23.53,0,0,1,11.69,6.2,25,25,0,0,1,6.84,14.22c.13,1,.6,4.46-.6,11.82-1.39,8.91-4.05,15.83-7.63,25.33a97.42,97.42,0,0,0-5.12,16.5c-.46,2.12-1.26,3.27-.73,3.87,2.46,2.81,21.39-9.88,23.91-11.53,2.33-1.55,4.79-2.83,7-4.48a2.36,2.36,0,0,1,.79-.47,2.24,2.24,0,0,1,.93-.28,1.25,1.25,0,0,1,.87.2,1.21,1.21,0,0,1,.66.87,1.32,1.32,0,0,1-.06.87,2.22,2.22,0,0,1-.34.69c-.26.42-.53.78-.79,1.13a33.94,33.94,0,0,1-4.39,4.16c-7.37,5.46-8.37,6.89-14.61,10.72-6,3.75-9,5.75-12.22,6.7-.53.12-9.1,2.48-11.43-1.16-.79-1.24-.53-2.67.07-5.53,2.92-14.74,2.26-12.54,2.79-14.33,1.86-6.66,2.39-7.78,4.52-14.93C479,421,479.77,417.12,480,415.49c1.26-7.05,1.86-10.7.33-14.25a14.75,14.75,0,0,0-8.37-7.76c-7.77-2.69-15.14,2.21-16,2.84a21.5,21.5,0,0,0-7.77,10.1c-.66,1.74-1.53,4.89-.66,11.9C447.69,420.3,448.56,426.51,452.67,436.35Z"/><path id="Ellipse_1" data-name="Ellipse 1" class="cls-22" d="M464.63,327.84c13.35-1.55,24.18,8.11,24.18,21.47S478,374.64,464.63,376.2s-24.18-8.11-24.18-21.47S451.28,329.39,464.63,327.84Z"/><path id="Rectangle_1" data-name="Rectangle 1" class="cls-22" d="M459.52,290.7l10.29-1.18v20.32L459.52,311Z"/><path id="Rectangle_2" data-name="Rectangle 2" class="cls-22" d="M509.34,324.41q7.2-7.8,14.38-15.45,3.63,3.41,7.28,6.86-7.18,7.55-14.37,15.28Q513,327.74,509.34,324.41Z"/><path id="Rectangle_3" data-name="Rectangle 3" class="cls-22" d="M398.22,328.19q3.64-3.82,7.29-7.7,7.19,6.74,14.37,13.3l-7.28,7.86Q405.42,335,398.22,328.19Z"/><path id="Rectangle_4" data-name="Rectangle 4" class="cls-22" d="M531,369.94c6.77-.34,13.55-.55,20.32-.58v10.3q-10.15,0-20.32.57Z"/><path id="Rectangle_5" data-name="Rectangle 5" class="cls-22" d="M378,382.45c6.77,0,13.55-.24,20.32-.58v10.29c-6.77.34-13.55.55-20.32.59Z"/></g></g></g></g></svg>