<svg xmlns="http://www.w3.org/2000/svg" width="1136" height="918" viewBox="0 0 1136 918">
  <g id="contact" transform="translate(6060 -2960)">
    <rect id="Rectangle_88" data-name="Rectangle 88" width="1136" height="676" rx="61" transform="translate(-6060 2960)" fill="#90bf87"/>
    <path id="Path_266" data-name="Path 266" d="M33,0H243c18.225,0,33,11.739,33,26.219V321.781C276,336.261,261.225,348,243,348H33c-18.225,0-33-11.739-33-26.219V26.219C0,11.739,14.775,0,33,0Z" transform="translate(-5298 3124)" fill="#445fb5"/>
    <rect id="Rectangle_90" data-name="Rectangle 90" width="496" height="24" rx="12" transform="translate(-5942 3124)" fill="#445fb5"/>
    <ellipse id="Ellipse_37" data-name="Ellipse 37" cx="499.5" cy="22" rx="499.5" ry="22" transform="translate(-5995 3834)" fill="#b5b5b5"/>
    <rect id="Rectangle_101" data-name="Rectangle 101" width="496" height="24" rx="12" transform="translate(-5942 3178)" fill="#445fb5"/>
    <rect id="Rectangle_102" data-name="Rectangle 102" width="496" height="24" rx="12" transform="translate(-5942 3232)" fill="#445fb5"/>
    <rect id="Rectangle_103" data-name="Rectangle 103" width="496" height="24" rx="12" transform="translate(-5942 3286)" fill="#445fb5"/>
    <rect id="Rectangle_104" data-name="Rectangle 104" width="496" height="24" rx="12" transform="translate(-5942 3340)" fill="#445fb5"/>
    <rect id="Rectangle_105" data-name="Rectangle 105" width="296" height="22" rx="11" transform="translate(-5942 3394)" fill="#445fb5"/>
    <rect id="Rectangle_106" data-name="Rectangle 106" width="296" height="24" rx="12" transform="translate(-5942 3448)" fill="#445fb5"/>
  </g>
</svg>
