<svg xmlns="http://www.w3.org/2000/svg" width="266.222" height="340.304" viewBox="0 0 266.222 340.304">
  <g id="Layer_2" data-name="Layer 2" transform="translate(-0.548)">
    <g id="tutorang_logo" data-name="tutorang logo" transform="translate(0.548)">
      <path id="Path_1" data-name="Path 1" d="M264.734,964.821c-4.721-13.705-15.857-19.87-19.159-21.625-9.549-5.092-18.255-4.825-29.666-4.328-9.467.413-19.019,1.932-43.251,9.268-9.964,3.016-23.285,7.28-38.937,12.981l-.056,2-.059-2c-15.649-5.7-28.97-9.964-38.937-12.981-24.246-7.339-33.794-8.858-43.251-9.268-11.425-.5-20.131-.77-29.68,4.322-3.3,1.761-14.438,7.926-19.159,21.625C1.712,967.343-2.1,979.284,3.7,992.128c6.339,14.02,19.53,18.909,23.642,20.434,13.262,4.918,25.557,2.076,33.1.337a72.678,72.678,0,0,0,11.989-3.884c14.584-6.058,35.28-14.495,61.225-25.091,25.939,10.6,46.64,19.033,61.225,25.091a72.67,72.67,0,0,0,11.992,3.884c7.535,1.738,19.839,4.58,33.1-.337,4.112-1.525,17.3-6.415,23.645-20.434C269.416,979.29,265.6,967.343,264.734,964.821Zm-144.87,8.234-19.912-4.041-7.44.764,19.238,7.5c-1.651.82-3.982,1.966-6.8,3.28-1.91.9-6.46,3.016-16.57,7.266-7.229,3.044-10.844,4.567-15.7,6.4a116.462,116.462,0,0,1-12.967,4.454c-5.516,1.376-10.641,2.657-16.637,2.031-4.176-.435-15.014-1.567-20.221-10.467-4.69-8-2.561-18.4,2.5-24.6,3.609-4.429,8.959-7.021,16.637-8.358,27.972-4.83,74.048,9.507,84.6,12.888Zm123.4,19.589c-4.1,3.87-9.675,5.732-17.362,6.044-28,1.123-71.262-18.817-81.165-23.485l6.948-1.966,18.971,6.513,7.389.208L160.2,970.151c1.722-.59,4.151-1.4,7.075-2.339,1.986-.632,6.721-2.12,17.132-4.982,7.465-2.05,11.2-3.089,16.191-4.252a115.1,115.1,0,0,1,13.264-2.693c5.578-.64,10.759-1.233,16.548.149,4.033.963,14.495,3.463,18.46,12.846C252.436,977.316,249.015,987.216,243.264,992.644Z" transform="translate(-0.548 -675.005)" fill="#fff"/>
      <path id="Path_2" data-name="Path 2" d="M272.79,567.716c3.412,8.622,7.558,17.18,12.357,28.121,5.468,12.5,2.848,7.69,3.772,9.605a9.55,9.55,0,0,1,.8,2.373,8.2,8.2,0,0,1,0,3.586,7.82,7.82,0,0,1-1.241,2.758A14.084,14.084,0,0,1,286,616.505c-1.1.918-1.966,1.587-2.07,1.654-5.94,4.409-25.518-2.758-25.518-2.758-17.632-6.46-32.334-14.9-35.451-16.14a8.259,8.259,0,0,1-1.107-.548c-1.019-.6-2.688-1.584-2.755-2.983a3.373,3.373,0,0,1,1.387-2.4,4.323,4.323,0,0,1,2.354-1.21,4.566,4.566,0,0,1,1.522.067c2.929.663,24.838,9.613,33.8,12.208a60.738,60.738,0,0,0,11.408,2.005c.7.042,3.261.1,3.69.1h.225a.761.761,0,0,0,.663,0c1.334-1.025-4.833-11.071-7.063-14.843-.7-1.185-11.515-19.682-17.213-40.234-5.3-19.1-3.266-29.436-2.418-32.983a41.213,41.213,0,0,1,5.277-12.756A40.2,40.2,0,0,1,266.69,492.6a45.552,45.552,0,0,1,17.151-5.718c4.575-.682,11.759-1.755,20.451.989a40.442,40.442,0,0,1,17.59,11.327,41.9,41.9,0,0,1,10.335,22.538c.225,1.511.93,6.8-.879,17.693-2.149,13.2-6.1,23.187-11.543,36.943a138.2,138.2,0,0,0-7.7,23.97c-.668,3.089-1.935,4.659-1.1,5.715,3.679,4.651,32.239-11.374,36.033-13.615,3.457-2.039,7.209-3.581,10.521-5.844a6.011,6.011,0,0,1,1.219-.629,3.427,3.427,0,0,1,1.357-.3,2.475,2.475,0,0,1,1.328.351,2.41,2.41,0,0,1,1.039,1.432,2.439,2.439,0,0,1-.1,1.342,3.5,3.5,0,0,1-.545,1.014,12.054,12.054,0,0,1-1.225,1.556,42.123,42.123,0,0,1-6.62,5.673c-11.127,7.153-12.638,9.161-21.982,14.011-9.1,4.721-13.565,7.235-18.393,8.058-.786.135-13.686,2.2-17.165-3.676-1.2-2.031-.761-4.131.087-8.322,4.407-21.721,3.44-18.48,4.213-21.106,2.831-9.734,3.612-11.29,6.83-21.721,4.76-15.416,5.853-21.08,6.291-23.507,1.882-10.428,2.778-15.756.511-21.409-3.516-8.729-11.4-12.517-12.582-13.079-11.723-5.426-22.774.744-24.128,1.528a27.753,27.753,0,0,0-11.723,13.941c-.961,2.491-2.306,7.075-1.014,17.778C265.331,542.659,266.645,552.182,272.79,567.716Z" transform="translate(-157.715 -349.576)" fill="#fff"/>
      <circle id="Ellipse_1" data-name="Ellipse 1" cx="36.353" cy="36.353" r="36.353" transform="translate(96.75 56.818)" fill="#fff"/>
      <rect id="Rectangle_1" data-name="Rectangle 1" width="15.452" height="30.601" transform="translate(125.377)" fill="#fff"/>
      <rect id="Rectangle_2" data-name="Rectangle 2" width="15.452" height="30.601" transform="translate(222.09 37.057) rotate(45)" fill="#fff"/>
      <rect id="Rectangle_3" data-name="Rectangle 3" width="15.452" height="30.601" transform="translate(33.189 47.984) rotate(-45)" fill="#fff"/>
      <rect id="Rectangle_4" data-name="Rectangle 4" width="15.452" height="30.601" transform="translate(233.017 144.977) rotate(-90)" fill="#fff"/>
      <rect id="Rectangle_5" data-name="Rectangle 5" width="15.452" height="30.601" transform="translate(2.588 144.245) rotate(-90)" fill="#fff"/>
    </g>
  </g>
</svg>
