<svg id="Layer_1" data-name="Layer 1" xmlns="http://www.w3.org/2000/svg" viewBox="0 0 1080 1080"><defs><style>.cls-1{fill:#4762ad;stroke-width:5px;}.cls-1,.cls-2{stroke:#4763ae;stroke-miterlimit:10;}.cls-2{fill:none;stroke-width:9px;}</style></defs><g id="Layer_2" data-name="Layer 2"><g id="Layer_1-2" data-name="Layer 1-2"><path class="cls-1" d="M315.08,756.63c1.88-7.33,4.06-16.2,6.45-25q14.64-54,29.41-108c4.15-15.12,10.57-18.51,25.66-14,8.49,2.53,16.95,5.19,25.45,7.68,8.14,2.39,13.14,7.27,12.91,16.13-.09,3.43,1.29,4.65,4.53,5.16,8.25,1.26,16.45,2.8,24.65,4.3,3,.55,5.13-.88,7.43-2.32,11-6.81,22.08-13.4,33-20.34,27.07-17.28,55.61-19.5,85.84-9.67,24,7.8,48.3,14.77,72.51,22,5.38,1.61,11,2.47,16.44,4.07,4,1.21,5.54,1,5.66-4,.18-7.39,4.58-12.48,11.74-14.73,10.75-3.39,21.51-6.92,32.41-9.83,9.08-2.44,16.68,3,19.53,13.38q12.81,46.65,25.53,93.32c3.57,13.22,7.08,26.46,10.1,39.79,2.31,10.2-1.56,16.79-11.37,19.88-10.75,3.37-21.67,6.23-32.52,9.3-6.08,1.72-11.63.2-15.11-4.82-3.12-4.52-6-4.56-10.67-3-6.38,2.15-11.33,6.45-13.63,13.2-4.3,12.66-13.92,19.35-26.27,22.58-2.83.75-5.64.58-6.55,4.53-3.58,15.34-14.68,22.43-29.16,25-4.56.81-7.75,1.42-9.26,6.76-1.08,3.92-4.38,7.34-7.11,10.63S562.43,881.25,558,882.22c-8.6,1.83-16.46-1.56-24.45-3.68-3-.81-5.15-1.08-8.19.61-15.89,8.69-34,6.16-47.32-6.39-2.24-2.15-4.58-2.31-7.28-2.59-10.06-1.07-18-5.5-22.38-14.92-1.83-3.89-3.9-5.51-8.71-4.8-11.57,1.71-23.46-6.68-25.81-18.28-1.07-5.24-2.81-7.63-8.26-8.92-16.64-3.92-22.81-18.87-14.42-34,1.4-2.53,1.36-3.62-1.07-5a83.15,83.15,0,0,1-8.66-5.85c-2.66-2.07-4.3-2-6.59.85-3.89,4.76-9.27,6.16-15.26,4.4-11.37-3.22-22.8-6.31-34.08-9.86C318.65,771.56,314.8,765.32,315.08,756.63ZM458.5,685.08c-14.43,0-22.47-2.76-26.82-8.5-6.34-8.32-4.84-16.13,4.82-25.28,1.23-1.18,3.83-1.73,2.95-4.16-.67-1.83-2.77-1.14-4.3-1.41-5.29-.94-10.66-1.56-15.85-2.85-4.49-1.07-6.26.54-7.35,4.71q-15.78,59.55-31.82,119c-.5,1.82-1.67,4.23.15,5.24,7.52,4.2,12.9,12.2,23,12,9.12-.13,16.75,3.52,21.5,11.74,1.34,2.29,2.38,3.44,5.63,2.51,13.26-3.77,21-.64,27.48,11.13,1.79,3.23,3.42,4.7,7.28,4.8,16.31.41,22.86,5.79,26.07,21.64,1.08,5.31,3.07,7.71,8.87,7.95,9.68.4,16.29,4.9,19.42,15.06,5.64,18.28,36.67,25.88,51.48,13.33,3.64-3.07,3.47-5.37.57-8.67s-5.81-7.06-8.6-10.69c-.87-1.14-2.82-2.44-1.08-4,1.91-1.79,3.43-.18,4.67,1.34,2.89,3.54,5.93,7,8.6,10.75s5.7,4.41,9.76,3.09c9.67-3.14,17-8.83,21.25-18.37,1.49-3.39,1.25-5.86-1.29-8.6-5.64-6.13-11-12.52-16.47-18.81-1.07-1.24-2.33-2.61-.67-4.1s2.9,0,4,1.17l16.52,18.78c1.78,2,3.39,4,6.7,3.57,12.51-1.56,22.58-6.45,28.22-18.54,2.15-4.5,1.69-7.87-1.74-11.57-7.66-8.29-15.06-16.85-22.32-25.45-1.07-1.33-4.06-3.23-1.22-5.26,1.86-1.32,3.32,1,4.52,2.34,7.48,8.45,14.9,17,22.38,25.42,1.38,1.56,2.42,3.76,5.05,3.53,11.33-1,19.87-6.63,25.4-16.31a20.15,20.15,0,0,0-1.82-23.51c-21.86-27.6-43.49-55.49-71-78C567.89,661.91,530.71,655.4,490,676.25c-10.63,5.29-21.88,9.06-31.47,8.83Zm76.55-76.51A71.53,71.53,0,0,0,507.46,614c-24.24,10.12-45.55,25.24-67,40a25.15,25.15,0,0,0-5.2,5c-4.52,5.66-3.59,12.68,2.28,17,3.53,2.6,7.63,3.67,12,4.3,14.9,1.94,28-3.43,41-9.5,38.61-17.88,75.06-14.28,109.21,11.55,30.64,23.18,53.57,53.47,77.43,82.91,5.89,7.27,10.09,8.41,18.92,5.51,3.93-1.28,4.38-3.14,3.45-6.52-2.1-7.53-4.07-15-6.1-22.58-8.41-31.34-17-62.7-25.29-94.13-1-3.68-2.48-5.38-6.13-6.08-26.46-5.28-51.78-14.25-77.48-22.07-16.47-5-32.85-10.27-49.44-10.85Zm-124.27,26c0-7.93-3.79-11.29-9.39-13q-14.26-4.39-28.65-8.52c-9.44-2.7-14.46-.18-17,9.25q-17.79,65.4-35.17,130.89c-2.76,10.4-.18,14.48,9.82,17.5q13.53,4.08,27.1,8c9.48,2.74,14.91-.4,17.45-9.86q15.15-56.52,30.33-113C407.27,648.27,409.17,640.72,410.78,634.58Zm301.64-22.8a13.38,13.38,0,0,0-1.89.24c-9.26,2.79-18.51,5.61-27.77,8.38-13.28,4-15.23,7.25-11.82,20.31q7,26.49,14,53,9.94,37.33,20,74.68c2.78,10.36,8.1,13.18,18.67,10.08,8.5-2.49,17-5.15,25.51-7.53,10.21-2.84,13.17-7.37,10.51-17.78-4.54-17.69-9.33-35.32-14.11-53-6.94-25.66-14-51.29-20.89-77C722.88,616.48,719.52,612.06,712.42,611.78ZM505.87,880c2.08-.29,5.05-.5,7.91-1.16,9.56-2.15,9.68-2.63,4.79-10.75a33,33,0,0,1-3.23-8.18c-2.15-7.78-7.34-12.29-15.13-12-9.25.39-12-4.67-13.67-12.32-2.72-12.8-8.28-17.31-21.27-17.15-5.51.06-8.9-1.61-11.34-6.83-4.07-8.69-11-12.72-18.69-10.38-7.15,2.15-11.67,1.81-15.94-5.46-3.69-6.27-11-8.43-18.41-7.19-5.72,1-8.6,5.19-9.53,10.66-1.4,7.83,5.51,18.12,14.55,19.51,7.72,1.18,11,4.51,12.42,12.06,1.94,10.57,11.21,16.29,22.12,14.73,5.29-.75,9.09,1.26,11.05,6,4,9.68,11.45,13.89,21.36,14.4a11.48,11.48,0,0,1,9.07,4.41C487.89,877.79,496.32,879.12,505.87,880Z"/><path class="cls-1" d="M389.28,361.39c.22-93.34,57.8-156.84,136.21-164.87,90.54-9.29,169,64.35,165.75,155.57-2.86,80.58-68.37,145-148.78,146.14-13.76.19-27.5-1.08-40.7-5.23-4.71-1.48-8.07-.66-11.83,2.15-8.6,6.45-17.68,12.29-26.34,18.69-4.78,3.54-6.45,2.41-6.69-3.23-.38-10.22-1.13-20.43-1.33-30.66-.1-5.55-2.15-9.19-6.69-12.71C409.56,436.79,389.79,396.47,389.28,361.39Zm297.72-23c-.4-19.74-7.74-45.16-22.15-68.69-53.39-87-178.68-93.56-240.74-12.58-50.46,65.86-37.64,158.3,29,207.68,4.3,3.15,6.68,6.38,6.59,11.83-.12,8.34.33,16.68.71,25,.1,2.27-1,5.33,1.68,6.55,2.26,1.08,3.75-1.52,5.44-2.69,7.53-5.2,15.13-10.29,22.39-15.83,3.39-2.58,6.38-2.85,10.35-1.67a142.82,142.82,0,0,0,63.11,3.85C634.29,480.89,687.15,418.57,687,338.38Z"/><path class="cls-1" d="M371,847.77c-1.08,2.15-2.49,4.13-5.08,4.51-1.53.21-2.72-.88-2.09-2.45.9-2.22,2.37-4.31,4.95-4.67C370.22,844.94,371.19,846,371,847.77Z"/><path class="cls-1" d="M743,573.93c-2.07-1.39-4.3-2.93-5.09-5.57-.47-1.45,1.07-1.89,2-1.7a6.63,6.63,0,0,1,5.26,5.3C745.3,573,744.43,573.9,743,573.93Z"/><path class="cls-1" d="M348.75,869.75c-1.52-.59-2.85-1.44-2.09-2.91,1.08-2.08,2.49-4.17,5.28-4.1a1.67,1.67,0,0,1,1.62,1.73,1.62,1.62,0,0,1-.1.54C352.84,867.57,350.83,868.8,348.75,869.75Z"/><path class="cls-1" d="M721.7,552.33c-2.47-.5-3.63-2.65-4.74-4.61a1.72,1.72,0,0,1,1.73-2.6c2.46.49,3.81,2.51,4.49,4.92C723.52,551.28,723.09,552,721.7,552.33Z"/><path class="cls-1" d="M353.65,850.16c-.3,1.07-.7,2.38-1.9,2.15-2.84-.48-4.46-2.73-5.32-5.15-.37-1.08,1.21-2.49,2.67-1.9A7.38,7.38,0,0,1,353.65,850.16Z"/><path class="cls-1" d="M371,866.82c.23,1.49-.38,2.49-1.52,2.61-2.87.28-4.24-2-5.38-4a1.78,1.78,0,0,1,1.76-2.74C368.46,862.81,369.74,865,371,866.82Z"/><path class="cls-1" d="M744.25,544.49c1,4.59-1.22,6.45-3.72,7.85-1.07.62-1.9-.43-1.92-1.6C738.57,547.19,741.21,546.05,744.25,544.49Z"/><path class="cls-1" d="M359.82,741.89a10.43,10.43,0,0,1-10.56,10.3l-.5,0c-6.25-.47-10-4-9.82-10.4.13-6.24,3.44-10,9.92-10.32A10.75,10.75,0,0,1,359.82,741.89Zm-11,6c4.09-.14,6.21-2.45,6.53-5.95.35-3.87-2.15-6-5.8-6.17s-6,2-6.17,5.76,1.91,5.9,5.44,6.36Z"/><path class="cls-1" d="M741.53,741.88a10.1,10.1,0,0,1-9.89,10.3c-.36,0-.73,0-1.09,0-6.29-.54-9.67-4.16-9.75-10.56-.08-6.59,3.47-9.87,9.87-10.11a10.32,10.32,0,0,1,10.85,9.77C741.53,741.46,741.54,741.67,741.53,741.88Zm-4.41-.36c-.73-3.47-2.5-6.15-6.29-5.88-3.53.25-5.83,2.43-5.74,6.32s2.42,6,6.06,5.86S736.62,745.06,737.12,741.52Z"/><path class="cls-1" d="M529.89,339.15c-4.15-2.62-8.81-2.08-13.34-2.09-21-.06-41.94-.18-62.91,0-6.85,0-9.78-2.64-9.47-9.68.4-8.87.44-17.79,0-26.66-.37-7.52,2.94-10.37,10-10,2.16.11,4.31-.19,6.46,0,5.3.58,5.3-1.7,3.36-5.54-5.2-10.31-4-20.06,4.05-28.2,8.37-8.49,18.85-8.61,29.28-4.54s18.85,11.23,25.69,20.13c2.62,3.39,4.74,6.74,10.21,2.87,3.95-2.79,9.68-2.43,13.88.39,3.74,2.48,5.29,1.45,7.63-1.71A69.24,69.24,0,0,1,577,254.57c18.29-10.12,36.76-3.07,41,15.28,1.7,7.37-3.15,13.32-4.12,20.82h12.37c5.83,0,9,2.48,8.78,8.81-.24,9.42-.26,18.86.06,28.28.24,6.67-2.72,9.25-9.1,9.21-18-.07-36,.35-54-.08-7.28-.17-12.17,2-17.37,7.35-27.22,27.91-55,55.22-82.53,82.81-1.91,1.92-5.74,3.56-4.24,7s5.26,1.53,8,2.05c8.41,1.59,13.91-2.59,19.54-8.29,27.49-28,55.32-55.49,83.09-83.13,2.3-2.3,4-5.79,10-5.32-3.44,3.71-5.93,6.59-8.6,9.26q-39.4,39.29-78.84,78.51a59.39,59.39,0,0,0-4.23,4.88c-2.23,2.72-.9,3.8,2,4,9.68.54,18.28.44,26.2-7.93,22-23.14,45.3-45.17,68-67.64,6.28-6.24,12.18-12.83,18.28-19.21,1.52-1.57,3.32-3,5.7-1.94,2.15,1,1.71,3.22,1.71,5,0,27.74.14,55.49-.12,83.23-.1,9.47-3.08,12.14-13.16,12.19-37.13.18-74.27.09-111.4.13-7,0-14,.33-21,.15-7.37-.17-12.51-3.22-12.53-11.5q-.09-42.83-.07-85.66a14.53,14.53,0,0,1,.91-3.36c3.8,1.32,3.23,4.24,3.23,6.69.07,4.84-.1,9.68,0,14.54,0,2-.89,4.78,1.37,5.87,2.47,1.17,3.7-1.69,5.08-3,7.15-6.92,14-14.12,21.16-21,1.74-1.67,3.16-4.75,7.83-2.9l-19.9,20.52c-2.24,2.3-4.16,5.16-6.81,6.79-12.13,7.42-8.67,18.66-8.26,30.64C474.46,391,480.79,383,488,376c11-10.64,21.59-21.71,32.42-32.53,2.63-2.64,5.18-5.7,9.68-4.55-18.84,19.05-37,38.85-56.8,56.87-10.24,9.34-9,19.29-8.08,30.43l89.95-89.59C546,338.34,537.74,334.75,529.89,339.15Zm-42.76-44.23c-10.75,0-21.5.06-32.26,0-4.3,0-6.45,1.37-6.32,6.05.2,8.6.11,17.21,0,25.81-.06,4,1.28,5.9,5.56,5.88q32.26-.09,64.63.14c4.57,0,6.25-1.78,6.17-6.17-.16-8.6-.33-17.21,0-25.81.17-4.78-1.84-6-6.17-6C508.13,295,497.62,294.9,487.13,294.92Zm105.7,37.75h0c10.48,0,21-.17,31.42.09,4.85.12,6.76-1.51,6.57-6.45-.3-8.05-.29-16.13,0-24.16.2-5.06-1.36-7.32-6.75-7.28q-31.83.28-63.64,0c-4.49,0-6.15,1.61-6,6.17.28,8.6.21,17.2,0,25.8-.12,4.6,1.79,6.07,6.21,6,10.68-.29,21.43-.15,32.17-.15Zm20.57,13.08a59.62,59.62,0,0,0-4.91,3.94q-28.49,28.49-56.91,57c-8.15,8.17-16.41,16.24-24.5,24.47-1.18,1.19-4.3,2.89-.44,4.7,4.3,2,20-.21,23-3.23C567.41,415.09,584.83,397.18,603,380c10-9.43,14.75-19.68,10.41-34.29ZM497,290.77v-.1c7,0,14,.15,21,0,7.27-.2,9.45-4.23,5.32-10.36-6.7-10-15.22-18.07-26.33-23.06-6-2.72-12.26-3.8-18.78-1.4-8.6,3.15-14,11.69-12.6,20.18,1.85,11.11,6.27,14.81,17.65,14.78Zm83.66-.12v.11h20.19c2.69,0,5.11,0,7.22-2.49,5.57-6.45,7.09-17,3.06-24.09-4.2-7.36-13.53-11.38-22.31-9.21-15,3.74-25.18,13.88-33.54,26.09-3.51,5.13-.95,9.34,5.21,9.55C567.24,290.82,574,290.65,580.69,290.65ZM614,375c-6.55,4.3-10.76,9.55-15.42,14.18q-20.43,20.16-40.53,40.56c-1.47,1.49-5.62,3.32-1.52,6.15,3.39,2.32,19.85-.47,23-3.53,9-8.88,17.29-18.54,27-26.53C617,397.21,614.74,386.81,614,375Zm-63.6-65.82h0c0-6.16.27-12.33-.06-18.47-.46-8.4-4-12.25-10.76-12.27s-10.55,4-10.88,12.17c-.39,9.36-.26,18.75-.2,28.13.07,14,.14,13.82,14.37,14.2,5.27.14,8.07-.85,7.53-6.89-.35-5.56,0-11.26,0-16.87Zm64.18,94.33c-10.66,10.43-19.62,19.15-28.53,28-3,3-2.33,4.64,1.89,4.68,6.72.07,13.44,0,20.15.06,4.38,0,6.46-2.39,6.46-6.51.1-8,0-16,0-26.19Z"/><path class="cls-1" d="M495.81,268.67c-.45,2.69-2,3.11-3.54,2.15-4.37-2.71-8.43-2.79-12.48.6-1.57,1.31-3.83.67-3.41-1.07,1.08-4.54,5-5.7,9.22-5.88S493.36,265.38,495.81,268.67Z"/><path class="cls-1" d="M593.6,264.44a9.44,9.44,0,0,1,6.68,2.07c1.36,1.18,3.59,2.27,2.5,4.38-1.42,2.78-3,.49-4.42-.42a9.28,9.28,0,0,0-10.49-.11c-1.37.85-3.09,1.62-4-.38s.77-2.83,2.15-3.62A12.35,12.35,0,0,1,593.6,264.44Z"/></g></g><path class="cls-2" d="M539,1039.25q175.72,0,351.46-.09c34.24-.07,66.48-8.16,94.23-29.17,40.09-30.35,54.45-73.28,54.55-121.19q.75-350.85.1-701.7c-.14-85.35-63.07-146.9-148.48-146.91q-350.85,0-701.69,0c-86.49,0-148.73,62.38-148.75,149.15q0,350.23,0,700.49c0,87.74,61.72,149.38,149.54,149.41Q364.48,1039.3,539,1039.25Z"/></svg>