<svg id="Layer_1" data-name="Layer 1" xmlns="http://www.w3.org/2000/svg" viewBox="0 0 1080 1080"><defs><style>.cls-1{fill:none;stroke:#4763ae;stroke-miterlimit:10;stroke-width:9px;}.cls-2{fill:#4762ad;}</style></defs><path class="cls-1" d="M539,1039.51q175.72,0,351.46-.08c34.24-.07,66.48-8.17,94.23-29.18,40.09-30.35,54.45-73.28,54.55-121.18q.75-350.85.1-701.71c-.14-85.34-63.07-146.9-148.48-146.9q-350.85,0-701.69,0c-86.49,0-148.73,62.39-148.75,149.15q0,350.25,0,700.49c0,87.75,61.72,149.38,149.54,149.41Q364.48,1039.56,539,1039.51Z"/><path class="cls-2" d="M643.42,504.83q10.1,36.93,20.17,73.84c10.7,39.51,21.25,79.07,32.08,118.54,1.45,5.29,1,9.58-1.91,14.26-5.8,9.17-11.17,18.62-16.46,28.1-2,3.66-4.72,5.22-8.85,5.21-37.5-.16-73,8.4-106.63,24.84a200.5,200.5,0,0,0-34.42,20.93c-4.52,3.48-9,4.38-14.45,3.72-28-3.36-55.6-1.15-82.91,5.45a233.76,233.76,0,0,0-61.57,24.42c-3.9,2.24-7.19,2.4-11.1.09-10-5.93-20.13-11.62-30.29-17.26a11.15,11.15,0,0,1-6-7.59c-1.54-6.53-3.37-13-5.08-19.49.23-2.17,1.91-1.72,3.35-2,3.07-.6,5.73-1.8,5.58-5.67l3,.21c1.32,4.39,2.81,8.73,3.89,13.17.76,3.08,1.78,3.31,4.51,1.81,6.43-3.52,13-6.8,19.65-9.9,33.42-15.56,68.21-25.87,105.28-27.68,13.47-.66,26.83.37,40.79,1.82-2.12-7.93-4.11-15.39-6.11-22.85q-11.58-43.14-23.18-86.27c4.56-.35,9.64,2.07,13.38-2.54,9.79,35.91,19.59,71.82,29.48,108.07,1.51-1,2.55-1.66,3.52-2.39a215.78,215.78,0,0,1,55.8-30.37c32.75-12.2,66.77-17.45,101.55-18.35,3.13-.08,4.74-.15,3.64-4.17q-28.92-106.15-57.48-212.4c-.93-3.48-2.88-3.71-5.53-4a181.28,181.28,0,0,0-55.29,2.71q-59.12,12.12-100.38,56.25c-2,2.13-2.58,4-1.74,6.86,3.67,12.78,7.09,25.63,10.53,38.47q6.69,25,13.29,50c-4.46,1-9.16.21-13.54,1.84-7.8-28.77-15.65-57.53-23.35-86.32-.83-3.11-2.21-4.75-5.42-5.74a187.15,187.15,0,0,0-76.69-7.28,184.21,184.21,0,0,0-88.45,34.13c-2.13,1.53-2.51,3-1.84,5.36,3.89,14,7.64,28,11.42,42Q305,686.5,324.33,758.24c-3.29,3.31-3.64,6.89-.89,10.68a4.78,4.78,0,0,1,1.13,2.91,1.39,1.39,0,0,0-2,1.1c-.24.91-.78,1.9-1.78,1.7-1.46-.27-.9-1.66-.94-2.63-.33-7.44-.32-7.44-7.12-4.32q-23.15-85.39-46.27-170.78c-2.32-8.55-4.4-17.18-7.09-25.61-1.67-5.24-.28-8.65,4-11.86,25.7-19.42,54.29-32.31,86-38a196.56,196.56,0,0,1,96.11,6.07c2.8.89,4.31.18,6.25-1.84q70.17-73,170.94-62.42c10,1,10,1.22,12.58,10.69,2.05,7.51,3.92,15.07,5.87,22.61a31.43,31.43,0,0,0-3.51-.95,5.65,5.65,0,0,0-6.25,2.83,6.3,6.3,0,0,0,.12,6.54c1.42,2.37,3.72,2.91,6.36,2.71C640.08,507.48,641.59,505.88,643.42,504.83Zm34.47,205.89a337.08,337.08,0,0,0-49.46,4.69C587,722.55,549,737.46,516.85,765.35c-2.43,2.1-5,2.38-8.12,1.77a194.18,194.18,0,0,0-43.38-3.52c-31.44.93-61.32,8.67-90.22,20.63a293.93,293.93,0,0,0-32.37,15.51c6,3.45,11.4,6.45,16.69,9.7,2.32,1.43,4.08,1.49,6.61.14,46.39-24.63,95.72-34.6,148-29.22a7.81,7.81,0,0,0,5.87-1.75A225.82,225.82,0,0,1,551.2,759.4a254.5,254.5,0,0,1,111.9-28.54c1.5,0,3,.27,4-1.47C670.49,723.32,674.05,717.33,677.89,710.72Z"/><path class="cls-2" d="M824.52,347.61c-.95,19.73-1.85,39.46-2.87,59.19q-2.11,41.06-4.36,82.12-1.87,35.34-3.66,70.67a9.68,9.68,0,0,1-3.62,7.08c-9.1,8.19-18.23,16.36-27.24,24.66-2.94,2.72-5.88,3.1-9.63,1.88a236.74,236.74,0,0,0-80.9-11.75c-5.43.16-8.52-2.32-8.6-6.64-.08-4.56,3-7.18,8.6-7.29a257,257,0,0,1,80.2,10.88c1.56.47,2.84.85,4.21-.41,5.15-4.73,10.36-9.4,16-14.52a269.93,269.93,0,0,0-36-8.89c-24-4.47-48.26-6.22-72.69-4-5.24.48-8.57-2.08-8.83-6.36s2.42-7,7.93-7.47c35.52-3.14,70.25,1.42,104.5,10.69a66.88,66.88,0,0,1,8.81,2.52c3.43,1.47,3.83-.19,4-2.92.32-7.19.77-14.38,1.14-21.57q4.07-77.78,8.12-155.55c.8-15.43,1.45-30.87,2.33-46.3.15-2.55-.56-3.74-2.93-4.79-35.62-15.72-72.5-20.18-110.81-12.95a185.89,185.89,0,0,0-57,21c-2.95,1.67-3.91,3.6-4.06,6.84-1.52,31.82-3.21,63.64-4.79,95.45-.17,3.56-.69,6.81-4.34,8.39-4.87,2.09-9.72-1.31-9.55-6.91.28-9.64.8-19.28,1.29-28.91,1.18-23.25,2.35-46.5,3.67-69.75a5.94,5.94,0,0,0-2.89-6q-75.86-52.43-164.28-26.41c-4.11,1.21-5.5,3.06-5.69,7.19-1.51,32.28-3.19,64.56-4.86,96.83q-2.16,41.52-4.45,83c-.25,4.65-3.08,7.39-7.17,7.22s-6.83-3.15-6.61-7.74c.87-18.67,1.9-37.32,2.88-56q2.61-50,5.23-100,.88-16.76,1.8-33.5c.19-3.59,1.93-5.81,5.44-7q98.64-34.31,184.87,24.54c2.87,1.95,4.69,1.86,7.63.28q90.92-48.84,184.74-5.67c4.77,2.19,6.58,5.29,6.12,10.43-.76,8.53-1.15,17.1-1.7,25.65-1.76-1-4.2-2.79-4-4.09,1-5.51-3.61-3.76-6.48-6.17C815.26,341.84,820.7,344.07,824.52,347.61Z"/><path class="cls-2" d="M775,770.53c-5.85-29.88-12-59.71-17.44-89.65a29.43,29.43,0,0,1,21.35-33.57,30.13,30.13,0,0,1,36.27,18.27,30.91,30.91,0,0,1,1.2,17.61q-6.23,31.74-12.4,63.48a12.26,12.26,0,0,1-.63,1.72c-4.37-.49-6.64,1.69-7.11,5.83-.19,1.63-.64,2.84-2.41,2.44-2.42-.54-4,1.26-6.06,1.72.17-1.21.28-2.43.51-3.62q7.31-37.83,14.6-75.66c1.32-6.89-1.25-12.43-6.93-16.28a14.9,14.9,0,0,0-17.3-.27c-5.73,3.65-8.53,9.12-7.4,16.08,1,6,2.19,12,3.34,18q5.82,30.39,11.66,60.77c-1,5,.34,9.61,2.57,14-2.47-.25-2.23,3.77-5.22,3.09.2-2,.55-4.06.58-6.1.06-3.56-1.17-4.09-4.46-2.62C777.41,766.84,777.17,769.63,775,770.53Z"/><path class="cls-2" d="M368.5,321.81c0-4.43,1.22-8.77.7-13.25-1.31-11.35-7.47-19-18-22.8-14-5.07-28.43-6-42.82-1.66-15.48,4.63-25.11,16.79-26.53,32.78-.11,1.22-.19,2.45-.32,3.66-.49,4.6-3.38,7.49-7.19,7.22-4-.28-6.74-3.35-6.61-7.92A53.37,53.37,0,0,1,272,299.76c9.4-21.33,26.87-30.55,49.08-31.93,13.41-.84,26.66.71,38.94,6.81,16.66,8.27,24.59,22.67,22.9,41.2-.18,2-.46,4-.69,5.92a4.21,4.21,0,0,1-3.44-.89c-2.77-2.05-5.21-2.55-7,1.1C370.51,324.37,369.61,320.94,368.5,321.81Z"/><path class="cls-2" d="M766.81,406.52a232.49,232.49,0,0,0-27.18-3.07,209.18,209.18,0,0,0-71.51,8.87c-.58.18-1.15.43-1.74.56-4.33.95-7.49-.71-8.71-4.56s.51-7.16,4.7-8.6a188.89,188.89,0,0,1,32.92-7.85,220.74,220.74,0,0,1,72.58.76c4.7.83,7.37,3.72,7.06,7.53S771.61,406.62,766.81,406.52Z"/><path class="cls-2" d="M503.67,391.79c-5.2,0-10.4,0-15.59,0-4.93,0-8-2.4-8.24-6.62-.21-3.87,2.66-6.92,7.27-7.23,36.17-2.41,71,3.27,104.26,17.81,4.35,1.9,5.89,5.84,4.09,9.7-1.68,3.59-5.32,4.77-9.77,2.87C559.49,397.15,532.18,391.32,503.67,391.79Z"/><path class="cls-2" d="M777.58,349.43c.13,4.73-3.91,7.82-9.15,6.82a200.73,200.73,0,0,0-59.92-2.19,205.12,205.12,0,0,0-38.93,8.52c-5.82,1.82-10.64-2.22-9.49-7.76.66-3.22,3-4.68,6-5.65a210.85,210.85,0,0,1,67.29-10.29,225,225,0,0,1,36.08,3.36C774.76,343.15,777.47,345.56,777.58,349.43Z"/><path class="cls-2" d="M728,439.58a261.66,261.66,0,0,1,36.14,2.79c3.35.47,6.68,1.28,7.88,5.23,1.58,5.19-2.42,9.6-8.25,8.82-7.13-.95-14.25-1.86-21.44-2.38a221.69,221.69,0,0,0-76.73,8.24c-2,.57-4,1.44-6.25.45-3-1.32-4.75-3.59-4.61-6.73.13-3.31,2-5.55,5.4-6.58a216.91,216.91,0,0,1,30.36-6.94A243.76,243.76,0,0,1,728,439.58Z"/><path class="cls-2" d="M507.4,327.15a207.13,207.13,0,0,1,85.53,18.11c5.3,2.37,7,5.7,5.19,9.93-1.75,4-5.61,4.95-10.92,2.63a196.52,196.52,0,0,0-95.81-16.16c-5,.41-8.37-1.82-8.85-5.86-.54-4.46,2-7.08,7.43-7.9C495.76,327,501.59,327.42,507.4,327.15Z"/><path class="cls-2" d="M725.88,490a215.85,215.85,0,0,1,36.56,2.68c5.29.81,7.75,3.74,7.07,8.21-.63,4.13-4,6.27-9,5.52a236.39,236.39,0,0,0-87.15,3.17c-5.46,1.2-8.69-.29-9.81-4.58s1.13-7.59,6.76-8.88A234.34,234.34,0,0,1,725.88,490Z"/><path class="cls-2" d="M499.18,427.91a218.7,218.7,0,0,1,60.69,7.88c1.78.49,3.62.9,4.93,2.28a6.57,6.57,0,0,1,1.27,8c-1.82,3.55-5.06,4.38-8.59,3.41a224.16,224.16,0,0,0-72.62-7.77c-4.32.23-7.35-2.42-7.72-6.17s2.41-7.3,6.91-7.59C489.07,427.66,494.14,427.91,499.18,427.91Z"/><path class="cls-2" d="M339.25,445.16a13.75,13.75,0,0,1-13.76,14.15,13.87,13.87,0,1,1-.08-27.74A13.73,13.73,0,0,1,339.25,445.16Z"/><path class="cls-2" d="M800.82,814.87a13.65,13.65,0,0,1-13.75,13.64,13.83,13.83,0,1,1-.09-27.65A13.61,13.61,0,0,1,800.82,814.87Z"/><path class="cls-2" d="M343,364.18c-9.06,11.06-10.72,24.14-10.51,37.8.09,5.83-3.38,9.07-8.37,8.28-3-.48-5.21-2.22-5.33-5.36-.42-11,.06-21.94,3.95-32.44,1.95,2.1,3.89,4.22,5.86,6.3.66.7,1.45,1.14,2.37.34a1.15,1.15,0,0,0,.1-1.93c-2.7-2.27-1-3.42,1-4.67a4.27,4.27,0,0,0,2.15-3.37c-.15-4,2.2-4.27,5.23-4.15A13.65,13.65,0,0,0,343,364.18Z"/><path class="cls-2" d="M343,364.18a13.65,13.65,0,0,1-3.52.8c-3-.12-5.38.15-5.23,4.15a4.27,4.27,0,0,1-2.15,3.37c-2,1.25-3.73,2.4-1,4.67a1.15,1.15,0,0,1-.1,1.93c-.92.8-1.71.36-2.37-.34-2-2.08-3.91-4.2-5.86-6.3.46-1,.92-2.11,1.37-3.16,1.61,1.9,3.69,2.9,6,1.76,1.78-.88,2-2.88,1.65-4.78-.48-2.54-3.13-2-4.57-3.13,2.84-3.86,5-8.26,9.24-11,8.81,1.45,9.19,4.28,7.53,11.24l0-.18-1,1ZM338.4,355c-2.15.53-3.75,1.81-3.68,4a3.71,3.71,0,0,0,4.18,3.86c2.07-.18,3-1.83,3-3.92A3.67,3.67,0,0,0,338.4,355Z"/><path class="cls-2" d="M788.78,771.45c-2.23-4.43-3.58-9-2.57-14l1.52,1c2-.46,3.64-2.26,6.06-1.72,1.77.4,2.22-.81,2.41-2.44.47-4.14,2.74-6.32,7.11-5.83a1.87,1.87,0,0,1-.4,1.94c-2.29.56-3.85,1.87-4,4.34a2.56,2.56,0,0,0,2.7,3,3.81,3.81,0,0,1-.74,2.79c-2-.08-2.07,1.37-2,2.76.12,2-.8,4.08-2.22,4.68-4,1.68-3,3.41-.73,5.67.35.35.23,1.15.34,1.75l0-.08a.88.88,0,0,0-1,1l.17.13c-3-.62-3.33-4.84-6.72-4.89Zm3.81-12c-2.1.15-3.81,1.23-3.79,3.83,0,2,1,3.6,3.27,3.56a3.76,3.76,0,0,0,4-3.94C796.24,760.72,795.18,759.51,792.59,759.48Z"/><path class="cls-2" d="M355.17,339.13l3.1-2.72A21.86,21.86,0,0,1,366.94,347c-4.9,4.5-10.7,7.68-16.28,11.19-.15-.15-.3-.3-.46-.44,2.06-2.1,2.08-4.71,1.82-7.39,1.87-.74,2.16,4.05,4.18,1.45,1.54-2-1-3.13-2.09-4.44-1.34-1.65-2.84-3.18-4.27-4.76a4.85,4.85,0,0,1,2.75-1.75c1.48,1,3.21,1.79,4,3.59a5.42,5.42,0,0,0,3,2.64c1.62.69,2.93-.31,3.86-1.6a.86.86,0,0,0-.66-1.36C358.84,344.59,357.64,340.88,355.17,339.13Z"/><path class="cls-2" d="M775,770.53c2.21-.9,2.45-3.69,4.72-4.71,3.29-1.47,4.52-.94,4.46,2.62,0,2-.38,4.08-.58,6.1,3,.68,2.75-3.34,5.22-3.09l0,0c.51,2.55-.76,4.23-2.61,5.77-1.46,1.21-3.73-.1-4.87,1.77C777.84,777.15,775.38,774.6,775,770.53Zm5.86,4.06c.1-2.2,2-4.13.75-6.34a2.57,2.57,0,0,0-1.48.58C778.48,770.85,778.66,772.81,780.82,774.59Z"/><path class="cls-2" d="M366.94,347a21.86,21.86,0,0,0-8.67-10.54l4.78-4.51a16,16,0,0,0,.1,3.61,3.42,3.42,0,0,0,3.64,2.79,3.52,3.52,0,0,0,3.51-3,3.63,3.63,0,0,0-1.64-4.3c-1.68-1.06-3.22-.14-4.82-.08a4.39,4.39,0,0,1,1.78-2.72c3.56-.87,5.21,2.14,7.55,3.73v0c.08,2.6.33,5.68-2.27,6.91-3.37,1.58-3.22,3.71-2.27,6.45A2.4,2.4,0,0,1,366.94,347Z"/><path class="cls-2" d="M643.42,504.83c-1.83,1.05-3.34,2.65-5.65,2.82-2.64.2-4.94-.34-6.36-2.71a6.3,6.3,0,0,1-.12-6.54,5.65,5.65,0,0,1,6.25-2.83,31.43,31.43,0,0,1,3.51.95Zm-6.37-7.19c-2.3.67-3.84,1.62-3.73,4.12a3.47,3.47,0,0,0,3.82,3.59c2.28,0,3.45-1.85,3.52-4C640.75,498.88,638.54,498.45,637.05,497.64Z"/><path class="cls-2" d="M368.5,321.81c1.11-.87,2,2.56,3.22.16,1.83-3.65,4.27-3.15,7-1.1a4.21,4.21,0,0,0,3.44.89c.27,1.14-.52,1.95-.9,2.88a6.78,6.78,0,0,1-3.84-1.16c-1.11-.6-2.22-1.13-3.35-.16-1.45,1.25-.52,2.72.15,3.68a47.94,47.94,0,0,0,4.5,5l-.49.92c-2.06,1.56-3.3-1.23-5.11-1v0c-.14-3.92-3.46-5.72-5.57-8.32A1.86,1.86,0,0,1,368.5,321.81Z"/><path class="cls-2" d="M312.71,767.68c6.8-3.12,6.79-3.12,7.12,4.32,0,1-.52,2.36.94,2.63,1,.2,1.54-.79,1.78-1.7a1.4,1.4,0,0,1,2-1.11.71.71,0,0,0,.38.4c.16,3.87-2.5,5.07-5.57,5.67-1.44.28-3.12-.17-3.35,2-1.14-1.11-.77-2.52-.78-3.86,3-1.32,2.87-3.92,2.7-6.54-.05-.63-.3-1.38-1-1.25-2.33.44-1.6,3-2.76,4.27A11.82,11.82,0,0,1,312.71,767.68Z"/><path class="cls-2" d="M343.9,363.41c1.66-7,1.28-9.79-7.53-11.24,1.14-1.68,2.86-2.68,4.48-3.8,1.7,2.17,2.22,5.95,6.66,4.15,1.55-.63,2.26.9,1.08,2.17-2.59,2.8-.54,2.88,1.61,3,.16.14.31.29.46.44Z"/><path class="cls-2" d="M781.27,779c1.14-1.87,3.41-.56,4.87-1.77,1.85-1.54,3.12-3.22,2.61-5.77,3.39.05,3.74,4.27,6.72,4.89C792.41,780.25,787.9,781.1,781.27,779Z"/><path class="cls-2" d="M350.2,357.7c-2.15-.13-4.2-.21-1.61-3,1.18-1.27.47-2.8-1.08-2.17-4.44,1.8-5-2-6.66-4.15,1.28-1.13,2.46-2.4,4.27-2.7,5.19,1.36-2.18,2.72.41,4.15l6.51.51,0,0C352.28,353,352.26,355.6,350.2,357.7Z"/><path class="cls-2" d="M373.16,331.93c1.81-.26,3,2.53,5.11,1a30,30,0,0,1-9.65,12.39c-.95-2.74-1.1-4.87,2.27-6.45C373.49,337.61,373.24,334.53,373.16,331.93Z"/><path class="cls-2" d="M363.84,330.94c1.6-.06,3.14-1,4.82.08a3.63,3.63,0,0,1,1.64,4.3,3.52,3.52,0,0,1-3.51,3,3.42,3.42,0,0,1-3.64-2.79,16,16,0,0,1-.1-3.61Z"/><path class="cls-2" d="M327.13,363.15c1.44,1.16,4.09.59,4.57,3.13.35,1.9.13,3.9-1.65,4.78-2.29,1.14-4.37.14-6-1.76A14,14,0,0,1,327.13,363.15Z"/><path class="cls-2" d="M378.76,332a47.94,47.94,0,0,1-4.5-5c-.67-1-1.6-2.43-.15-3.68,1.13-1,2.24-.44,3.35.16a6.78,6.78,0,0,0,3.84,1.16c-.08.58-.16,1.16-.25,1.74l-.45,1.07A9.47,9.47,0,0,1,378.76,332Z"/><path class="cls-2" d="M824.52,347.61c-3.82-3.54-9.26-5.77-10.4-13.1,2.87,2.41,7.5.66,6.48,6.17-.24,1.3,2.2,3.09,4,4.09Z"/><path class="cls-2" d="M796.3,775.3c-.11-.6,0-1.4-.34-1.75-2.3-2.26-3.29-4,.73-5.67,1.42-.6,2.34-2.67,2.22-4.68-.08-1.39-.06-2.84,2-2.76-.67,3.9-1.24,7.81-2.07,11.67C798.54,773.41,798.33,775.19,796.3,775.3Z"/><path class="cls-2" d="M355.17,339.13c2.47,1.75,3.67,5.46,7.67,4.95a.86.86,0,0,1,.66,1.36c-.93,1.29-2.24,2.29-3.86,1.6a5.42,5.42,0,0,1-3-2.64c-.8-1.8-2.53-2.55-4-3.59A4.39,4.39,0,0,1,355.17,339.13Z"/><path class="cls-2" d="M349.84,342.56c1.43,1.58,2.93,3.11,4.27,4.76,1.07,1.31,3.63,2.47,2.09,4.44-2,2.6-2.31-2.19-4.18-1.45l0,0c-.11-2.83-3.78-3.65-3.72-6.58A1.75,1.75,0,0,1,349.84,342.56Z"/><path class="cls-2" d="M348.32,343.75c-.06,2.93,3.61,3.75,3.72,6.58l-6.51-.51c-2.59-1.43,4.78-2.79-.41-4.15A4.43,4.43,0,0,1,348.32,343.75Z"/><path class="cls-2" d="M367.6,323.63c2.11,2.6,5.43,4.4,5.57,8.32-2.34-1.59-4-4.6-7.55-3.73A11.55,11.55,0,0,1,367.6,323.63Z"/><path class="cls-2" d="M314.22,772.51c1.16-1.29.43-3.83,2.76-4.27.67-.13.92.62,1,1.25.17,2.62.27,5.22-2.7,6.54C314.9,774.86,314.56,773.68,314.22,772.51Z"/><path class="cls-2" d="M801.64,757.65a2.56,2.56,0,0,1-2.7-3c.12-2.47,1.68-3.78,4-4.34C802.49,752.77,802.06,755.21,801.64,757.65Z"/><path class="cls-2" d="M342.85,364.21l1-1C344,364.09,343.62,364.33,342.85,364.21Z"/><path class="cls-2" d="M795.3,776.19a.88.88,0,0,1,1-1C796.61,776.2,796.28,776.52,795.3,776.19Z"/><path class="cls-2" d="M472.75,642.53,470,632.58c4.38-1.63,9.08-.87,13.54-1.84a36.32,36.32,0,0,1,2.61,9.25C482.39,644.6,477.31,642.18,472.75,642.53Z"/><path class="cls-2" d="M324.33,758.24a63.81,63.81,0,0,1,3.59,14.19l-3-.21a.7.7,0,0,1-.39-.4,4.78,4.78,0,0,0-1.13-2.9C320.69,765.13,321,761.55,324.33,758.24Z"/><path class="cls-2" d="M338.4,355a3.67,3.67,0,0,1,3.53,4c0,2.09-1,3.74-3,3.92a3.71,3.71,0,0,1-4.18-3.86C334.65,356.85,336.25,355.57,338.4,355Z"/><path class="cls-2" d="M792.59,759.48c2.59,0,3.65,1.24,3.53,3.45a3.76,3.76,0,0,1-4,3.94c-2.29,0-3.25-1.58-3.27-3.56C788.78,760.71,790.49,759.63,792.59,759.48Z"/><path class="cls-2" d="M780.82,774.59c-2.16-1.78-2.34-3.74-.73-5.76a2.57,2.57,0,0,1,1.48-.58C782.84,770.46,780.92,772.39,780.82,774.59Z"/><path class="cls-2" d="M637.05,497.64c1.49.81,3.7,1.24,3.61,3.72-.07,2.14-1.24,4-3.52,4a3.47,3.47,0,0,1-3.82-3.59C633.21,499.26,634.75,498.31,637.05,497.64Z"/></svg>