<svg id="Layer_1" data-name="Layer 1" xmlns="http://www.w3.org/2000/svg" viewBox="0 0 1080 1080"><defs><style>.cls-1{fill:#4762ad;}.cls-2{fill:none;stroke:#4763ae;stroke-miterlimit:10;stroke-width:9px;}</style></defs><path class="cls-1" d="M698.21,502c0,49.66.2,99.33-.07,149C698,681.43,679.54,700,652.36,698c-14-1-18.53-6.6-18.45-22.68.08-17.41,2.77-20.53,18.35-21.35,14.48-.76,20.78-5.49,21.63-20.44,1.11-19.66.06-39.44.16-59.16q.45-91.43,1.06-182.84c0-2.83,0-5.65,0-8.48-.36-22.83-8-30.17-31.17-29.74-25,.48-50,1.71-75,1.63-43.16-.15-86.32-1-129.48-1.65-22.73-.35-30.68,7.51-30.52,30.32q.45,66.58.77,133.19c0,4,1.05,9.07-.92,11.84-3.1,4.33-8.37,9.84-12.69,9.81s-10.16-5.54-12.26-10.07c-2.17-4.69-.7-11.09-.71-16.74,0-47.24-.11-94.48.09-141.72a171.34,171.34,0,0,1,2.15-26.48C388.67,323,401.88,311.1,423.74,310c21.35-1.08,42.77-.92,64.16-.89,56.92.08,113.85-.17,170.76.85,26.06.47,38.24,12.39,38.71,38.2,1,51.25.28,102.53.28,153.8Z"/><path class="cls-1" d="M670.68,500.66c0,35.14.19,70.27-.14,105.4a111.73,111.73,0,0,1-3.14,25.1c-2.58,10.57-11.1,14.84-21.34,12.2s-11.41-9.57-9.29-18.66c11-47.4,8.11-95.4,6.05-143.38-.49-11.28-.24-22.6-.31-33.91-.1-16.33-2.69-19.1-18.92-19.13q-73.29-.11-146.59,0c-6.06,0-12.11-.32-18.16-.18-14.77.32-20.51,5.91-20.65,20.62-.24,23.82-.16,47.65-.25,71.48,0,3.22,1,7.31-.62,9.47-2.76,3.8-6.89,8.35-10.94,8.9-3.21.42-8.35-4-10.44-7.53s-1.7-8.56-1.71-12.94q-.15-63.6-.05-127.21c0-22.43,6.09-28.44,28.88-28.45,54.52,0,109,0,163.55-.06,10.88,0,21.77-1,32.64-1,23.28.17,31.32,8.27,31.4,31.46C670.77,428.78,670.68,464.72,670.68,500.66Z"/><path class="cls-1" d="M392.08,554.6c28.63,0,57.29-.64,85.88.38,8.73.32,17.86,4.18,25.67,8.48,3.09,1.71,4.87,9.46,3.87,13.65-.68,2.81-7.24,5.88-11.23,6-25,.56-50,.19-75,.36-31.56.21-49.82,17.52-50.86,49-.66,20.14-.06,40.32-.14,60.49-.08,18-8.93,26.61-27.05,26.07q-18-.54-36-1.92c-26.09-2.05-37.52-13-38.24-38.84q-1.21-44.14,0-88.36c.63-23.19,13.88-35.11,37.24-35.25C334.81,554.46,363.45,554.59,392.08,554.6Z"/><path class="cls-1" d="M503.85,755.68c-27,0-54.06.25-81.09-.06-29-.34-42.19-12-43.1-40.46-.94-29.34-.38-58.77.68-88.11.72-19.86,12.67-32.83,32.72-33.58,43.89-1.65,87.84-1.76,131.78-2.06,15.69-.11,31.44.47,47.08,1.79,21.34,1.8,32,12.11,32.49,33.13q1.22,48.34,0,96.73c-.56,20.78-12.89,31.92-34.6,32.36-28.64.58-57.29.14-85.93.14Zm2.85-99.54v.18c-4,0-8.08-.07-12.11,0-27.42.57-54.84,1-82.26,1.81-11.25.32-17.34,7.49-17.48,17.86a306.11,306.11,0,0,0,2.42,45.82c1.65,11.94,10,19.15,22.62,19.65,7.65.3,15.32,0,23,0,45.63,0,91.26.1,136.89-.06,23.14-.08,30.19-7.09,31.1-30.33.34-8.88-.22-17.8.42-26.64,1.48-20.63-5.15-28.2-25.82-28.26C559.21,656.07,533,656.14,506.7,656.14ZM402.29,615.9l1.47,4.55c2.6.72,5.19,2.08,7.79,2.08,60.15.2,120.3.34,180.45.05,2.86,0,5.7-4,8.54-6.07-2.72-2.35-5.19-6.22-8.21-6.71-6.23-1-12.76-.21-19.17-.21-52,0-104.06-.13-156.08.32C412.13,610,407.21,613.82,402.29,615.9Z"/><path class="cls-1" d="M445.3,464.23c-2.65-21.76,8.39-29.37,29.52-29.07,20.37.28,27.36,8.36,27,31-.3,21.18-8.13,28.05-31.56,27.68C451,493.59,445.05,486.58,445.3,464.23Z"/><path class="cls-1" d="M502.33,707c25.82,0,51.63-.09,77.45.05,9.43,0,17.76-2,17.85-13.14s-8.2-13.37-17.65-13.33c-22.18.11-44.37,0-66.56,0-30.25,0-60.51-.16-90.76.14-12.11.12-19.62,8.89-14.29,17.3,2.93,4.61,10.77,8.35,16.53,8.55C450.68,707.55,476.52,707,502.33,707Z"/><path class="cls-1" d="M502.33,707c-25.81,0-51.65.51-77.43-.4-5.76-.2-13.6-3.94-16.53-8.55-5.33-8.41,2.18-17.18,14.29-17.3,30.25-.3,60.51-.13,90.76-.14,22.19,0,44.38.08,66.56,0,9.45,0,17.73,2.17,17.65,13.33s-8.42,13.19-17.85,13.14C554,707,528.15,707,502.33,707Z"/><path class="cls-2" d="M539,1039.51q175.72,0,351.46-.08c34.24-.07,66.48-8.17,94.23-29.18,40.09-30.35,54.45-73.28,54.55-121.18q.75-350.85.1-701.71c-.14-85.34-63.07-146.9-148.48-146.9q-350.85,0-701.69,0c-86.49,0-148.73,62.39-148.75,149.15q0,350.25,0,700.49c0,87.75,61.72,149.38,149.54,149.41Q364.48,1039.56,539,1039.51Z"/></svg>