<svg id="Layer_1" data-name="Layer 1" xmlns="http://www.w3.org/2000/svg" viewBox="0 0 1080 1080"><defs><style>.cls-1{fill:#4886c6;}.cls-2{font-size:48.37px;}.cls-2,.cls-4,.cls-8{fill:#fff;}.cls-2,.cls-4{font-family:ComicSansMS, Comic Sans MS;}.cls-3{letter-spacing:2.69em;}.cls-4{font-size:52.65px;}.cls-5,.cls-6,.cls-7{fill:none;stroke-miterlimit:10;}.cls-5{stroke:#fff;stroke-width:7px;}.cls-6,.cls-7{stroke:#4886c6;}.cls-6{stroke-width:5px;}.cls-7{stroke-width:3px;}</style></defs><path class="cls-1" d="M727.64,229.64c-3.06.21-4.5.42-5.94.4-23.33-.41-39.46,11.83-40.88,31-1.35,18.29,11.34,31.53,34.49,34.23,45.46,5.31,91.13,6.22,136.82,3.89a260.67,260.67,0,0,0,36.43-4.9c10.17-2,15.89-9.55,18-19.35,2.07-9.58-2.88-16-11-20.24-2.17-1.14-5.24-2-5.11-4.68.64-12.72-7.17-14.43-17.62-12.51-1.85-20.75-14.53-27.28-32-25.83-6.12-25.76-14.18-29.39-36.38-17.39-2.69,1.45-4.76,2.94-8,1.53-10.53-4.55-18.63.6-26.67,8.82-5.17-11.24-12-19.55-24.28-15.39C726.27,195.77,728.08,213,727.64,229.64ZM187.17,685.74c-5,2.77-9.07,4.56-12.58,7.1-5,3.63-8.31,8.57-6.75,15.14,1.63,6.89,7.22,8.73,13.39,9.37a78.57,78.57,0,0,0,8.81.5c37.25-.43,74.51-.77,111.75-1.54a49.11,49.11,0,0,0,18.55-3.7c8.85-3.93,11.42-9.9,3.27-18.13a157.34,157.34,0,0,1-21-26.46c-9.44-15.31-16.41-20.62-31.16-9.9-15.18-25.45-19.57-25.94-44.05-6-10.46-3.6-20.95-9.94-31.54-.27C185.88,661.05,182.3,672,187.17,685.74ZM783.53,831.25c-7.1-1.83-11.73-10.4-19.25-6.28-12.88,7.06-2.53,19.74-5.93,29.55-2.31,6.7,5.93,8.22,11,8.61,18.53,1.44,37.11,2.55,55.69,3a34.37,34.37,0,0,0,18.41-4.43c4.85-2.88,8.72-6.77,8.32-12.85-.43-6.41-5.26-9-10.78-10.4-3.55-.93-8.53.7-9.67-4.62-2.52-11.79-10.35-14-20.16-10.83-3.53-7.43-2.47-19-11.42-18.08C786.17,806.36,788.24,821.11,783.53,831.25Z"/><path class="cls-1" d="M226.3,517.38c49.34,102.29,176.13,156.87,258,131.84,2.32-.71,4.88-.72,6.58,1.46,2.18,5.66-2.56,11.83,1.46,17.1,7.37,4,14.51-1.38,22.13-.12a55.42,55.42,0,0,1,3,4.8c17,34.6,38.46,65.27,74,83.34,5.7,2.89,5.77,6.93,4.23,12.23-7.87,27.1-18,53.14-36,75.35-10.57,13.08-22.76,24.26-39.65,29.94-9.48-15.49-14.68-33.83-31.33-43.12,9.39,14.47,19.55,28.22,24.45,45.66-2.51,1.29-4.52,2.83-6.77,3.42-34.06,9-68.67,12.3-103.71,8.51a78.33,78.33,0,0,1-33.36-11c-21-13-24.41-34.2-7.58-52.16,19.31-20.6,44.09-26.12,71.34-23.56C450,802.65,463.73,812.3,478.66,821c0-2.82.38-4.06-.05-4.5-31.06-31.74-97.69-27.3-124.21,8.22-14.09,18.85-10.86,40.3,8.32,54.15,13.57,9.8,29.23,13.6,45.58,15.12,36.53,3.39,72.23-2,108.26-11.39,8.69,25.35,13.81,50.29,13.55,77.27l6.3.87c-.91-24.8-4.58-49.38-12.2-73.26-1.56-4.89-1.24-8.38,3.72-11,38.66-20.35,56.84-56.06,69.11-95.23,4.59-14.65,8.87-19.85,25.92-16.68,50.2,9.32,106.81-22.71,124-67.55,9.3-24.17,3.07-51.75-15.25-67.57-17.94-15.49-44.68-17.08-67.66-4-15,8.53-25.61,21.17-34.15,35.89-13,22.41-19.29,47.15-25.61,71.94-1.62,6.35-1,13.82-7.6,19.25-37.86-18.5-59.44-50.61-75.93-85.84,3.65-6.64,10.49-6.1,12-12.4l-10.56-19.15c6.73-3.74,12.73-7,18.66-10.38,52.35-29.84,88-73,104.94-131.23,11.44-39.35,12.26-79.38,7.85-119.82C640.08,249,552.73,155.46,417.84,166.41c-95.92,7.78-168.53,55.5-207,145.74C181.08,382.07,194.47,451.4,226.3,517.38ZM612.07,726.24c3.73-14.22,8.06-28.33,13-42.17a121.61,121.61,0,0,1,22.17-38c20.9-24.64,55.59-31.28,77.89-15C749,648.5,753,682,733.89,710.41c-22.6,33.62-55.59,48.35-90.25,50.23C604.66,760.76,603.38,759.34,612.07,726.24ZM525.18,383.82c8.89,14,1.48,27.59,8.15,40.28,14-11.46,1.43-27.89,12.45-40.46a79.39,79.39,0,0,1,.81,37.16c-1.43,6.79-8,9.61-15.07,8.81-6.82-.78-8.54-5.85-8.42-11.69C523.31,408,521.54,397.8,525.18,383.82Zm5.65,112.39c.23,16.07-6.73,27.88-16.07,27.09-9.61-.82-13.89-7.3-13.95-16.95-.09-13.66,9.21-28.5,18.39-27.53C530.42,480,530,489.47,530.83,496.21ZM499.52,301.34c5.64-2.64,11.22-2.54,14.16,3.77-2.26,8.82-16.61-5.23-15,9.48,6.05,4.62,21.34-4.92,19.56,11.78-1.07,10-7.55,15.74-17.72,16.23-7.46.36-10.33-3.48-8.71-12.57,11.08,8.79,17,6.28,19-5.89-5.95-6.15-17.43,4.93-19.92-7.35C489.43,309.71,493.27,304.25,499.52,301.34Zm-11,101.89a11,11,0,0,1,.69-2.85c3.08-7.28,5.94-16.26,15.65-14.89,11.11,1.58,9,12.3,10.8,19.1-1.21,9.9-2.25,18.82-11.39,23.62-4.23,2.22-8.78,2.61-12.23-1.17C485.68,420,487.51,411.5,488.56,403.23Zm5.26,84.46c-14.47-2.5-22.64,5-22.22,18.68.12,4,.21,8.5,4.58,10s7.1-1.92,9.46-5.31c4.69-6.73-5-5.32-5.29-10.09,3.49-3.65,8.21-3.15,13.77-2.87,2.42,11.88-2.11,20.13-12.77,24.59-6.78,2.84-12.56.45-15.45-6.9-4.35-11.12,1-28,10.93-34.27C483.88,477,489.6,477.35,493.82,487.69ZM469.9,298.2c11.06,25.06,13,34.12,9.43,42.47-12.26-17-12.26-17-22.33.4C452.82,333.38,457.92,315.85,469.9,298.2Zm.5,98c4.15-.19,3.57-9.82,13.22-10.48-6.11,14.39-17,26.22-11.11,42.9l-7.9-.43c3.68-15.89-3.9-28.43-12.46-41.64C463,385,461.88,395.19,470.4,396.2ZM401.08,312c6.45,0,6-9.88,16-9.91a139.63,139.63,0,0,0-17,42.74c.27-15.77-5.89-28.8-15.37-41.65C395.75,300.76,395.07,310.94,401.08,312Zm29.28,160.64c-.74,33.38-21.42,45.7-47.88,45.84-26.93.15-43.13-20.29-42.47-46.13-1.29-31.83,14.82-43.23,44.25-44.72C412.73,426.19,431,444.72,430.36,472.65ZM382.84,344.47c-6.37-.42-5.89-3.86-6.69-6.52-1-3.25-1.86-6.66-6.24-7.05-4.73-.43-7.22,1.9-8.45,6.22-1.4,4.93-3.17,9.42-12,5.2,8.61-13.38,9.19-29.07,21.41-44C374,315.84,385.12,327.94,382.84,344.47Zm-53.7-40.74c8.65,1,19.32-5.51,23.41,3.6,4.19,9.33-4.95,16-12.94,19.47-8.68,3.8-.71,13.31-10.49,19.36C328.85,330.89,326.57,317.79,329.14,303.73Z"/><path class="cls-1" d="M727.64,229.64c.44-16.61-1.37-33.87,17.78-40.38,12.25-4.16,19.11,4.15,24.28,15.39,8-8.22,16.14-13.37,26.67-8.82,3.26,1.41,5.33-.08,8-1.53,22.2-12,30.26-8.37,36.38,17.39,17.5-1.45,30.18,5.08,32,25.83,10.45-1.92,18.26-.21,17.62,12.51-.13,2.7,2.94,3.54,5.11,4.68,8.16,4.28,13.11,10.66,11,20.24-2.12,9.8-7.84,17.37-18,19.35a260.67,260.67,0,0,1-36.43,4.9c-45.69,2.33-91.36,1.42-136.82-3.89-23.15-2.7-35.84-15.94-34.49-34.23,1.42-19.21,17.55-31.45,40.88-31C723.14,230.06,724.58,229.85,727.64,229.64Z"/><path class="cls-1" d="M187.17,685.74c-4.87-13.76-1.29-24.69,8.73-33.84,10.59-9.67,21.08-3.33,31.54.27,24.48-20,28.87-19.5,44.05,6,14.75-10.72,21.72-5.41,31.16,9.9a157.34,157.34,0,0,0,21,26.46c8.15,8.23,5.58,14.2-3.27,18.13a49.11,49.11,0,0,1-18.55,3.7c-37.24.77-74.5,1.11-111.75,1.54a78.57,78.57,0,0,1-8.81-.5c-6.17-.64-11.76-2.48-13.39-9.37-1.56-6.57,1.71-11.51,6.75-15.14C178.1,690.3,182.16,688.51,187.17,685.74Z"/><path class="cls-1" d="M783.53,831.25c4.71-10.14,2.64-24.89,16.2-26.31,8.95-.94,7.89,10.65,11.42,18.08,9.81-3.13,17.64-1,20.16,10.83,1.14,5.32,6.12,3.69,9.67,4.62,5.52,1.44,10.35,4,10.78,10.4.4,6.08-3.47,10-8.32,12.85A34.37,34.37,0,0,1,825,866.15c-18.58-.47-37.16-1.58-55.69-3-5.06-.39-13.3-1.91-11-8.61,3.4-9.81-7-22.49,5.93-29.55C771.8,820.85,776.43,829.42,783.53,831.25Z"/><path class="cls-1" d="M340,472.36c-1.29-31.83,14.82-43.23,44.25-44.72,28.47-1.45,46.72,17.08,46.1,45-.74,33.38-21.42,45.7-47.88,45.84C355.55,518.64,339.35,498.2,340,472.36Zm41.4-32.78c-14.91,1-23.89,8.15-28.22,20.9-4.64,13.66-2.08,26.36,8,36.71,4.58,4.7,9.87,11.25,18.74,4.34-7.54-4.57-14.06-9.23-14.2-18.1,6.09-5.42,10.79.45,17.86,2.67-3.5-11.9-18.65-10.87-18-23.57C366.16,451,384.49,454.37,381.41,439.58Zm6.65,24.1c4.9,7.87,17.94,8.27,17.4,19.84-.56,12-12.5,12.75-20.24,18.91,17.47,3.37,30.89-7.13,33.27-24.48,2.88-20.95-8.3-35.77-28.56-37.5-7.19,13.7,18.48,9.28,12.8,21.61C398.2,466.74,393.36,460.42,388.06,463.68Z"/><path class="cls-1" d="M533.33,424.1c14-11.46,1.43-27.89,12.45-40.46a79.39,79.39,0,0,1,.81,37.16c-1.43,6.79-8,9.61-15.07,8.81-6.82-.78-8.54-5.85-8.42-11.69.21-10-1.56-20.12,2.08-34.1C534.07,397.86,526.66,411.41,533.33,424.1Z"/><path class="cls-1" d="M515.7,404.59c-1.21,9.9-2.25,18.82-11.39,23.62-4.23,2.22-8.78,2.61-12.23-1.17-6.4-7-4.57-15.54-3.52-23.81a11,11,0,0,1,.69-2.85c3.08-7.28,5.94-16.26,15.65-14.89C516,387.07,513.91,397.79,515.7,404.59Zm-16.25,20.67c9.31-12.11,11.05-21.65,4.08-33.83C494.06,401.53,491.94,411,499.45,425.26Z"/><path class="cls-1" d="M349.49,342.32c8.61-13.38,9.19-29.07,21.41-44,3.06,17.53,14.22,29.63,11.94,46.16-6.37-.42-5.89-3.86-6.69-6.52-1-3.25-1.86-6.66-6.24-7.05-4.73-.43-7.22,1.9-8.45,6.22C360.06,342.05,358.29,346.54,349.49,342.32Z"/><path class="cls-1" d="M530.83,496.21c.23,16.07-6.73,27.88-16.07,27.09-9.61-.82-13.89-7.3-13.95-16.95-.09-13.66,9.21-28.5,18.39-27.53C530.42,480,530,489.47,530.83,496.21Zm-17.54,20.65c12-8.82,13.32-17.82,5.08-31.47C509.64,495,507.88,504.9,513.29,516.86Z"/><path class="cls-1" d="M491.82,330c11.08,8.79,17,6.28,19-5.89-5.95-6.15-17.43,4.93-19.92-7.35-1.43-7.08,2.41-12.53,8.66-15.45,5.64-2.64,11.22-2.54,14.16,3.77-2.26,8.82-16.61-5.23-15,9.48,6.05,4.62,21.34-4.92,19.56,11.78-1.07,10-7.55,15.74-17.72,16.23C493.07,343,490.2,339.12,491.82,330Z"/><path class="cls-1" d="M329.12,346.16c-.27-15.27-2.55-28.37,0-42.43,8.65,1,19.32-5.51,23.41,3.6,4.19,9.33-4.95,16-12.94,19.47C330.93,330.6,338.9,340.11,329.12,346.16Z"/><path class="cls-1" d="M493.82,487.69c-14.47-2.5-22.64,5-22.22,18.68.12,4,.21,8.5,4.58,10s7.1-1.92,9.46-5.31c4.69-6.73-5-5.32-5.29-10.09,3.49-3.65,8.21-3.15,13.77-2.87,2.42,11.88-2.11,20.13-12.77,24.59-6.78,2.84-12.56.45-15.45-6.9-4.35-11.12,1-28,10.93-34.27C483.88,477,489.6,477.35,493.82,487.69Z"/><path class="cls-1" d="M469.9,298.2c11.06,25.06,13,34.12,9.43,42.47-12.26-17-12.26-17-22.33.4C452.82,333.38,457.92,315.85,469.9,298.2Z"/><path class="cls-1" d="M400.12,344.84c.27-15.77-5.89-28.8-15.37-41.65,11-2.43,10.32,7.75,16.33,8.82,6.45,0,6-9.88,16-9.91A139.63,139.63,0,0,0,400.12,344.84Z"/><path class="cls-1" d="M464.61,428.19c3.68-15.89-3.9-28.43-12.46-41.64,10.83-1.52,9.73,8.64,18.25,9.65,4.15-.19,3.57-9.82,13.22-10.48-6.11,14.39-17,26.22-11.11,42.9Z"/><path class="cls-1" d="M381.41,439.58c3.08,14.79-15.25,11.4-15.82,22.95-.64,12.7,14.51,11.67,18,23.57-7.07-2.22-11.77-8.09-17.86-2.67.14,8.87,6.66,13.53,14.2,18.1-8.87,6.91-14.16.36-18.74-4.34-10.09-10.35-12.65-23.05-8-36.71C357.52,447.73,366.5,440.58,381.41,439.58Z"/><path class="cls-1" d="M388.06,463.68c5.3-3.26,10.14,3.06,14.67-1.62,5.68-12.33-20-7.91-12.8-21.61,20.26,1.73,31.44,16.55,28.56,37.5-2.38,17.35-15.8,27.85-33.27,24.48,7.74-6.16,19.68-7,20.24-18.91C406,472,393,471.55,388.06,463.68Z"/><path class="cls-1" d="M499.45,425.26c-7.51-14.22-5.39-23.73,4.08-33.83C510.5,403.61,508.76,413.15,499.45,425.26Z"/><path class="cls-1" d="M513.29,516.86c-5.41-12-3.65-21.85,5.08-31.47C526.61,499,525.25,508,513.29,516.86Z"/><text class="cls-2" transform="translate(293.64 349.85)">PAY AS <tspan class="cls-3" x="0" y="75.72">	</tspan><tspan x="144.8" y="75.72">YOU </tspan><tspan class="cls-3" x="0" y="151.43">	</tspan><tspan x="144.8" y="151.43" xml:space="preserve">     GO</tspan></text><text class="cls-4" transform="translate(365.28 491.34)">$</text><circle class="cls-5" cx="383.15" cy="474.58" r="29.98"/><path class="cls-6" d="M474.76,815.64a103.09,103.09,0,0,1,23.49,25"/><line class="cls-7" x1="383.6" y1="418.11" x2="383.6" y2="431.64"/><path class="cls-8" d="M386.1,433.84V420.57a2.5,2.5,0,0,0-5,0v13.27a2.5,2.5,0,1,0,5,0Z"/><path class="cls-8" d="M417,450.07l9.39-9.39a2.53,2.53,0,0,0,0-3.54,2.55,2.55,0,0,0-3.53,0l-9.39,9.39a2.5,2.5,0,0,0,3.53,3.54Z"/><path class="cls-8" d="M423.74,474.25H437a2.51,2.51,0,0,0,2.5-2.5,2.54,2.54,0,0,0-2.5-2.5H423.74a2.5,2.5,0,0,0,0,5Z"/><path class="cls-8" d="M413.48,502.64l9.39,9.38a2.5,2.5,0,0,0,3.53-3.53L417,499.1a2.51,2.51,0,0,0-3.53,0,2.55,2.55,0,0,0,0,3.54Z"/><path class="cls-8" d="M381.1,515.32V528.6a2.5,2.5,0,0,0,5,0V515.32a2.5,2.5,0,0,0-5,0Z"/><path class="cls-8" d="M352.42,501.29,343,510.68a2.5,2.5,0,1,0,3.54,3.53l9.39-9.38a2.5,2.5,0,0,0-3.54-3.54Z"/><path class="cls-8" d="M342.58,472.08H329.31a2.5,2.5,0,0,0,0,5h13.27a2.5,2.5,0,0,0,0-5Z"/><path class="cls-8" d="M357.42,443.38,348,434a2.51,2.51,0,0,0-3.53,0,2.55,2.55,0,0,0,0,3.54l9.38,9.38a2.5,2.5,0,0,0,3.54-3.53Z"/></svg>