<svg id="Layer_1" data-name="Layer 1" xmlns="http://www.w3.org/2000/svg" xmlns:xlink="http://www.w3.org/1999/xlink" viewBox="0 0 1080 1080"><defs><style>.cls-1{fill:#edeaec;}.cls-2{fill:#68848d;}.cls-3{fill:#d6d8ed;}.cls-4{fill:#1f143f;}.cls-5{fill:#4467b0;}.cls-6{fill:#c1c6df;}.cls-12,.cls-7{fill:#fff;}.cls-16,.cls-25,.cls-8{fill:none;}.cls-8{stroke:#d6d8ed;}.cls-16,.cls-8{stroke-miterlimit:10;}.cls-9{fill:#e95b50;}.cls-10{clip-path:url(#clip-path);}.cls-11{fill:#febb12;}.cls-12,.cls-13,.cls-21{opacity:0.2;}.cls-13,.cls-22{fill:#231f20;}.cls-14{clip-path:url(#clip-path-2);}.cls-15{fill:#c95b5a;}.cls-16{stroke:#516e76;}.cls-17{fill:#fab594;}.cls-18{fill:#4c84c4;}.cls-19{fill:#dfe9e5;}.cls-20{fill:#ec987e;}.cls-23{fill:#73c385;}.cls-24{fill:#29426a;}.cls-26{fill:#6a90bd;}.cls-27{fill:#a1b4d9;}.cls-28{fill:#5b82ad;}.cls-29{fill:#20438e;}</style><clipPath id="clip-path"><polygon class="cls-1" points="575.38 402.63 493.53 390.48 500.46 436.8 575.38 402.63"/></clipPath><clipPath id="clip-path-2"><path class="cls-2" d="M127.26,436.35l6.44,49.23-50.83,6.86a8.44,8.44,0,0,1-9.49-7.23l-4.61-34a8.44,8.44,0,0,1,7.49-9.52Z"/></clipPath></defs><path class="cls-3" d="M19.8,866.19c0,7.54,229.94,13.65,513.58,13.65S1047,873.73,1047,866.19,817,852.55,533.38,852.55,19.8,858.66,19.8,866.19Z"/><rect class="cls-4" x="385.66" y="215.15" width="449.85" height="652.28" rx="4"/><rect class="cls-5" x="377.97" y="215.15" width="449.85" height="652.28" rx="4"/><rect class="cls-6" x="416.03" y="243.39" width="389.11" height="595.8"/><rect class="cls-7" x="408.34" y="243.39" width="389.11" height="595.8"/><path class="cls-4" d="M513.42,199.66H692.36a5,5,0,0,1,5,5v52.18a0,0,0,0,1,0,0H508.42a0,0,0,0,1,0,0V204.66A5,5,0,0,1,513.42,199.66Z"/><path class="cls-4" d="M602.89,155.67a44,44,0,1,0,44,44A44,44,0,0,0,602.89,155.67Zm0,66a22,22,0,1,1,22-22A22,22,0,0,1,602.89,221.65Z"/><rect class="cls-8" x="694.21" y="363.76" width="47.32" height="47.32" rx="2"/><path class="cls-9" d="M683,378.77l20.49,20.49,2.93,2.93a2.52,2.52,0,0,0,3.53,0l18.58-18.57,29.56-29.57,6.74-6.73c2.28-2.28-1.26-5.82-3.54-3.54L742.7,362.35l-29.57,29.57-6.73,6.74h3.53l-20.49-20.5-2.93-2.93c-2.28-2.28-5.81,1.26-3.53,3.54Z"/><rect class="cls-8" x="694.21" y="455.56" width="47.32" height="47.32" rx="2"/><path class="cls-9" d="M683,470.57l20.49,20.5L706.4,494a2.52,2.52,0,0,0,3.53,0l18.58-18.57,29.56-29.57,6.74-6.73c2.28-2.28-1.26-5.82-3.54-3.54L742.7,454.16l-29.57,29.56-6.73,6.74h3.53L689.44,470,686.51,467c-2.28-2.28-5.81,1.25-3.53,3.53Z"/><rect class="cls-8" x="694.21" y="543.11" width="47.32" height="47.32" rx="2"/><path class="cls-9" d="M683,558.12l20.49,20.49,2.93,2.93a2.53,2.53,0,0,0,3.53,0L728.51,563l29.56-29.57,6.74-6.74c2.28-2.28-1.26-5.81-3.54-3.53L742.7,541.7l-29.57,29.57L706.4,578h3.53l-20.49-20.49-2.93-2.93c-2.28-2.28-5.81,1.26-3.53,3.54Z"/><rect class="cls-8" x="694.21" y="632.07" width="47.32" height="47.32" rx="2"/><path class="cls-9" d="M683,647.08l20.49,20.49,2.93,2.93a2.52,2.52,0,0,0,3.53,0l18.58-18.57,29.56-29.57,6.74-6.73c2.28-2.28-1.26-5.82-3.54-3.54L742.7,630.66l-29.57,29.57L706.4,667h3.53l-20.49-20.5-2.93-2.93c-2.28-2.27-5.81,1.26-3.53,3.54Z"/><rect class="cls-6" x="460.44" y="381.74" width="199.7" height="7.8" rx="1"/><rect class="cls-6" x="460.44" y="401.85" width="152.61" height="7.8" rx="1"/><rect class="cls-6" x="460.44" y="473.54" width="199.7" height="7.8" rx="1"/><rect class="cls-6" x="460.44" y="493.66" width="152.61" height="7.8" rx="1"/><rect class="cls-6" x="460.44" y="561.09" width="199.7" height="7.8" rx="1"/><rect class="cls-6" x="460.44" y="581.2" width="152.61" height="7.81" rx="1"/><rect class="cls-6" x="460.44" y="650.05" width="199.7" height="7.8" rx="1"/><rect class="cls-6" x="460.44" y="670.17" width="152.61" height="7.8" rx="1"/><path class="cls-5" d="M461,373l7.75-18.18h.17L476.63,373h-3.19L468,359.17l2-1.31L463.75,373Zm4.89-6.48h5.95l1,2.35H465Z"/><path class="cls-5" d="M496.32,371.62a6.63,6.63,0,0,1-1.13.66,10.5,10.5,0,0,1-1.81.65,8.47,8.47,0,0,1-2.32.25,9.43,9.43,0,0,1-3.65-.73,8.24,8.24,0,0,1-2.76-1.92,8.67,8.67,0,0,1-1.75-2.78,9.17,9.17,0,0,1-.61-3.37,10.1,10.1,0,0,1,.62-3.61,8.61,8.61,0,0,1,1.77-2.88,8.07,8.07,0,0,1,2.74-1.88,8.74,8.74,0,0,1,3.48-.67,9.25,9.25,0,0,1,2.93.44,10.06,10.06,0,0,1,2.2,1l-1.1,2.61a8.67,8.67,0,0,0-1.68-.94A5.56,5.56,0,0,0,491,358a5.37,5.37,0,0,0-2.2.47,5.67,5.67,0,0,0-1.84,1.32,6.33,6.33,0,0,0-1.27,2,6.19,6.19,0,0,0-.47,2.43,7.35,7.35,0,0,0,.42,2.51,5.74,5.74,0,0,0,1.2,2,5.43,5.43,0,0,0,1.86,1.3,6.5,6.5,0,0,0,6.47-.91Z"/><path class="cls-5" d="M503.58,355.53h11.68v2.68h-4.51V373H508V358.21h-4.39Z"/><path class="cls-5" d="M472.76,450.73a12.31,12.31,0,0,0-2-.86,6.42,6.42,0,0,0-2-.34,3.27,3.27,0,0,0-2,.57,1.88,1.88,0,0,0-.74,1.58,1.78,1.78,0,0,0,.51,1.26,4.65,4.65,0,0,0,1.33.94c.55.26,1.12.51,1.73.75a13.46,13.46,0,0,1,1.56.69,6.44,6.44,0,0,1,1.4,1,3.93,3.93,0,0,1,1,1.44,5.28,5.28,0,0,1,.37,2.09,4.75,4.75,0,0,1-.68,2.51,5.05,5.05,0,0,1-2,1.8,6.77,6.77,0,0,1-3.14.68,9.49,9.49,0,0,1-2.14-.24,10.44,10.44,0,0,1-2-.65,8.6,8.6,0,0,1-1.73-1l1.25-2.16a7,7,0,0,0,1.32.79,8.49,8.49,0,0,0,1.52.58,5.79,5.79,0,0,0,1.5.22,4.56,4.56,0,0,0,1.47-.26,2.65,2.65,0,0,0,1.24-.8,2.19,2.19,0,0,0,.48-1.49,2,2,0,0,0-.43-1.26,4.32,4.32,0,0,0-1.12-.91,9.46,9.46,0,0,0-1.5-.7c-.52-.21-1.08-.44-1.65-.7a7.35,7.35,0,0,1-1.6-.95,4,4,0,0,1-1.59-3.37,4.64,4.64,0,0,1,.65-2.5,4.53,4.53,0,0,1,1.85-1.69,6.31,6.31,0,0,1,2.75-.67,9.73,9.73,0,0,1,3.15.44,11.24,11.24,0,0,1,2.34,1.09Z"/><path class="cls-5" d="M480.51,464.61l7.75-18.18h.16l7.72,18.18H493l-5.47-13.81,2-1.32-6.23,15.13Zm4.89-6.47h6l1,2.35h-7.77Z"/><path class="cls-5" d="M501.28,447.15H513v2.69h-4.51v14.77h-2.78V449.84h-4.39Z"/><path class="cls-5" d="M476.75,551a6.28,6.28,0,0,1-1,.64,10.11,10.11,0,0,1-1.46.57,16.68,16.68,0,0,1-1.69.42,8.74,8.74,0,0,1-1.61.17,10.72,10.72,0,0,1-3.83-.65,8.66,8.66,0,0,1-2.89-1.79,7.69,7.69,0,0,1-1.84-2.68,8.79,8.79,0,0,1-.65-3.42,10.18,10.18,0,0,1,.73-4,8.59,8.59,0,0,1,2-2.93,8.12,8.12,0,0,1,2.85-1.78,9.77,9.77,0,0,1,3.42-.6,11.5,11.5,0,0,1,2.94.36,9.85,9.85,0,0,1,2.33.91l-.93,2.59a5.27,5.27,0,0,0-1.16-.52,14.72,14.72,0,0,0-1.45-.38,6.42,6.42,0,0,0-1.37-.16,8.12,8.12,0,0,0-2.69.42,5.31,5.31,0,0,0-3.32,3.22,7.42,7.42,0,0,0-.44,2.62,6.11,6.11,0,0,0,.48,2.47,5.79,5.79,0,0,0,1.3,1.9,5.72,5.72,0,0,0,2,1.21A7.61,7.61,0,0,0,471,550a8.22,8.22,0,0,0,1.58-.15,4.1,4.1,0,0,0,1.32-.45v-2.9h-3.29v-2.71h6.12Z"/><path class="cls-5" d="M490.7,535.17a8.7,8.7,0,0,1,2.63.38,6.22,6.22,0,0,1,2,1.09,4.88,4.88,0,0,1,1.31,1.74,6,6,0,0,1,.45,2.4,7,7,0,0,1-.31,2.06,5.26,5.26,0,0,1-1,1.87,5,5,0,0,1-1.86,1.35,7.13,7.13,0,0,1-2.83.5h-2.54v6.07h-2.81V535.17Zm.36,8.68a3.71,3.71,0,0,0,1.54-.29,2.67,2.67,0,0,0,1-.74,3,3,0,0,0,.52-1,3.53,3.53,0,0,0,.15-1,3.36,3.36,0,0,0-.14-1,3.2,3.2,0,0,0-.49-1,2.55,2.55,0,0,0-.95-.78,3.36,3.36,0,0,0-1.51-.3h-2.59v6Zm3,1.7,4.46,7.08h-3.26l-4.54-7Z"/><path class="cls-5" d="M506.63,535.17h11.58v2.68h-8.78v4.66h7.82v2.68h-7.82v4.75h9.12v2.69H506.63Z"/><path class="cls-5" d="M476.75,640.5a5.67,5.67,0,0,1-1,.63,9.06,9.06,0,0,1-1.46.58,16.68,16.68,0,0,1-1.69.42,8.74,8.74,0,0,1-1.61.17,10.72,10.72,0,0,1-3.83-.65,8.66,8.66,0,0,1-2.89-1.79,7.69,7.69,0,0,1-1.84-2.68,8.79,8.79,0,0,1-.65-3.42,10.18,10.18,0,0,1,.73-4,8.59,8.59,0,0,1,2-2.93,8.12,8.12,0,0,1,2.85-1.78,9.77,9.77,0,0,1,3.42-.6,11.5,11.5,0,0,1,2.94.36,9.85,9.85,0,0,1,2.33.91l-.93,2.59a5.27,5.27,0,0,0-1.16-.52,14.72,14.72,0,0,0-1.45-.38,6.42,6.42,0,0,0-1.37-.16,8.12,8.12,0,0,0-2.69.42,5.31,5.31,0,0,0-3.32,3.22,7.42,7.42,0,0,0-.44,2.62,6.11,6.11,0,0,0,.48,2.47,5.79,5.79,0,0,0,1.3,1.9,5.72,5.72,0,0,0,2,1.21,7.61,7.61,0,0,0,2.59.42,8.22,8.22,0,0,0,1.58-.15,4.36,4.36,0,0,0,1.32-.45V636h-3.29v-2.71h6.12Z"/><path class="cls-5" d="M485.76,642.11V624h0l9.4,13.31-1.2-.26L503.34,624h.05v18.09h-2.78V630.33l.17,1.42-6.31,8.94h-.05L488,631.75l.48-1.3v11.66Z"/><path class="cls-5" d="M511.14,642.11l7.74-18.18h.17l7.72,18.18h-3.19l-5.47-13.82,2-1.32-6.24,15.14Zm4.89-6.48H522l1,2.35h-7.77Z"/><path class="cls-5" d="M531.9,624.65h11.68v2.68h-4.51v14.78h-2.78V627.33H531.9Z"/><path class="cls-4" d="M401.43,391.52c9.88.79,27.5,7.64,24,20.78a3.06,3.06,0,0,1-.82,1.57,3.54,3.54,0,0,1-2.31.62c-4.41.12-9.2-.18-12.57-3-2.11-1.78-3.44-4.4-5.69-6a16.65,16.65,0,0,0-4.34-2l-7.83-2.75c-1.38-.48-2.94-1.15-3.36-2.55s.73-3.07,2-4A16.26,16.26,0,0,1,401.43,391.52Z"/><path class="cls-4" d="M172,867.58l.15,0c4.12.84,8.33.68,12.51.71,7.6.07,15.18.14,22.78-.2,4.67-.21,6.57-2.54,7.44-6.87a55.5,55.5,0,0,0,1-13.73,2.73,2.73,0,0,0-.29-1.3,2.61,2.61,0,0,0-1.4-.92,24.59,24.59,0,0,0-5.74-1.35c-1.34-.15-3.81-.64-4.95.22s-2,2.86-2.8,4a27.31,27.31,0,0,1-3.36,4.22,22,22,0,0,1-9.19,5c-3.37,1-6.87,1.57-10.3,2.37a19.72,19.72,0,0,0-7.25,2.91,3.08,3.08,0,0,0-1.58,2.66C169.2,866.67,170.68,867.29,172,867.58Z"/><path class="cls-4" d="M358,867.58l-.15,0c-4.12.84-8.33.68-12.51.71-7.6.07-15.18.14-22.78-.2-4.67-.21-6.57-2.54-7.44-6.87a55.5,55.5,0,0,1-1-13.73,2.73,2.73,0,0,1,.29-1.3,2.61,2.61,0,0,1,1.4-.92A24.59,24.59,0,0,1,321.5,844c1.35-.15,3.82-.64,4.95.22s2,2.86,2.81,4a27.24,27.24,0,0,0,3.35,4.22,22,22,0,0,0,9.19,5c3.37,1,6.87,1.57,10.3,2.37a19.72,19.72,0,0,1,7.25,2.91,3.08,3.08,0,0,1,1.58,2.66C360.75,866.67,359.27,867.29,358,867.58Z"/><path class="cls-4" d="M265.77,362.48a20,20,0,0,1-.46,3.37c-1.2,5-4.89,8.69-7.59,12.88A17.75,17.75,0,0,0,255.53,391c1.35,8.89,6.72,17.26,12.64,23.83a22.75,22.75,0,0,0,4.36,4.19,32.76,32.76,0,0,0,6.56,2.46,86.55,86.55,0,0,0,18.35,4c3.07.31,6.15.44,9.23.49,2.82.05,5.54-1.57,8.06-2.81a34.13,34.13,0,0,0,8.08-5.34,48.83,48.83,0,0,0,6.61-8c1.55-2.19,3.11-4.47,3.67-7.09.67-3.13-.13-6.52,1-9.5.74-1.89,2.19-3.39,3.29-5.1,3.65-5.66-1.53-12.52,1.44-18.41,1.84-3.66,5.58-5.92,7.16-9.72a15.18,15.18,0,0,0,0-11.47c-2.46-6-8-10.14-14-12.72-6.77-3-15.33-3.94-21,.78-1.21,1-2.22,2.22-3.36,3.29-9.15,8.61-21,1.76-31.55,5.72-4.37,1.64-8.25,5.06-9.55,9.55A35.09,35.09,0,0,0,265.77,362.48Z"/><polygon class="cls-1" points="575.38 402.63 493.53 390.48 500.46 436.8 575.38 402.63"/><g class="cls-10"><path class="cls-9" d="M543.83,413.35a19.83,19.83,0,0,0,3.53,7.48c5.76,7.34,19.39,2.47,26.19-.6,8-3.61,13.62-10.61,14.38-19.48a12.19,12.19,0,0,0-1.3-7c-2.65-4.66-9.21-5.61-14-6.69a35.14,35.14,0,0,0-17.7.23C544.88,390.28,541.29,403.24,543.83,413.35Z"/></g><polygon class="cls-11" points="491.39 390.38 127.26 436.35 122.85 487.05 498.8 437.28 491.39 390.38"/><polygon class="cls-12" points="119.3 453.05 493.93 406.44 491.39 390.38 127.26 436.35 119.3 453.05"/><polygon class="cls-13" points="121.22 471.46 496.61 423.44 498.8 437.28 122.85 487.05 121.22 471.46"/><path class="cls-2" d="M127.26,436.35l6.44,49.23-50.83,6.86a8.44,8.44,0,0,1-9.49-7.23l-4.61-34a8.44,8.44,0,0,1,7.49-9.52Z"/><g class="cls-14"><polygon class="cls-15" points="88.99 434.74 96.91 494.12 70.73 495.97 62.23 440.96 88.99 434.74"/><polyline class="cls-16" points="100.52 433.79 108.6 494.23 121.4 493.23 112.89 432.74"/></g><path class="cls-1" d="M498.09,423.64c-4.45,1.28-9.18-1.58-10.56-6.39s1.1-9.74,5.55-11,9.18,1.58,10.56,6.39S502.54,422.36,498.09,423.64Z"/><path class="cls-1" d="M499.7,437a7.16,7.16,0,1,1,5.35-9A7.4,7.4,0,0,1,499.7,437Z"/><path class="cls-1" d="M494.94,406.46c-4.05,1.16-8.34-1.43-9.6-5.8s1-8.84,5.06-10,8.34,1.43,9.59,5.79S499,405.29,494.94,406.46Z"/><path class="cls-5" d="M222.13,768.78c8-33.09,15.45-66.33,19.74-100.09,1.38-10.81,2.7-21.64,4.21-32.44,1.63-11.68,3.5-22.8,5.82-39.38.84-6,13.24-5.89,19.13-7.25,14.73-3.42,29.9-1.61,44.83-1.36,5.5.09,12.95-2.23,16.57,2.59,3.87,5.14,3.78,14.19,4.13,20.3,3.08,54.21-3.43,108.33-4.94,162.47-.64,22.75-.25,45.31.88,68,.22,4.5-.9,9-6,9.61-2.35.3-7.15.08-9.29-1.15-4.84-2.78-7.88-12-9.54-16.88-2.38-7-3.67-14.38-4.92-21.68a397.17,397.17,0,0,1-4.39-40.87c-3-44.55-5.31-73.3-2-121.73-4.53,26.06-4.44,43.08-12.43,68.29-7.58,23.91-18.63,46.52-30.07,68.77-6.34,12.35-12.37,24.86-19.25,36.92-3.44,6-7.09,11.92-11.08,17.59-3.5,5-6.26,10-12.83,10.8a36.79,36.79,0,0,1-8.51-.34c-.79-.1-1.69-.27-2.06-1a2.45,2.45,0,0,1-.1-1.47c1.93-13.24,8.51-26.18,12.06-39.13C215.77,796,218.85,782.33,222.13,768.78Z"/><path class="cls-17" d="M246.42,598.15a13.33,13.33,0,0,1,2.75-1.44,35.82,35.82,0,0,1,5.83-1.82c4.64-1,4.25,1.75,5.18,5,1.12,3.89,3.44,7.72,4.93,11.51,1.64,4.16,4.61,7.79-.18,10.5a20.41,20.41,0,0,1-8,2.53,3.29,3.29,0,0,1-1.62-.14,3.21,3.21,0,0,1-1.17-1c-2.14-2.59-4.22-5.45-6.17-8.2-2.79-3.94-5.06-7.31-4.24-12.41a7.34,7.34,0,0,1,.9-2.67A6.23,6.23,0,0,1,246.42,598.15Z"/><path class="cls-18" d="M248.92,625.66a36.34,36.34,0,0,0,10.36-.35,19.61,19.61,0,0,0,6.75-3,28.63,28.63,0,0,0,9.84-12.66c.25-.59-.72-.85-1-.27a27.33,27.33,0,0,1-9.66,12.27,18.77,18.77,0,0,1-6.23,2.73,35.17,35.17,0,0,1-10.09.32c-.65,0-.64,1,0,1Z"/><path class="cls-18" d="M335.79,635a10.09,10.09,0,0,1-5.37-.07,7.2,7.2,0,0,1-2.64-1.89,21,21,0,0,1-3.5-5.65c-2.74-6-4.15-12.63-5.18-19.12-.1-.63-1.06-.36-1,.27,1.1,7,2.63,14.13,5.81,20.47a17.79,17.79,0,0,0,3.8,5.4c2.41,2.16,5.3,2.06,8.31,1.56.63-.11.36-1.07-.27-1Z"/><path class="cls-13" d="M316.17,588.25h-.54c-14.93-.25-30.11-2.06-44.83,1.36-5.9,1.36-18.3,1.25-19.14,7.25-.67,4.79-1.3,9.12-1.9,13.15a35.8,35.8,0,0,0,8.88,5,139.12,139.12,0,0,0,30.67,8.41c12,2,28.4,0,34.61,13,2.92,6.12,3.09,13.14,3.21,19.91.56,31.79,1.16,64.34-1.62,96.31a369.08,369.08,0,0,1-7.27,48.49c-2.82,12.61-7.63,26.22-8.08,39.46,1.69,3.93,3.92,7.84,6.79,9.49,2.15,1.23,6.94,1.45,9.29,1.15,5.12-.66,6.25-5.11,6-9.61-1.13-22.71-1.52-45.27-.88-68,1.51-54.14,8-108.26,4.94-162.48-.15-2.62-.22-5.79-.55-9C331,595.7,323.89,591,316.17,588.25Z"/><path class="cls-17" d="M341.69,457.53a16.25,16.25,0,0,0-3.85,2.89c-4.66,4.89-3.18,14.13,3.2,16.92,7.64,3.33,16.91,1.06,24.58-1,18.27-5,35.44-13.08,52-22.14,2.38-1.3,6-2.8,8.71-4.87a9.92,9.92,0,0,0,3-3.45Z"/><path class="cls-19" d="M343.69,490.5a108.58,108.58,0,0,0-6-20c-3-7.31-7.94-16.1-14.94-20.32-6.56-4-19.49-.18-26.77,1.51-6.85,1.59-17.15,3.74-22.7,8.33-5.14,4.23-4.56,14.82-3.94,20.94.71,7,2.43,14,3.05,21,1.15,12.89-1.41,25.8-4.45,38.37a319.65,319.65,0,0,1-13.85,44.32c-.86,2.13-1.76,4.35-1.53,6.63.41,3.91,3.94,6.66,7.31,8.66,22.23,13.15,49.45,11.13,74.41,9.91,2.07-.11,4.26-.27,5.95-1.47,2.11-1.49,2.92-4.2,3.49-6.72,3.09-13.69,3.19-27.85,3.13-41.87C346.79,537.06,348.22,513.06,343.69,490.5Z"/><path class="cls-17" d="M305.55,456.94q-7.47-2.28-14.79-5.07a3.76,3.76,0,0,1-1.39-.79c-1-1-.84-3.36-.92-4.72a42,42,0,0,1,.08-5.38c.23-3.27.78-6.55.76-9.83,0-2.64,0-5.39,1.19-7.74,1.44-2.82,4.42-4.59,7.49-5.32a32.77,32.77,0,0,1,9.44-.41,4.3,4.3,0,0,1,2.6.72c2.34,2,1.8,6,2.09,8.69a108.36,108.36,0,0,0,2.2,11.85c.41,1.82,1,3.61,1.41,5.42.35,1.43,1.09,3.34.53,4.74a19.59,19.59,0,0,1-6.63,7.89,2.88,2.88,0,0,1-1.18.6,3.17,3.17,0,0,1-1.36-.19Z"/><path class="cls-20" d="M293,439.44c6.22,4,14.93,6.35,22.31,4.26-.3-1.58-.61-3.16-1-4.76a108.36,108.36,0,0,1-2.2-11.85c-.29-2.73.25-6.69-2.09-8.69a4.32,4.32,0,0,0-2.6-.72,32.77,32.77,0,0,0-9.44.41,11.1,11.1,0,0,0-7.49,5.32c-1.21,2.35-1.21,5.1-1.2,7.74,0,1.71-.07,3.54-.18,5.42A35.1,35.1,0,0,0,293,439.44Z"/><path class="cls-17" d="M275.28,405.44c1.61,11.39,7.89,22.28,17.68,28.56,7.5,4.79,18.64,7.28,26.68,2.37,10.8-6.59,13-22.6,12.7-34.09-.33-13.59-5.67-28.81-18.84-34.85-9.27-4.25-23.78-4.68-30.4,4.18C276.25,380.79,273.6,393.58,275.28,405.44Z"/><path class="cls-17" d="M402.75,395.84c5.21,4.81,8.87,10.92,3.51,14.09-1.74,1-3.88-.59-5-2.3s-2.12-3.81-4.1-4.26c-1.53-.35-3.07.46-4.43,1.24l-15.34,8.77a10.28,10.28,0,0,1-2.57,1.17c-2.85.73-5.93-1.23-7.1-3.93a10.59,10.59,0,0,1,.53-8.56c4.44-9.49,11.08-10.45,20.49-10.78C394.33,391.09,398.6,392,402.75,395.84Z"/><path class="cls-4" d="M317,366.82a18,18,0,0,0-7.9,2.93c-4.72,3.2-7.62,8.43-11.87,12.23-4,3.57-9,5.73-13.86,8a6.52,6.52,0,0,0-2.48,1.69,5.39,5.39,0,0,0-.85,3.68c.44,7.29,5.32,13.74,1.56,21a5.65,5.65,0,0,1-1.55,2c-4.17,3.1-7.91-4.71-9.38-7.56a37.72,37.72,0,0,1-4-13.72c-.92-9.56.94-22.16,8.59-28.59,7.42-6.23,16.78-10.36,26.56-10.41a35.28,35.28,0,0,1,9.86,1.35,11.9,11.9,0,0,1,4.65,2.52,11.48,11.48,0,0,1,2.41,2.21,22.32,22.32,0,0,1,1.11,2.52A17.87,17.87,0,0,0,317,366.82Z"/><path class="cls-7" d="M302.25,418.83c4.15-.35,8.18-.28,12.3-1.21a48.27,48.27,0,0,0,11.93-4.38s-.39,4.43-.53,4.89a16,16,0,0,1-2.44,5c-3.55,4.82-11.62,6.21-16.67,3a10.28,10.28,0,0,1-3.31-3.38C303.38,422.48,301.78,418.87,302.25,418.83Z"/><path class="cls-4" d="M316.46,386c3.43-1.67,8.35-2.08,11.05,1.12.42.49,1.12-.22.71-.71-3-3.55-8.45-3.13-12.27-1.27-.58.28-.07,1.14.51.86Z"/><g class="cls-21"><path class="cls-22" d="M295.21,650.77c-1.25,4-2.17,8.2-3.29,12.28-5.12,18.55-11.72,37.41-21.11,54.52C260.53,736.3,246,751,232.3,767.14c-4.84,5.69-9.6,11.59-14,17.72-2,8.21-4,16.41-6.2,24.54-3.55,13-10.13,25.89-12.06,39.13a2.45,2.45,0,0,0,.1,1.47c.37.7,1.27.87,2.06,1a36.79,36.79,0,0,0,8.51.34c6.57-.77,9.33-5.82,12.83-10.8,4-5.67,7.64-11.57,11.07-17.59,6.89-12.06,12.92-24.57,19.26-36.92,11.44-22.25,22.49-44.86,30.07-68.77,8-25.21,7.9-42.23,12.43-68.29C296.08,648.94,295.29,650.52,295.21,650.77Z"/><path class="cls-22" d="M296.35,648.94c0,.33,0,.64-.07,1C296.39,649.44,296.49,648.94,296.35,648.94Z"/></g><path class="cls-23" d="M294.38,493.34q.09,5.16.16,10.32a24.63,24.63,0,0,1-.48,6.47,8.23,8.23,0,0,1-3.62,5.2c-3.95,2.25-10.18-1.15-12.4-4.6-3.39-5.26-4.6-11.19-4.8-17.42l21.14-.05Z"/><ellipse class="cls-17" cx="275.88" cy="416.58" rx="5.77" ry="9.36" transform="translate(-171.33 193.75) rotate(-30)"/><path class="cls-4" d="M300.15,401.15c.63,2.91-.11,5.55-1.66,5.88s-3.3-1.76-3.93-4.68.11-5.55,1.66-5.88S299.53,398.23,300.15,401.15Z"/><path class="cls-4" d="M324.89,396.21c.23,3-.85,5.49-2.43,5.61s-3-2.18-3.28-5.15.86-5.49,2.43-5.61S324.65,393.24,324.89,396.21Z"/><path class="cls-4" d="M298.57,388.87a11.09,11.09,0,0,0-11.27,7.34c-.23.6.74.86,1,.26a9.37,9.37,0,0,1,3.71-4.82c1.87-1.17,4.07-2.16,6.33-1.82.63.1.9-.87.26-1Z"/><polygon class="cls-7" points="316.2 446.71 308.77 457.31 319.86 466.71 319.86 448.64 316.2 446.71"/><polygon class="cls-7" points="278.49 455.4 288.66 448.37 308.77 457.31 303.58 470.39 278.49 455.4"/><path class="cls-4" d="M257.1,600.84c-5.75.26-9.5-4.59-9.69-10.5-.07-2.09,0-4.18.07-6.26.9-16.42,7.6-31.55,13.36-46.7,5-13.21,8.1-27.27,7.71-41.46a95.91,95.91,0,0,0-6.75-33.29,1.3,1.3,0,0,1-.14-.69,1.25,1.25,0,0,1,.3-.54c2.61-3.16,6.15-5.19,9.61-7.26a53.76,53.76,0,0,1,11.6-5.61c.75-.24,3.55-1.43,4.11-1.29,3.34.81,7,11.33,8.33,14.24,13.83,30.64,8.25,67.21-5.8,96.72-6.85,14.41-14.72,28.65-26.2,39.72a9.3,9.3,0,0,1-3.14,2.23A11.77,11.77,0,0,1,257.1,600.84Z"/><path class="cls-4" d="M225.19,516.44c-3.93,6.63-8.58,13.81-9.86,21.28-1.64,9.55,1,18.56,4,27.65,5.61,17.1,14,33,23.93,47.89.4.61.94,1.29,1.68,1.24a2,2,0,0,0,1-.42l14.4-9.51a5.06,5.06,0,0,0,1.94-1.87c.56-1.21.07-2.62-.42-3.86q-6.54-16.51-13.06-33c-1.92-4.84-3.86-9.77-4.35-15-.74-7.74,1.83-15.53,5.93-22.13s9.65-12.18,15.36-17.46c2-1.87,4.13-3.79,5.28-6.3,3.66-8.06,3.05-17.43,2.24-26-.43-4.55.25-19.66-7-19.51a6.31,6.31,0,0,0-3.58,1.64c-8.25,6.38-13.67,15.47-18.87,24.33C238.15,495,232.1,504.3,226.62,514,226.16,514.78,225.68,515.6,225.19,516.44Z"/><path class="cls-4" d="M349.88,573.89c.33-22.43.66-44.9-.6-67.31q-.48-8.5-1.29-17c-.35-3.67-.8-3.5,1.88-5.38,2-1.37,5.34-1.94,7.61-2.77,13.78-5,27.56-10.06,41.25-15.33,12.2-4.7,24.19-10.66,32.84-20.75-12.64,2.72-25.55,3.92-38.42,5.11-17.33,1.61-34.72,3.22-52.12,2.77-7.1-.19-14.84-1.38-21.17-4.6,2.4,6.46,5.46,13.64,5.67,20.49.25,8.15.8,16.3,1.09,24.45q.83,24,.78,48c0,24.77-1.81,48.73-4.16,73.32a47.6,47.6,0,0,0,16-1.43,6.12,6.12,0,0,0,2.58-1.16,6.27,6.27,0,0,0,1.51-2.47,82.49,82.49,0,0,0,5.76-21.05A136.8,136.8,0,0,0,349.88,573.89Z"/><path class="cls-24" d="M289.81,558.2c14.05-29.51,19.63-66.08,5.8-96.72-1.32-2.91-5-13.43-8.33-14.24-.56-.14-3.36,1.05-4.11,1.28l-.71.26c.3,1.42,1.11,2.46,1.83,4.05a48.61,48.61,0,0,1,2.81,9.54,114.82,114.82,0,0,1,1.15,43.71,14,14,0,0,1,6.19.72c-.32,2.26-2,4-3.05,6.06-2,4-1.26,8.82-.74,13.29a100.1,100.1,0,0,1-2.15,34.75C288.94,560,289.38,559.1,289.81,558.2Z"/><path class="cls-25" d="M334.75,477.89c1.61,10.32,3.05,20.68,4.6,31a6.14,6.14,0,0,1-3.43-.56c.5,5.95,1,11.95.26,17.87-1.7,13.42-9.65,25.43-11.4,38.85-2-14.71-4.09-29.44-5.21-44.25-1-13-1.27-26-3.19-38.9-1.59-10.6-4.29-21.07-4.86-31.78-.13-2.49-.12-5.1,1.07-7.28s3.92-3.72,6.22-2.77c1.62.68,2.58,2.34,3.41,3.89C328.13,454.94,333,465.41,334.75,477.89Z"/><path class="cls-24" d="M339.35,508.9c-1.55-10.33-3-20.69-4.6-31-1.4-9.8-4.7-18.37-8.91-26.91a35.69,35.69,0,0,1-6-2.34c2.4,6.46,5.46,13.64,5.67,20.49.25,8.15.8,16.3,1.09,24.45q.83,24,.78,48c0,4.44-.09,8.85-.2,13.25,3.06-9.52,7.72-18.68,9-28.6.74-5.92.24-11.92-.26-17.87A6.14,6.14,0,0,0,339.35,508.9Z"/><path class="cls-7" d="M311.48,463.47c3.21,8.53,4.19,17.87,4.86,26.9a273.78,273.78,0,0,1,.44,28.07c-.26,9.2-.56,18.43-1.34,27.6a211.13,211.13,0,0,1-4.16,27.05c-2.22,10.28-4.64,20.53-6.5,30.89-.11.63.85.9,1,.26,3.28-18.28,8.52-36.19,10.37-54.71.93-9.27,1.24-18.6,1.56-27.91s.42-18.72-.12-28.07c-.59-10.13-1.52-20.78-5.11-30.34-.23-.6-1.19-.34-1,.26Z"/><path class="cls-26" d="M931.71,684.44,903,674.28l-15.1,26.93.91.33a70.86,70.86,0,0,0-16.75.87L873,702l-17.83-25.22-27.47,13.1L836,719.61l.88-.42a71.43,71.43,0,0,0-11.23,12.47l.32-.91-30.44-5.22-10.16,28.69,26.94,15.11.32-.92a71,71,0,0,0,.88,16.76l-.42-.88-25.21,17.84L801,829.6l29.73-8.37-.42-.87a70.67,70.67,0,0,0,12.47,11.22l-.92-.32-5.21,30.44,28.68,10.16,15.11-26.93-.91-.33a70.86,70.86,0,0,0,16.75-.88l-.87.42,17.83,25.21,27.47-13.1-8.36-29.72-.88.41a71.41,71.41,0,0,0,11.23-12.46l-.32.91,30.43,5.22L983,791.92,956,776.81l-.32.91a71.45,71.45,0,0,0-.88-16.75l.42.88L980.46,744l-13.1-27.47-29.73,8.36.42.88a71.47,71.47,0,0,0-12.47-11.23l.91.33Z"/><circle class="cls-27" cx="884.17" cy="773.07" r="62.17" transform="translate(-287.67 851.63) rotate(-45)"/><circle class="cls-28" cx="884.17" cy="773.07" r="46.7" transform="translate(-213.73 1190.22) rotate(-61.97)"/><circle class="cls-7" cx="884.17" cy="773.07" r="32.49" transform="translate(-290.3 773.2) rotate(-41.17)"/><path class="cls-26" d="M889.87,548.59l-18.36-8.88-12,16.82.58.28a48.18,48.18,0,0,0-11.22-.65l.61-.21-10-18.11-19.26,6.7L823.54,565l.61-.22a47.48,47.48,0,0,0-8.39,7.48l.28-.59-19.89-5.71-8.88,18.35,16.83,12.05.28-.59a47.2,47.2,0,0,0-.65,11.23l-.22-.62-18.1,10,6.7,19.26,20.41-3.38-.21-.61a48.24,48.24,0,0,0,7.47,8.4l-.58-.29-5.72,19.89,18.36,8.88,12-16.82-.58-.28a48.15,48.15,0,0,0,11.22.65l-.61.21,10,18.11,19.26-6.7-3.38-20.42-.62.22a47.58,47.58,0,0,0,8.4-7.48l-.28.59,19.88,5.71L916.08,624,899.25,611.9l-.28.59a47.73,47.73,0,0,0,.65-11.23l.21.62,18.11-10-6.7-19.26L890.83,576l.21.61a48.24,48.24,0,0,0-7.47-8.4l.58.29Z"/><circle class="cls-27" cx="851.67" cy="604.11" r="41.66" transform="translate(-56.88 1118.73) rotate(-64.88)"/><path class="cls-28" d="M865.3,575.94a31.29,31.29,0,1,1-41.79,14.54A31.29,31.29,0,0,1,865.3,575.94Z"/><path class="cls-7" d="M861.16,584.51a21.77,21.77,0,1,1-29.08,10.12A21.77,21.77,0,0,1,861.16,584.51Z"/><g id="Layer_2" data-name="Layer 2"><g id="tutorang_logo" data-name="tutorang logo"><path id="Path_1" data-name="Path 1" class="cls-29" d="M771.16,808.92a12.6,12.6,0,0,0-6.2-7c-3.06-1.65-5.91-1.55-9.58-1.39-3.07.13-6.14.62-14,3-3.23,1-7.52,2.36-12.56,4.2l0,.65,0-.65c-5-1.84-9.36-3.23-12.56-4.2-7.81-2.35-10.91-2.87-14-3-3.68-.16-6.48-.26-9.58,1.39a12.82,12.82,0,0,0-6.2,7,12.13,12.13,0,0,0,.36,8.81,12.89,12.89,0,0,0,7.61,6.59c4.3,1.58,8.27.68,10.69.1a20.82,20.82,0,0,0,3.87-1.26c4.71-2,11.4-4.68,19.76-8.1,8.36,3.42,15,6.13,19.75,8.1a29.14,29.14,0,0,0,3.87,1.26c2.42.54,6.39,1.48,10.69-.1a12.93,12.93,0,0,0,7.62-6.59A11.73,11.73,0,0,0,771.16,808.92Zm-46.77,2.65L718,810.28l-2.38.26,6.19,2.42c-.55.26-1.29.64-2.19,1.06-.62.29-2.1,1-5.36,2.36-2.32,1-3.49,1.48-5.07,2.06-1.35.55-2.77,1-4.19,1.46a14.14,14.14,0,0,1-5.36.64c-1.36-.13-4.84-.51-6.52-3.39a7.23,7.23,0,0,1,.8-7.94,8.54,8.54,0,0,1,5.36-2.71c9-1.55,23.89,3.07,27.31,4.17Zm39.83,6.33c-1.32,1.25-3.13,1.84-5.62,1.93-9,.36-23-6.07-26.21-7.58l2.23-.65,6.13,2.1,2.39.06-5.74-3.16c.54-.19,1.35-.45,2.29-.74.64-.2,2.16-.68,5.52-1.62,2.42-.64,3.61-1,5.23-1.38a33.31,33.31,0,0,1,4.29-.88,15.65,15.65,0,0,1,5.33,0c1.29.32,4.68,1.13,6,4.13A7.21,7.21,0,0,1,764.22,817.9Z"/><path id="Path_2" data-name="Path 2" class="cls-29" d="M723,785.78c1.1,2.77,2.46,5.55,4,9.07,1.78,4,.91,2.48,1.23,3.1a3.88,3.88,0,0,1,.26.77,2.28,2.28,0,0,1,0,1.16,3.34,3.34,0,0,1-.39.91,3.3,3.3,0,0,1-.8.74l-.68.55c-1.91,1.42-8.23-.9-8.23-.9-5.68-2.1-10.43-4.81-11.46-5.2-.13-.07-.26-.1-.36-.16-.32-.2-.87-.52-.9-1a1.09,1.09,0,0,1,.45-.78,1.34,1.34,0,0,1,.77-.38,1.15,1.15,0,0,1,.49,0c.94.22,8,3.1,10.91,3.94a20,20,0,0,0,3.68.64l1.19,0h.07a.22.22,0,0,0,.22,0c.42-.32-1.55-3.58-2.29-4.77a61.52,61.52,0,0,1-5.55-13c-1.71-6.16-1.06-9.49-.77-10.65a13.06,13.06,0,0,1,1.71-4.13,12.83,12.83,0,0,1,4.52-4.23,14.68,14.68,0,0,1,5.55-1.84,13.59,13.59,0,0,1,6.61.32A13.27,13.27,0,0,1,739,763.7a13.74,13.74,0,0,1,3.32,7.26,19,19,0,0,1-.29,5.72c-.68,4.26-2,7.48-3.71,11.91a42.85,42.85,0,0,0-2.49,7.74c-.22,1-.61,1.52-.35,1.84,1.19,1.52,10.39-3.68,11.62-4.39s2.32-1.16,3.39-1.87a1.8,1.8,0,0,1,.84-.29.64.64,0,0,1,.42.13.72.72,0,0,1,.29.87,1,1,0,0,1-.17.32,4.37,4.37,0,0,1-.38.52,15,15,0,0,1-2.13,1.84c-3.59,2.32-4.07,3-7.1,4.52s-4.39,2.32-5.94,2.61c-.26,0-4.43.71-5.56-1.19-.38-.65-.25-1.32,0-2.68,1.42-7,1.09-6,1.35-6.81.91-3.13,1.16-3.65,2.2-7a59.54,59.54,0,0,0,2-7.59c.61-3.36.9-5.1.16-6.91a8.48,8.48,0,0,0-4.06-4.23,8.71,8.71,0,0,0-11.56,5c-.32.81-.74,2.3-.32,5.75A32.08,32.08,0,0,0,723,785.78Z"/><circle id="Ellipse_1" data-name="Ellipse 1" class="cls-29" cx="728.84" cy="745.46" r="11.75"/><rect id="Rectangle_1" data-name="Rectangle 1" class="cls-29" x="726.36" y="715.38" width="5" height="9.88"/><rect id="Rectangle_2" data-name="Rectangle 2" class="cls-29" x="750.89" y="730.11" width="9.88" height="5" transform="translate(-296.65 749.03) rotate(-45)"/><rect id="Rectangle_3" data-name="Rectangle 3" class="cls-29" x="699.33" y="727.65" width="5" height="9.88" transform="translate(-312.46 710.84) rotate(-45)"/><rect id="Rectangle_4" data-name="Rectangle 4" class="cls-29" x="761.09" y="757.18" width="9.88" height="5"/><rect id="Rectangle_5" data-name="Rectangle 5" class="cls-29" x="686.72" y="756.95" width="9.88" height="5"/></g></g></svg>